<svg width="450" height="400" viewBox="0 0 450 400" fill="none" xmlns="http://www.w3.org/2000/svg">
<mask id="mask0" mask-type="alpha" maskUnits="userSpaceOnUse" x="0" y="0" width="450" height="400">
<rect width="450" height="400" rx="40" fill="#F7E4DA"/>
</mask>
<g mask="url(#mask0)">
<g filter="url(#filter0_d)">
<path fill-rule="evenodd" clip-rule="evenodd" d="M0 319L18.75 316.3C37.5 313.6 75 308.2 112.5 302.8C150 297.4 187.5 292 225 286.6C262.5 281.2 300 275.8 337.5 267.7C375 259.6 412.5 248.8 431.25 243.4L450 238V400H431.25C412.5 400 375 400 337.5 400C300 400 262.5 400 225 400C187.5 400 150 400 112.5 400C75 400 37.5 400 18.75 400H0V319Z" fill="#4B5161"/>
</g>
</g>
<defs>
<filter id="filter0_d" x="-13" y="220" width="486" height="198" filterUnits="userSpaceOnUse" color-interpolation-filters="sRGB">
<feFlood flood-opacity="0" result="BackgroundImageFix"/>
<feColorMatrix in="SourceAlpha" type="matrix" values="0 0 0 0 0 0 0 0 0 0 0 0 0 0 0 0 0 0 127 0"/>
<feOffset dx="5"/>
<feGaussianBlur stdDeviation="9"/>
<feColorMatrix type="matrix" values="0 0 0 0 0 0 0 0 0 0 0 0 0 0 0 0 0 0 0.25 0"/>
<feBlend mode="normal" in2="BackgroundImageFix" result="effect1_dropShadow"/>
<feBlend mode="normal" in="SourceGraphic" in2="effect1_dropShadow" result="shape"/>
</filter>
</defs>
</svg>
