<svg width="450" height="400" viewBox="0 0 450 400" fill="none" xmlns="http://www.w3.org/2000/svg">
<mask id="mask0" mask-type="alpha" maskUnits="userSpaceOnUse" x="0" y="0" width="450" height="400">
<rect width="450" height="400" rx="40" fill="#F7E4DA"/>
</mask>
<g mask="url(#mask0)">
<g opacity="0.8">
<path d="M336.346 197.368H341.214L341.994 203.545H335.653L336.346 197.368Z" fill="#5F6B83"/>
<path d="M344.766 194.097C344.766 197.413 342.09 200.1 338.789 200.1C335.488 200.1 332.812 197.413 332.812 194.097C332.812 190.782 335.488 188.095 338.789 188.095C342.09 188.095 344.766 190.782 344.766 194.097Z" fill="#75C7A2"/>
<path d="M340.487 164.189C340.487 165.131 339.726 165.894 338.789 165.894C337.851 165.894 337.091 165.131 337.091 164.189C337.091 163.248 337.851 162.484 338.789 162.484C339.726 162.484 340.487 163.248 340.487 164.189Z" fill="#75C7A2"/>
<path d="M332.924 193.271L337.108 164.094H340.461L344.688 193.48L332.924 193.271Z" fill="#75C7A2"/>
<path fill-rule="evenodd" clip-rule="evenodd" d="M338.789 197.368H336.346L335.653 203.545H341.994L341.994 203.545H338.789V197.368Z" fill="#768EB3"/>
<path fill-rule="evenodd" clip-rule="evenodd" d="M338.789 162.484C338.789 162.484 338.788 162.484 338.788 162.484C337.851 162.484 337.09 163.248 337.09 164.189L337.091 164.213L333.044 192.433C332.892 192.961 332.811 193.52 332.811 194.097C332.811 197.413 335.487 200.1 338.788 200.1C338.791 200.1 338.795 200.1 338.798 200.1H338.789V162.484Z" fill="#A2E0C1"/>
</g>
<g opacity="0.8">
<path d="M371.192 192.192H373.943L374.384 195.671H370.8L371.192 192.192Z" fill="#5F6B83"/>
<path d="M375.95 190.349C375.95 192.217 374.438 193.73 372.572 193.73C370.706 193.73 369.193 192.217 369.193 190.349C369.193 188.482 370.706 186.968 372.572 186.968C374.438 186.968 375.95 188.482 375.95 190.349Z" fill="#75C7A2"/>
<path d="M373.531 173.502C373.531 174.033 373.102 174.463 372.572 174.463C372.042 174.463 371.612 174.033 371.612 173.502C371.612 172.972 372.042 172.542 372.572 172.542C373.102 172.542 373.531 172.972 373.531 173.502Z" fill="#75C7A2"/>
<path d="M369.257 189.884L371.622 173.448H373.517L375.906 190.001L369.257 189.884Z" fill="#75C7A2"/>
<path fill-rule="evenodd" clip-rule="evenodd" d="M372.572 192.192H371.192L370.8 195.671H374.384L374.384 195.671H372.572V192.192Z" fill="#768EB3"/>
<path fill-rule="evenodd" clip-rule="evenodd" d="M372.577 172.542H372.572V193.73C372.572 193.73 372.572 193.73 372.572 193.73C370.706 193.73 369.193 192.217 369.193 190.349C369.193 190.024 369.239 189.709 369.325 189.412L371.612 173.516L371.612 173.502C371.612 172.972 372.042 172.542 372.572 172.542C372.574 172.542 372.575 172.542 372.577 172.542Z" fill="#A2E0C1"/>
</g>
<g opacity="0.8">
<path d="M404.424 179.945H408.922L409.642 185.614H403.784L404.424 179.945Z" fill="#5F6B83"/>
<path d="M412.204 176.943C412.204 179.986 409.731 182.452 406.681 182.452C403.631 182.452 401.159 179.986 401.159 176.943C401.159 173.901 403.631 171.435 406.681 171.435C409.731 171.435 412.204 173.901 412.204 176.943Z" fill="#75C7A2"/>
<path d="M408.25 149.496C408.25 150.36 407.547 151.061 406.681 151.061C405.815 151.061 405.112 150.36 405.112 149.496C405.112 148.632 405.815 147.931 406.681 147.931C407.547 147.931 408.25 148.632 408.25 149.496Z" fill="#75C7A2"/>
<path d="M401.263 176.185L405.128 149.408H408.226L412.131 176.377L401.263 176.185Z" fill="#75C7A2"/>
<path fill-rule="evenodd" clip-rule="evenodd" d="M406.681 179.945H404.424L403.784 185.614H409.642L409.642 185.614H406.681V179.945Z" fill="#768EB3"/>
<path fill-rule="evenodd" clip-rule="evenodd" d="M412.203 176.903V176.984C412.203 176.97 412.204 176.957 412.204 176.943C412.204 176.93 412.203 176.916 412.203 176.903ZM406.681 182.452V147.931C405.815 147.931 405.112 148.632 405.112 149.496L405.113 149.518L401.374 175.416C401.234 175.901 401.159 176.413 401.159 176.943C401.159 179.986 403.631 182.452 406.681 182.452Z" fill="#A2E0C1"/>
</g>
<g opacity="0.8">
<path d="M379.983 186.264H385.54L386.429 193.281H379.192L379.983 186.264Z" fill="#5F6B83"/>
<path d="M389.593 182.548C389.593 186.314 386.539 189.367 382.772 189.367C379.004 189.367 375.95 186.314 375.95 182.548C375.95 178.781 379.004 175.728 382.772 175.728C386.539 175.728 389.593 178.781 389.593 182.548Z" fill="#75C7A2"/>
<path d="M384.709 148.57C384.709 149.64 383.842 150.507 382.772 150.507C381.701 150.507 380.834 149.64 380.834 148.57C380.834 147.5 381.701 146.633 382.772 146.633C383.842 146.633 384.709 147.5 384.709 148.57Z" fill="#75C7A2"/>
<path d="M376.078 181.609L380.853 148.461H384.68L389.504 181.846L376.078 181.609Z" fill="#75C7A2"/>
<path fill-rule="evenodd" clip-rule="evenodd" d="M382.771 186.264H379.983L379.192 193.281H386.429L386.429 193.281H382.771V186.264Z" fill="#768EB3"/>
<path fill-rule="evenodd" clip-rule="evenodd" d="M382.779 146.633H382.771V189.367C379.004 189.367 375.95 186.314 375.95 182.548C375.95 181.892 376.042 181.257 376.215 180.657L380.834 148.597L380.834 148.57C380.834 147.5 381.701 146.633 382.772 146.633C382.774 146.633 382.777 146.633 382.779 146.633ZM389.593 182.514V182.581C389.593 182.57 389.593 182.559 389.593 182.548C389.593 182.537 389.593 182.526 389.593 182.514Z" fill="#A2E0C1"/>
</g>
<g opacity="0.8">
<path d="M391.471 181.093H398.35L399.452 189.771H390.492L391.471 181.093Z" fill="#5F6B83"/>
<path d="M403.369 176.497C403.369 181.155 399.587 184.93 394.923 184.93C390.258 184.93 386.477 181.155 386.477 176.497C386.477 171.839 390.258 168.063 394.923 168.063C399.587 168.063 403.369 171.839 403.369 176.497Z" fill="#75C7A2"/>
<path d="M397.322 134.474C397.322 135.797 396.248 136.87 394.923 136.87C393.598 136.87 392.523 135.797 392.523 134.474C392.523 133.151 393.598 132.078 394.923 132.078C396.248 132.078 397.322 133.151 397.322 134.474Z" fill="#75C7A2"/>
<path d="M386.636 175.335L392.548 134.339H397.285L403.258 175.629L386.636 175.335Z" fill="#75C7A2"/>
<path fill-rule="evenodd" clip-rule="evenodd" d="M394.923 181.093H391.471L390.492 189.771H399.452L399.452 189.771H394.923V181.093Z" fill="#768EB3"/>
<path fill-rule="evenodd" clip-rule="evenodd" d="M394.923 132.078C394.923 132.078 394.923 132.078 394.923 132.078C393.598 132.078 392.523 133.151 392.523 134.474L392.524 134.507L386.806 174.158C386.591 174.901 386.477 175.685 386.477 176.497C386.477 181.155 390.258 184.931 394.923 184.931C394.929 184.931 394.935 184.93 394.941 184.93H394.923V132.078Z" fill="#A2E0C1"/>
</g>
<g opacity="0.8">
<path d="M427.521 177.12H431.437L432.064 182.104H426.964L427.521 177.12Z" fill="#5F6B83"/>
<path d="M434.294 174.48C434.294 177.155 432.141 179.324 429.486 179.324C426.831 179.324 424.678 177.155 424.678 174.48C424.678 171.805 426.831 169.636 429.486 169.636C432.141 169.636 434.294 171.805 434.294 174.48Z" fill="#75C7A2"/>
<path d="M430.852 150.346C430.852 151.105 430.24 151.721 429.486 151.721C428.732 151.721 428.12 151.105 428.12 150.346C428.12 149.586 428.732 148.97 429.486 148.97C430.24 148.97 430.852 149.586 430.852 150.346Z" fill="#75C7A2"/>
<path d="M424.769 173.813L428.134 150.268H430.831L434.231 173.982L424.769 173.813Z" fill="#75C7A2"/>
<path fill-rule="evenodd" clip-rule="evenodd" d="M429.486 177.12H427.521L426.964 182.104H432.064L432.064 182.104H429.486V177.12Z" fill="#768EB3"/>
<path fill-rule="evenodd" clip-rule="evenodd" d="M434.294 174.399V174.562C434.294 174.535 434.294 174.507 434.294 174.48C434.294 174.453 434.294 174.426 434.294 174.399ZM429.486 179.324V148.97C428.732 148.97 428.121 149.586 428.121 150.346L428.121 150.365L424.866 173.137C424.744 173.564 424.679 174.014 424.679 174.48C424.679 177.155 426.831 179.324 429.486 179.324Z" fill="#A2E0C1"/>
</g>
<g opacity="0.8">
<path d="M436.31 171.949H442.131L443.063 179.377H435.481L436.31 171.949Z" fill="#5F6B83"/>
<path d="M446.378 168.016C446.378 172.002 443.178 175.234 439.231 175.234C435.284 175.234 432.084 172.002 432.084 168.016C432.084 164.029 435.284 160.798 439.231 160.798C443.178 160.798 446.378 164.029 446.378 168.016Z" fill="#75C7A2"/>
<path d="M441.261 132.05C441.261 133.183 440.352 134.101 439.231 134.101C438.11 134.101 437.201 133.183 437.201 132.05C437.201 130.918 438.11 130 439.231 130C440.352 130 441.261 130.918 441.261 132.05Z" fill="#75C7A2"/>
<path d="M432.219 167.022L437.222 131.935H441.23L446.285 167.273L432.219 167.022Z" fill="#75C7A2"/>
<path fill-rule="evenodd" clip-rule="evenodd" d="M439.231 171.949H436.31L435.481 179.377H443.063L443.063 179.377H439.231V171.949Z" fill="#768EB3"/>
<path fill-rule="evenodd" clip-rule="evenodd" d="M446.378 167.975V168.056C446.378 168.043 446.378 168.029 446.378 168.016C446.378 168.002 446.378 167.989 446.378 167.975ZM439.231 175.234V130C438.11 130 437.201 130.918 437.201 132.05L437.201 132.079L432.363 166.014C432.182 166.65 432.084 167.321 432.084 168.016C432.084 172.002 435.284 175.234 439.231 175.234Z" fill="#A2E0C1"/>
</g>
<g opacity="0.8">
<path d="M220.262 240.313H222.379L222.718 242.991H219.961L220.262 240.313Z" fill="#5F6B83"/>
<path d="M223.923 238.895C223.923 240.333 222.76 241.498 221.324 241.498C219.889 241.498 218.726 240.333 218.726 238.895C218.726 237.458 219.889 236.293 221.324 236.293C222.76 236.293 223.923 237.458 223.923 238.895Z" fill="#75C7A2"/>
<path d="M222.063 225.929C222.063 226.337 221.732 226.668 221.324 226.668C220.917 226.668 220.586 226.337 220.586 225.929C220.586 225.521 220.917 225.19 221.324 225.19C221.732 225.19 222.063 225.521 222.063 225.929Z" fill="#75C7A2"/>
<path d="M218.775 238.537L220.594 225.887H222.051L223.889 238.628L218.775 238.537Z" fill="#75C7A2"/>
<path fill-rule="evenodd" clip-rule="evenodd" d="M221.325 240.313H220.262L219.961 242.991H222.718L222.718 242.991H221.325V240.313Z" fill="#768EB3"/>
<path fill-rule="evenodd" clip-rule="evenodd" d="M221.324 225.19C220.917 225.19 220.586 225.521 220.586 225.929L220.586 225.939L218.827 238.174C218.761 238.403 218.726 238.645 218.726 238.895C218.726 240.333 219.889 241.498 221.324 241.498C221.326 241.498 221.329 241.498 221.331 241.498H221.324V225.19ZM223.923 238.905C223.923 238.902 223.923 238.899 223.923 238.895C223.923 238.892 223.923 238.889 223.923 238.885V238.905Z" fill="#A2E0C1"/>
</g>
<g opacity="0.8">
<path d="M224.939 238.753H227.056L227.395 241.43H224.638L224.939 238.753Z" fill="#5F6B83"/>
<path d="M228.6 237.335C228.6 238.772 227.437 239.937 226.002 239.937C224.566 239.937 223.403 238.772 223.403 237.335C223.403 235.897 224.566 234.732 226.002 234.732C227.437 234.732 228.6 235.897 228.6 237.335Z" fill="#75C7A2"/>
<path d="M226.74 224.368C226.74 224.776 226.409 225.107 226.002 225.107C225.594 225.107 225.263 224.776 225.263 224.368C225.263 223.96 225.594 223.629 226.002 223.629C226.409 223.629 226.74 223.96 226.74 224.368Z" fill="#75C7A2"/>
<path d="M223.452 236.976L225.271 224.327H226.729L228.566 237.067L223.452 236.976Z" fill="#75C7A2"/>
<path fill-rule="evenodd" clip-rule="evenodd" d="M226.002 238.753H224.939L224.638 241.43H227.395L227.395 241.43H226.002V238.753Z" fill="#768EB3"/>
<path fill-rule="evenodd" clip-rule="evenodd" d="M226.002 223.629C226.001 223.629 226.001 223.629 226.001 223.629C225.593 223.629 225.263 223.96 225.263 224.368L225.263 224.378L223.504 236.613C223.438 236.842 223.402 237.084 223.402 237.335C223.402 238.772 224.566 239.937 226.001 239.937C226.003 239.937 226.004 239.937 226.006 239.937H226.002V223.629Z" fill="#A2E0C1"/>
</g>
<g opacity="0.8">
<path d="M229.444 237.107H232.037L232.452 240.391H229.075L229.444 237.107Z" fill="#5F6B83"/>
<path d="M233.928 235.368C233.928 237.131 232.503 238.56 230.745 238.56C228.986 238.56 227.561 237.131 227.561 235.368C227.561 233.606 228.986 232.177 230.745 232.177C232.503 232.177 233.928 233.606 233.928 235.368Z" fill="#75C7A2"/>
<path d="M231.649 219.468C231.649 219.969 231.244 220.374 230.745 220.374C230.245 220.374 229.84 219.969 229.84 219.468C229.84 218.967 230.245 218.561 230.745 218.561C231.244 218.561 231.649 218.967 231.649 219.468Z" fill="#75C7A2"/>
<path d="M227.621 234.929L229.849 219.417H231.635L233.887 235.04L227.621 234.929Z" fill="#75C7A2"/>
<path fill-rule="evenodd" clip-rule="evenodd" d="M230.745 237.107H229.444L229.075 240.391H232.452L232.452 240.391H230.745V237.107Z" fill="#768EB3"/>
<path fill-rule="evenodd" clip-rule="evenodd" d="M230.749 218.561H230.745V238.56C230.745 238.56 230.745 238.56 230.745 238.56C228.986 238.56 227.561 237.131 227.561 235.368C227.561 235.061 227.604 234.765 227.685 234.484L229.84 219.481L229.84 219.468C229.84 218.967 230.245 218.561 230.745 218.561C230.746 218.561 230.747 218.561 230.749 218.561Z" fill="#A2E0C1"/>
</g>
<g opacity="0.8">
<path d="M238.508 232.69H242.848L243.542 238.183H237.891L238.508 232.69Z" fill="#5F6B83"/>
<path d="M246.013 229.782C246.013 232.729 243.628 235.119 240.686 235.119C237.744 235.119 235.358 232.729 235.358 229.782C235.358 226.834 237.744 224.444 240.686 224.444C243.628 224.444 246.013 226.834 246.013 229.782Z" fill="#75C7A2"/>
<path d="M242.199 203.186C242.199 204.023 241.522 204.702 240.686 204.702C239.85 204.702 239.173 204.023 239.173 203.186C239.173 202.349 239.85 201.67 240.686 201.67C241.522 201.67 242.199 202.349 242.199 203.186Z" fill="#75C7A2"/>
<path d="M235.459 229.047L239.188 203.101H242.176L245.944 229.232L235.459 229.047Z" fill="#75C7A2"/>
<path fill-rule="evenodd" clip-rule="evenodd" d="M240.686 232.69H238.508L237.891 238.183H243.542L243.542 238.183H240.686V232.69Z" fill="#768EB3"/>
<path fill-rule="evenodd" clip-rule="evenodd" d="M246.013 229.725V229.839C246.013 229.82 246.013 229.801 246.013 229.782C246.013 229.762 246.013 229.743 246.013 229.725ZM240.686 235.119V201.67H240.689C240.688 201.67 240.687 201.67 240.686 201.67C240.686 201.67 240.686 201.67 240.686 201.67C239.85 201.67 239.173 202.349 239.173 203.186L239.173 203.207L235.566 228.301C235.431 228.771 235.358 229.268 235.358 229.782C235.358 232.729 237.743 235.119 240.686 235.119Z" fill="#A2E0C1"/>
</g>
<g opacity="0.8">
<path d="M186.013 247.375H190.352L191.047 252.867H185.396L186.013 247.375Z" fill="#5F6B83"/>
<path d="M193.518 244.466C193.518 247.414 191.133 249.804 188.19 249.804C185.248 249.804 182.863 247.414 182.863 244.466C182.863 241.518 185.248 239.128 188.19 239.128C191.133 239.128 193.518 241.518 193.518 244.466Z" fill="#75C7A2"/>
<path d="M189.704 217.87C189.704 218.708 189.026 219.387 188.19 219.387C187.355 219.387 186.677 218.708 186.677 217.87C186.677 217.033 187.355 216.354 188.19 216.354C189.026 216.354 189.704 217.033 189.704 217.87Z" fill="#75C7A2"/>
<path d="M182.963 243.731L186.692 217.785H189.68L193.448 243.917L182.963 243.731Z" fill="#75C7A2"/>
<path fill-rule="evenodd" clip-rule="evenodd" d="M188.19 247.375H186.013L185.396 252.867H191.047L191.047 252.867H188.19V247.375Z" fill="#768EB3"/>
<path fill-rule="evenodd" clip-rule="evenodd" d="M188.19 216.354C188.19 216.354 188.19 216.354 188.19 216.354C187.355 216.354 186.677 217.033 186.677 217.87L186.677 217.892L183.07 242.986C182.935 243.456 182.863 243.952 182.863 244.466C182.863 247.414 185.248 249.804 188.19 249.804C188.194 249.804 188.198 249.804 188.201 249.804H188.19V216.354Z" fill="#A2E0C1"/>
</g>
<g opacity="0.8">
<path d="M193.938 246.684H198.277L198.972 252.177H193.32L193.938 246.684Z" fill="#5F6B83"/>
<path d="M201.443 243.776C201.443 246.723 199.058 249.113 196.116 249.113C193.173 249.113 190.788 246.723 190.788 243.776C190.788 240.828 193.173 238.438 196.116 238.438C199.058 238.438 201.443 240.828 201.443 243.776Z" fill="#75C7A2"/>
<path d="M197.629 217.18C197.629 218.017 196.951 218.696 196.116 218.696C195.28 218.696 194.602 218.017 194.602 217.18C194.602 216.343 195.28 215.664 196.116 215.664C196.951 215.664 197.629 216.343 197.629 217.18Z" fill="#75C7A2"/>
<path d="M190.888 243.041L194.618 217.095H197.606L201.374 243.226L190.888 243.041Z" fill="#75C7A2"/>
<path fill-rule="evenodd" clip-rule="evenodd" d="M196.115 246.684H193.938L193.32 252.177H198.972L198.972 252.177H196.115V246.684Z" fill="#768EB3"/>
<path fill-rule="evenodd" clip-rule="evenodd" d="M196.12 215.664H196.115V249.113C193.173 249.113 190.788 246.723 190.788 243.776C190.788 243.262 190.86 242.765 190.996 242.295L194.602 217.201L194.602 217.18C194.602 216.343 195.28 215.664 196.116 215.664C196.117 215.664 196.118 215.664 196.12 215.664ZM201.443 243.704V243.847C201.443 243.823 201.443 243.799 201.443 243.776C201.443 243.752 201.443 243.728 201.443 243.704Z" fill="#A2E0C1"/>
</g>
<g opacity="0.8">
<path d="M203.977 242.433H208.899L209.687 248.669H203.277L203.977 242.433Z" fill="#5F6B83"/>
<path d="M212.489 239.131C212.489 242.478 209.784 245.191 206.447 245.191C203.11 245.191 200.405 242.478 200.405 239.131C200.405 235.785 203.11 233.072 206.447 233.072C209.784 233.072 212.489 235.785 212.489 239.131Z" fill="#75C7A2"/>
<path d="M208.163 208.939C208.163 209.89 207.395 210.661 206.447 210.661C205.499 210.661 204.731 209.89 204.731 208.939C204.731 207.989 205.499 207.218 206.447 207.218C207.395 207.218 208.163 207.989 208.163 208.939Z" fill="#75C7A2"/>
<path d="M200.519 238.297L204.748 208.843H208.137L212.41 238.508L200.519 238.297Z" fill="#75C7A2"/>
<path fill-rule="evenodd" clip-rule="evenodd" d="M206.446 242.433H203.977L203.277 248.669H209.687L209.687 248.669H206.446V242.433Z" fill="#768EB3"/>
<path fill-rule="evenodd" clip-rule="evenodd" d="M206.453 207.218H206.446V245.191C203.11 245.191 200.405 242.478 200.405 239.131C200.405 238.548 200.487 237.985 200.64 237.451L204.731 208.964L204.731 208.939C204.731 207.989 205.499 207.218 206.447 207.218C206.449 207.218 206.451 207.218 206.453 207.218ZM212.489 239.056V239.206C212.489 239.181 212.489 239.156 212.489 239.131C212.489 239.106 212.489 239.081 212.489 239.056Z" fill="#A2E0C1"/>
</g>
<g opacity="0.8">
<path d="M150.7 266.716H153.293L153.708 270H150.331L150.7 266.716Z" fill="#5F6B83"/>
<path d="M155.184 264.977C155.184 266.74 153.759 268.168 152.001 268.168C150.243 268.168 148.817 266.74 148.817 264.977C148.817 263.215 150.243 261.786 152.001 261.786C153.759 261.786 155.184 263.215 155.184 264.977Z" fill="#75C7A2"/>
<path d="M152.905 249.077C152.905 249.577 152.5 249.983 152.001 249.983C151.501 249.983 151.097 249.577 151.097 249.077C151.097 248.576 151.501 248.17 152.001 248.17C152.5 248.17 152.905 248.576 152.905 249.077Z" fill="#75C7A2"/>
<path d="M148.877 264.538L151.106 249.026H152.891L155.143 264.649L148.877 264.538Z" fill="#75C7A2"/>
<path fill-rule="evenodd" clip-rule="evenodd" d="M152.001 266.716H150.7L150.331 270H153.708L153.708 270H152.001V266.716Z" fill="#768EB3"/>
<path fill-rule="evenodd" clip-rule="evenodd" d="M152.001 248.17C152.001 248.17 152.001 248.17 152.001 248.17C151.501 248.17 151.097 248.576 151.097 249.077L151.097 249.089L148.941 264.092C148.861 264.373 148.817 264.67 148.817 264.977C148.817 266.74 150.243 268.168 152.001 268.168C152.003 268.168 152.005 268.168 152.007 268.168H152.001V248.17Z" fill="#A2E0C1"/>
</g>
<g opacity="0.8">
<path d="M157.718 263.99H160.311L160.726 267.273H157.349L157.718 263.99Z" fill="#5F6B83"/>
<path d="M162.202 262.251C162.202 264.013 160.777 265.442 159.018 265.442C157.26 265.442 155.835 264.013 155.835 262.251C155.835 260.488 157.26 259.059 159.018 259.059C160.777 259.059 162.202 260.488 162.202 262.251Z" fill="#75C7A2"/>
<path d="M159.923 246.35C159.923 246.851 159.518 247.257 159.018 247.257C158.519 247.257 158.114 246.851 158.114 246.35C158.114 245.85 158.519 245.444 159.018 245.444C159.518 245.444 159.923 245.85 159.923 246.35Z" fill="#75C7A2"/>
<path d="M155.895 261.811L158.123 246.299H159.909L162.16 261.922L155.895 261.811Z" fill="#75C7A2"/>
<path fill-rule="evenodd" clip-rule="evenodd" d="M159.018 263.99H157.718L157.349 267.273H160.726L160.726 267.273H159.018V263.99Z" fill="#768EB3"/>
<path fill-rule="evenodd" clip-rule="evenodd" d="M159.018 245.444C158.519 245.444 158.114 245.85 158.114 246.35L158.114 246.363L155.959 261.366C155.878 261.647 155.835 261.944 155.835 262.251C155.835 264.013 157.26 265.442 159.018 265.442C159.022 265.442 159.025 265.442 159.028 265.442H159.018V245.444ZM162.201 262.306C162.202 262.288 162.202 262.269 162.202 262.251C162.202 262.232 162.202 262.214 162.201 262.195V262.306Z" fill="#A2E0C1"/>
</g>
<g opacity="0.8">
<path d="M347.838 194.663H353.5L354.407 201.856H347.032L347.838 194.663Z" fill="#5F6B83"/>
<path d="M357.631 190.854C357.631 194.714 354.518 197.844 350.679 197.844C346.839 197.844 343.727 194.714 343.727 190.854C343.727 186.993 346.839 183.863 350.679 183.863C354.518 183.863 357.631 186.993 357.631 190.854Z" fill="#75C7A2"/>
<path d="M352.653 156.024C352.653 157.121 351.769 158.01 350.679 158.01C349.588 158.01 348.704 157.121 348.704 156.024C348.704 154.927 349.588 154.038 350.679 154.038C351.769 154.038 352.653 154.927 352.653 156.024Z" fill="#75C7A2"/>
<path d="M343.858 189.891L348.724 155.913H352.623L357.54 190.134L343.858 189.891Z" fill="#75C7A2"/>
<path fill-rule="evenodd" clip-rule="evenodd" d="M350.679 194.663H347.838L347.032 201.856H354.407L354.407 201.856H350.679V194.663Z" fill="#768EB3"/>
<path fill-rule="evenodd" clip-rule="evenodd" d="M350.687 154.038H350.679V197.844C346.839 197.844 343.727 194.714 343.727 190.854C343.727 190.181 343.822 189.531 343.998 188.915L348.704 156.052L348.704 156.024C348.704 154.927 349.588 154.038 350.679 154.038C350.682 154.038 350.684 154.038 350.687 154.038ZM357.63 190.794V190.913C357.63 190.893 357.631 190.874 357.631 190.854C357.631 190.834 357.63 190.814 357.63 190.794Z" fill="#A2E0C1"/>
</g>
</g>
</svg>
