<svg width="122" height="60" viewBox="0 0 122 60" fill="none" xmlns="http://www.w3.org/2000/svg">
<g filter="url(#filter0_d)">
<path d="M12 28C12 20.8203 17.8203 15 25 15H91C98.1797 15 104 20.8203 104 28V29C104 36.1797 98.1797 42 91 42H31L28 45L25 42C17.8203 42 12 36.1797 12 29V28Z" fill="#DD5D5A"/>
<path d="M25.3536 41.6464L25.2071 41.5H25C18.0964 41.5 12.5 35.9036 12.5 29V28C12.5 21.0964 18.0964 15.5 25 15.5H91C97.9036 15.5 103.5 21.0964 103.5 28V29C103.5 35.9036 97.9036 41.5 91 41.5H31H30.7929L30.6464 41.6464L28 44.2929L25.3536 41.6464Z" stroke="white" stroke-opacity="0.3" style="mix-blend-mode:overlay"/>
<path d="M28.056 27.504C29.1547 27.6107 29.992 27.952 30.568 28.528C31.144 29.0933 31.432 29.8187 31.432 30.704C31.432 31.344 31.272 31.9253 30.952 32.448C30.632 32.96 30.152 33.3707 29.512 33.68C28.8827 33.9787 28.1093 34.128 27.192 34.128C26.392 34.128 25.624 34.0107 24.888 33.776C24.152 33.5307 23.5493 33.1947 23.08 32.768L23.816 31.504C24.2 31.8667 24.6907 32.16 25.288 32.384C25.8853 32.5973 26.52 32.704 27.192 32.704C28.024 32.704 28.6693 32.528 29.128 32.176C29.5973 31.824 29.832 31.3387 29.832 30.72C29.832 30.1013 29.6027 29.6213 29.144 29.28C28.6853 28.9387 27.992 28.768 27.064 28.768H26.168V27.648L28.984 24.192H23.592V22.8H30.984V23.888L28.056 27.504ZM37.5003 34.128C36.6149 34.128 35.8256 33.904 35.1323 33.456C34.4496 32.9973 33.9109 32.336 33.5163 31.472C33.1216 30.608 32.9243 29.584 32.9243 28.4C32.9243 27.216 33.1216 26.192 33.5163 25.328C33.9109 24.464 34.4496 23.808 35.1323 23.36C35.8256 22.9013 36.6149 22.672 37.5003 22.672C38.3749 22.672 39.1536 22.9013 39.8363 23.36C40.5296 23.808 41.0736 24.464 41.4683 25.328C41.8629 26.192 42.0603 27.216 42.0603 28.4C42.0603 29.584 41.8629 30.608 41.4683 31.472C41.0736 32.336 40.5296 32.9973 39.8363 33.456C39.1536 33.904 38.3749 34.128 37.5003 34.128ZM37.5003 32.704C38.3963 32.704 39.1109 32.336 39.6443 31.6C40.1883 30.864 40.4603 29.7973 40.4603 28.4C40.4603 27.0027 40.1883 25.936 39.6443 25.2C39.1109 24.464 38.3963 24.096 37.5003 24.096C36.5936 24.096 35.8683 24.464 35.3243 25.2C34.7909 25.936 34.5243 27.0027 34.5243 28.4C34.5243 29.7973 34.7909 30.864 35.3243 31.6C35.8683 32.336 36.5936 32.704 37.5003 32.704ZM44.3801 24.912H45.9321V32.704H50.8121V34H44.3801V24.912ZM60.0664 20.528H61.4584L56.1784 35.6H54.7864L60.0664 20.528ZM75.2043 34L75.1883 27.696L72.0523 32.912H71.3323L68.1963 27.84V34H66.7083V24.912H68.0363L71.7163 31.024L75.3323 24.912H76.6763L76.6923 34H75.2043ZM79.802 24.912H81.354V34H79.802V24.912ZM92.5226 24.912V34H91.2426L85.9946 27.584V34H84.4426V24.912H85.7226L90.9706 31.36V24.912H92.5226Z" fill="white"/>
</g>
<defs>
<filter id="filter0_d" x="0" y="0" width="122" height="60" filterUnits="userSpaceOnUse" color-interpolation-filters="sRGB">
<feFlood flood-opacity="0" result="BackgroundImageFix"/>
<feColorMatrix in="SourceAlpha" type="matrix" values="0 0 0 0 0 0 0 0 0 0 0 0 0 0 0 0 0 0 127 0"/>
<feOffset dx="3"/>
<feGaussianBlur stdDeviation="7.5"/>
<feColorMatrix type="matrix" values="0 0 0 0 0 0 0 0 0 0 0 0 0 0 0 0 0 0 0.2 0"/>
<feBlend mode="normal" in2="BackgroundImageFix" result="effect1_dropShadow"/>
<feBlend mode="normal" in="SourceGraphic" in2="effect1_dropShadow" result="shape"/>
</filter>
</defs>
</svg>
