<svg width="281" height="197" viewBox="0 0 281 197" fill="none" xmlns="http://www.w3.org/2000/svg">
<g filter="url(#filter0_ddd)">
<rect x="28" y="25" width="225" height="141.429" rx="15.4286" fill="url(#paint0_linear)"/>
<rect x="28.3214" y="25.3214" width="224.357" height="140.786" rx="15.1071" stroke="white" stroke-opacity="0.3" stroke-width="0.642857" style="mix-blend-mode:overlay"/>
</g>
<path opacity="0.6" d="M89.9151 35.8V43H89.0716L84.7516 37.6309V43H83.7231V35.8H84.5665L88.8865 41.1691V35.8H89.9151ZM96.3696 42.1669V43H91.9879V37.1577H96.2565V37.9806H92.9856V39.6263H95.8965V40.4389H92.9856V42.1669H96.3696ZM106.28 37.1577L104.305 43H103.245L101.713 38.5154L100.18 43H99.1105L97.1356 37.1577H98.1642L99.6865 41.7349L101.27 37.1577H102.206L103.76 41.7657L105.313 37.1577H106.28ZM110.39 37.1577H112.93C113.582 37.1577 114.151 37.2777 114.638 37.5177C115.125 37.7577 115.498 38.1006 115.759 38.5463C116.026 38.9851 116.16 39.496 116.16 40.0789C116.16 40.6617 116.026 41.176 115.759 41.6217C115.498 42.0606 115.125 42.4 114.638 42.64C114.151 42.88 113.582 43 112.93 43H110.39V37.1577ZM112.889 42.1669C113.602 42.1669 114.158 41.9817 114.555 41.6114C114.953 41.2343 115.152 40.7234 115.152 40.0789C115.152 39.4274 114.953 38.9166 114.555 38.5463C114.158 38.1691 113.602 37.9806 112.889 37.9806H111.387V42.1669H112.889ZM121.993 42.1669V43H117.612V37.1577H121.88V37.9806H118.609V39.6263H121.52V40.4389H118.609V42.1669H121.993ZM128.674 37.1577L126.072 43H125.084L122.492 37.1577H123.562L125.598 41.8171L127.666 37.1577H128.674ZM129.756 37.1577H130.753V43H129.756V37.1577ZM135.362 43.0823C134.765 43.0823 134.224 42.952 133.737 42.6914C133.257 42.4309 132.88 42.0743 132.605 41.6217C132.331 41.1623 132.194 40.648 132.194 40.0789C132.194 39.5097 132.331 38.9989 132.605 38.5463C132.88 38.0869 133.257 37.7269 133.737 37.4663C134.224 37.2057 134.765 37.0754 135.362 37.0754C136.37 37.0754 137.138 37.3806 137.666 37.9909L137.028 38.6389C136.589 38.1726 136.044 37.9394 135.393 37.9394C134.974 37.9394 134.597 38.032 134.261 38.2171C133.932 38.3954 133.672 38.6491 133.48 38.9783C133.294 39.3006 133.202 39.6674 133.202 40.0789C133.202 40.4834 133.294 40.8503 133.48 41.1794C133.672 41.5017 133.932 41.7554 134.261 41.9406C134.597 42.1257 134.974 42.2183 135.393 42.2183C136.037 42.2183 136.582 41.9817 137.028 41.5086L137.666 42.1566C137.131 42.7737 136.363 43.0823 135.362 43.0823ZM143.389 42.1669V43H139.007V37.1577H143.275V37.9806H140.005V39.6263H142.915V40.4389H140.005V42.1669H143.389ZM147.635 37.1577H150.176C150.827 37.1577 151.396 37.2777 151.883 37.5177C152.37 37.7577 152.744 38.1006 153.004 38.5463C153.272 38.9851 153.405 39.496 153.405 40.0789C153.405 40.6617 153.272 41.176 153.004 41.6217C152.744 42.0606 152.37 42.4 151.883 42.64C151.396 42.88 150.827 43 150.176 43H147.635V37.1577ZM150.135 42.1669C150.848 42.1669 151.403 41.9817 151.801 41.6114C152.199 41.2343 152.397 40.7234 152.397 40.0789C152.397 39.4274 152.199 38.9166 151.801 38.5463C151.403 38.1691 150.848 37.9806 150.135 37.9806H148.633V42.1669H150.135ZM159.239 42.1669V43H154.857V37.1577H159.126V37.9806H155.855V39.6263H158.766V40.4389H155.855V42.1669H159.239ZM161.762 37.9806H159.767V37.1577H164.755V37.9806H162.76V43H161.762V37.9806ZM170.178 42.1669V43H165.796V37.1577H170.064V37.9806H166.794V39.6263H169.704V40.4389H166.794V42.1669H170.178ZM174.255 43.0823C173.658 43.0823 173.116 42.952 172.63 42.6914C172.15 42.4309 171.772 42.0743 171.498 41.6217C171.224 41.1623 171.087 40.648 171.087 40.0789C171.087 39.5097 171.224 38.9989 171.498 38.5463C171.772 38.0869 172.15 37.7269 172.63 37.4663C173.116 37.2057 173.658 37.0754 174.255 37.0754C175.263 37.0754 176.031 37.3806 176.559 37.9909L175.921 38.6389C175.482 38.1726 174.937 37.9394 174.286 37.9394C173.867 37.9394 173.49 38.032 173.154 38.2171C172.825 38.3954 172.564 38.6491 172.372 38.9783C172.187 39.3006 172.095 39.6674 172.095 40.0789C172.095 40.4834 172.187 40.8503 172.372 41.1794C172.564 41.5017 172.825 41.7554 173.154 41.9406C173.49 42.1257 173.867 42.2183 174.286 42.2183C174.93 42.2183 175.475 41.9817 175.921 41.5086L176.559 42.1566C176.024 42.7737 175.256 43.0823 174.255 43.0823ZM178.939 37.9806H176.943V37.1577H181.932V37.9806H179.936V43H178.939V37.9806ZM187.354 42.1669V43H182.972V37.1577H187.241V37.9806H183.97V39.6263H186.881V40.4389H183.97V42.1669H187.354ZM188.838 37.1577H191.379C192.03 37.1577 192.599 37.2777 193.086 37.5177C193.573 37.7577 193.947 38.1006 194.207 38.5463C194.475 38.9851 194.609 39.496 194.609 40.0789C194.609 40.6617 194.475 41.176 194.207 41.6217C193.947 42.0606 193.573 42.4 193.086 42.64C192.599 42.88 192.03 43 191.379 43H188.838V37.1577ZM191.338 42.1669C192.051 42.1669 192.606 41.9817 193.004 41.6114C193.402 41.2343 193.601 40.7234 193.601 40.0789C193.601 39.4274 193.402 38.9166 193.004 38.5463C192.606 38.1691 192.051 37.9806 191.338 37.9806H189.836V42.1669H191.338Z" fill="white"/>
<path d="M94.0961 113.2H90.2699L89.4779 115H88.4184L91.679 107.8H92.6973L95.9681 115H94.8881L94.0961 113.2ZM93.7361 112.377L92.183 108.849L90.6299 112.377H93.7361ZM96.9599 109.158H97.9576V115H96.9599V109.158ZM103.852 115L102.597 113.251C102.542 113.258 102.453 113.262 102.329 113.262H100.941V115H99.9432V109.158H102.329C103.104 109.158 103.715 109.339 104.16 109.703C104.606 110.066 104.829 110.57 104.829 111.215C104.829 111.661 104.716 112.041 104.489 112.357C104.27 112.672 103.955 112.909 103.543 113.066L104.932 115H103.852ZM102.268 112.449C102.775 112.449 103.159 112.343 103.42 112.13C103.687 111.918 103.821 111.613 103.821 111.215C103.821 110.817 103.687 110.512 103.42 110.299C103.159 110.087 102.775 109.981 102.268 109.981H100.941V112.449H102.268ZM108.603 115.082C108.061 115.082 107.536 115 107.029 114.835C106.528 114.664 106.134 114.445 105.846 114.177L106.227 113.375C106.501 113.622 106.851 113.824 107.276 113.982C107.708 114.133 108.15 114.208 108.603 114.208C109.199 114.208 109.645 114.109 109.94 113.91C110.235 113.704 110.382 113.433 110.382 113.097C110.382 112.85 110.3 112.651 110.135 112.501C109.977 112.343 109.779 112.223 109.539 112.141C109.305 112.058 108.973 111.966 108.541 111.863C107.999 111.733 107.56 111.602 107.224 111.472C106.895 111.342 106.611 111.143 106.371 110.875C106.137 110.601 106.021 110.234 106.021 109.775C106.021 109.391 106.12 109.045 106.319 108.736C106.525 108.427 106.833 108.181 107.245 107.995C107.656 107.81 108.167 107.718 108.777 107.718C109.203 107.718 109.621 107.773 110.032 107.882C110.444 107.992 110.797 108.15 111.092 108.355L110.752 109.178C110.451 108.986 110.128 108.842 109.785 108.746C109.443 108.643 109.107 108.592 108.777 108.592C108.195 108.592 107.756 108.698 107.461 108.911C107.173 109.123 107.029 109.398 107.029 109.734C107.029 109.981 107.111 110.183 107.276 110.341C107.44 110.491 107.643 110.611 107.883 110.701C108.129 110.783 108.462 110.872 108.88 110.968C109.422 111.098 109.857 111.229 110.187 111.359C110.516 111.489 110.797 111.688 111.03 111.955C111.27 112.223 111.39 112.583 111.39 113.035C111.39 113.413 111.287 113.759 111.081 114.074C110.876 114.383 110.564 114.63 110.145 114.815C109.727 114.993 109.213 115.082 108.603 115.082ZM117.192 114.167V115H112.81V109.158H117.079V109.981H113.808V111.626H116.719V112.439H113.808V114.167H117.192ZM123.871 109.158V115H123.048L119.674 110.875V115H118.676V109.158H119.499L122.873 113.303V109.158H123.871ZM127.576 115.082C127.123 115.082 126.681 115.021 126.249 114.897C125.824 114.767 125.491 114.595 125.251 114.383L125.642 113.601C125.875 113.793 126.167 113.947 126.516 114.064C126.873 114.181 127.24 114.239 127.617 114.239C128.076 114.239 128.412 114.163 128.625 114.013C128.844 113.862 128.954 113.666 128.954 113.426C128.954 113.241 128.889 113.09 128.759 112.974C128.635 112.857 128.478 112.768 128.286 112.706C128.094 112.645 127.833 112.579 127.504 112.511C127.058 112.415 126.695 112.315 126.414 112.213C126.139 112.11 125.903 111.949 125.704 111.729C125.512 111.503 125.416 111.198 125.416 110.814C125.416 110.293 125.625 109.874 126.043 109.559C126.468 109.237 127.044 109.075 127.771 109.075C128.142 109.075 128.498 109.12 128.841 109.209C129.191 109.291 129.489 109.415 129.736 109.579L129.376 110.382C128.93 110.073 128.385 109.919 127.74 109.919C127.295 109.919 126.962 109.998 126.743 110.155C126.523 110.306 126.414 110.505 126.414 110.752C126.414 110.937 126.475 111.088 126.599 111.205C126.729 111.321 126.89 111.41 127.082 111.472C127.281 111.534 127.545 111.599 127.874 111.667C128.327 111.77 128.687 111.873 128.954 111.976C129.228 112.072 129.462 112.23 129.654 112.449C129.852 112.669 129.952 112.963 129.952 113.334C129.952 113.869 129.739 114.294 129.314 114.609C128.896 114.925 128.316 115.082 127.576 115.082ZM135.714 114.167V115H131.333V109.158H135.601V109.981H132.33V111.626H135.241V112.439H132.33V114.167H135.714ZM136.242 107.8H140.089V108.407H138.536V112.069H137.795V108.407H136.242V107.8ZM144.995 112.069L144.985 109.075L143.38 111.565H143.041L141.426 109.127V112.069H140.716V107.8H141.323L143.226 110.721L145.088 107.8H145.695L145.705 112.069H144.995ZM152.276 107.8V115H151.258V108.695H149.633V107.8H152.276ZM156.793 115.082C156.224 115.082 155.716 114.938 155.27 114.65C154.832 114.355 154.485 113.93 154.232 113.375C153.978 112.819 153.851 112.161 153.851 111.4C153.851 110.639 153.978 109.981 154.232 109.425C154.485 108.87 154.832 108.448 155.27 108.16C155.716 107.865 156.224 107.718 156.793 107.718C157.355 107.718 157.856 107.865 158.294 108.16C158.74 108.448 159.09 108.87 159.344 109.425C159.597 109.981 159.724 110.639 159.724 111.4C159.724 112.161 159.597 112.819 159.344 113.375C159.09 113.93 158.74 114.355 158.294 114.65C157.856 114.938 157.355 115.082 156.793 115.082ZM156.793 114.167C157.369 114.167 157.828 113.93 158.171 113.457C158.521 112.984 158.696 112.298 158.696 111.4C158.696 110.502 158.521 109.816 158.171 109.343C157.828 108.87 157.369 108.633 156.793 108.633C156.21 108.633 155.744 108.87 155.394 109.343C155.051 109.816 154.88 110.502 154.88 111.4C154.88 112.298 155.051 112.984 155.394 113.457C155.744 113.93 156.21 114.167 156.793 114.167ZM167.279 115.082C166.559 115.082 165.908 114.925 165.325 114.609C164.749 114.287 164.297 113.848 163.967 113.293C163.638 112.73 163.474 112.099 163.474 111.4C163.474 110.701 163.638 110.073 163.967 109.518C164.297 108.955 164.753 108.517 165.335 108.201C165.918 107.879 166.57 107.718 167.29 107.718C167.852 107.718 168.366 107.814 168.833 108.006C169.299 108.191 169.697 108.469 170.026 108.839L169.357 109.487C168.815 108.918 168.14 108.633 167.331 108.633C166.796 108.633 166.313 108.753 165.881 108.993C165.449 109.233 165.109 109.566 164.862 109.991C164.622 110.409 164.502 110.879 164.502 111.4C164.502 111.921 164.622 112.394 164.862 112.819C165.109 113.238 165.449 113.567 165.881 113.807C166.313 114.047 166.796 114.167 167.331 114.167C168.133 114.167 168.809 113.879 169.357 113.303L170.026 113.951C169.697 114.321 169.295 114.602 168.822 114.794C168.356 114.986 167.842 115.082 167.279 115.082ZM174.301 107.8C175.234 107.8 175.967 108.023 176.502 108.469C177.037 108.914 177.305 109.528 177.305 110.31C177.305 111.091 177.037 111.705 176.502 112.151C175.967 112.597 175.234 112.819 174.301 112.819H172.522V115H171.493V107.8H174.301ZM174.27 111.925C174.922 111.925 175.419 111.787 175.762 111.513C176.105 111.232 176.276 110.831 176.276 110.31C176.276 109.789 176.105 109.391 175.762 109.117C175.419 108.835 174.922 108.695 174.27 108.695H172.522V111.925H174.27ZM183.041 113.2H179.215L178.423 115H177.364L180.624 107.8H181.643L184.913 115H183.833L183.041 113.2ZM182.681 112.377L181.128 108.849L179.575 112.377H182.681ZM188.796 107.8C189.728 107.8 190.462 108.023 190.997 108.469C191.532 108.914 191.799 109.528 191.799 110.31C191.799 111.091 191.532 111.705 190.997 112.151C190.462 112.597 189.728 112.819 188.796 112.819H187.016V115H185.988V107.8H188.796ZM188.765 111.925C189.416 111.925 189.913 111.787 190.256 111.513C190.599 111.232 190.77 110.831 190.77 110.31C190.77 109.789 190.599 109.391 190.256 109.117C189.913 108.835 189.416 108.695 188.765 108.695H187.016V111.925H188.765Z" fill="white"/>
<path d="M125.714 82.2144H155.286V98.9286H125.714V82.2144Z" stroke="white" stroke-width="1.28571" stroke-miterlimit="10" stroke-linecap="round" stroke-linejoin="round"/>
<path d="M130.857 97.0001H130.214C129.703 97.0001 129.212 96.7969 128.851 96.4352C128.489 96.0735 128.286 95.583 128.286 95.0715V86.0715C128.286 85.56 128.489 85.0695 128.851 84.7078C129.212 84.3461 129.703 84.1429 130.214 84.1429H130.857C131.369 84.1429 131.859 84.3461 132.221 84.7078C132.582 85.0695 132.786 85.56 132.786 86.0715V95.0715C132.786 95.583 132.582 96.0735 132.221 96.4352C131.859 96.7969 131.369 97.0001 130.857 97.0001Z" stroke="white" stroke-width="1.28571" stroke-miterlimit="10" stroke-linecap="round" stroke-linejoin="round"/>
<path d="M128.286 70.0001H152.714V82.2144H128.286V70.0001Z" stroke="white" stroke-width="1.28571" stroke-miterlimit="10" stroke-linecap="round" stroke-linejoin="round"/>
<path d="M136 72.5715H150.143V82.2144H136V72.5715Z" stroke="white" stroke-width="1.28571" stroke-miterlimit="10" stroke-linecap="round" stroke-linejoin="round"/>
<path d="M136 88C136.71 88 137.286 87.4244 137.286 86.7143C137.286 86.0042 136.71 85.4286 136 85.4286C135.29 85.4286 134.714 86.0042 134.714 86.7143C134.714 87.4244 135.29 88 136 88Z" fill="white"/>
<path d="M139.857 88C140.567 88 141.143 87.4244 141.143 86.7143C141.143 86.0042 140.567 85.4286 139.857 85.4286C139.147 85.4286 138.571 86.0042 138.571 86.7143C138.571 87.4244 139.147 88 139.857 88Z" fill="white"/>
<path d="M143.714 88C144.425 88 145 87.4244 145 86.7143C145 86.0042 144.425 85.4286 143.714 85.4286C143.004 85.4286 142.429 86.0042 142.429 86.7143C142.429 87.4244 143.004 88 143.714 88Z" fill="white"/>
<path d="M136 91.8572C136.71 91.8572 137.286 91.2816 137.286 90.5715C137.286 89.8614 136.71 89.2858 136 89.2858C135.29 89.2858 134.714 89.8614 134.714 90.5715C134.714 91.2816 135.29 91.8572 136 91.8572Z" fill="white"/>
<path d="M139.857 91.8572C140.567 91.8572 141.143 91.2816 141.143 90.5715C141.143 89.8614 140.567 89.2858 139.857 89.2858C139.147 89.2858 138.571 89.8614 138.571 90.5715C138.571 91.2816 139.147 91.8572 139.857 91.8572Z" fill="white"/>
<path d="M143.714 91.8572C144.425 91.8572 145 91.2816 145 90.5715C145 89.8614 144.425 89.2858 143.714 89.2858C143.004 89.2858 142.429 89.8614 142.429 90.5715C142.429 91.2816 143.004 91.8572 143.714 91.8572Z" fill="white"/>
<path d="M136 95.7144C136.71 95.7144 137.286 95.1387 137.286 94.4287C137.286 93.7186 136.71 93.1429 136 93.1429C135.29 93.1429 134.714 93.7186 134.714 94.4287C134.714 95.1387 135.29 95.7144 136 95.7144Z" fill="white"/>
<path d="M139.857 95.7144C140.567 95.7144 141.143 95.1387 141.143 94.4287C141.143 93.7186 140.567 93.1429 139.857 93.1429C139.147 93.1429 138.571 93.7186 138.571 94.4287C138.571 95.1387 139.147 95.7144 139.857 95.7144Z" fill="white"/>
<path d="M143.714 95.7144C144.425 95.7144 145 95.1387 145 94.4287C145 93.7186 144.425 93.1429 143.714 93.1429C143.004 93.1429 142.429 93.7186 142.429 94.4287C142.429 95.1387 143.004 95.7144 143.714 95.7144Z" fill="white"/>
<path d="M146.929 85.4286H152.714V90.5714H146.929V85.4286Z" stroke="white" stroke-width="1.28571" stroke-miterlimit="10" stroke-linecap="round" stroke-linejoin="round"/>
<path d="M46.9901 151.517C45.6144 151.517 44.3673 151.221 43.2487 150.63C42.143 150.026 41.2687 149.196 40.6259 148.142C39.9959 147.075 39.6809 145.873 39.6809 144.536C39.6809 143.199 39.9959 142.003 40.6259 140.949C41.2687 139.881 42.143 139.052 43.2487 138.461C44.3673 137.856 45.6209 137.554 47.0094 137.554C48.1794 137.554 49.2337 137.76 50.1723 138.171C51.1237 138.583 51.9209 139.174 52.5637 139.946L50.558 141.797C49.6451 140.743 48.5137 140.216 47.1637 140.216C46.328 140.216 45.5823 140.402 44.9266 140.775C44.2709 141.135 43.7566 141.643 43.3837 142.299C43.0237 142.954 42.8437 143.7 42.8437 144.536C42.8437 145.371 43.0237 146.117 43.3837 146.773C43.7566 147.429 44.2709 147.943 44.9266 148.316C45.5823 148.676 46.328 148.856 47.1637 148.856C48.5137 148.856 49.6451 148.322 50.558 147.255L52.5637 149.106C51.9209 149.891 51.1237 150.489 50.1723 150.9C49.2209 151.311 48.1601 151.517 46.9901 151.517ZM57.98 151.44C56.8871 151.44 55.9036 151.215 55.0293 150.765C54.1678 150.302 53.4928 149.666 53.0043 148.856C52.5157 148.046 52.2714 147.126 52.2714 146.098C52.2714 145.069 52.5157 144.15 53.0043 143.34C53.4928 142.53 54.1678 141.9 55.0293 141.45C55.9036 140.987 56.8871 140.756 57.98 140.756C59.0728 140.756 60.05 140.987 60.9114 141.45C61.7728 141.9 62.4478 142.53 62.9364 143.34C63.425 144.15 63.6693 145.069 63.6693 146.098C63.6693 147.126 63.425 148.046 62.9364 148.856C62.4478 149.666 61.7728 150.302 60.9114 150.765C60.05 151.215 59.0728 151.44 57.98 151.44ZM57.98 148.971C58.7514 148.971 59.3814 148.714 59.87 148.2C60.3714 147.673 60.6221 146.972 60.6221 146.098C60.6221 145.224 60.3714 144.529 59.87 144.015C59.3814 143.488 58.7514 143.224 57.98 143.224C57.2086 143.224 56.5721 143.488 56.0707 144.015C55.5693 144.529 55.3186 145.224 55.3186 146.098C55.3186 146.972 55.5693 147.673 56.0707 148.2C56.5721 148.714 57.2086 148.971 57.98 148.971ZM70.926 140.756C72.2117 140.756 73.2467 141.141 74.031 141.913C74.8281 142.684 75.2267 143.829 75.2267 145.346V151.286H72.2181V145.809C72.2181 144.986 72.0381 144.375 71.6781 143.976C71.3181 143.565 70.7974 143.359 70.116 143.359C69.3574 143.359 68.7531 143.597 68.3031 144.073C67.8531 144.536 67.6281 145.23 67.6281 146.156V151.286H64.6195V140.91H67.4931V142.125C67.8917 141.688 68.3867 141.354 68.9781 141.122C69.5695 140.878 70.2188 140.756 70.926 140.756ZM83.1995 140.756C84.4852 140.756 85.5202 141.141 86.3045 141.913C87.1017 142.684 87.5002 143.829 87.5002 145.346V151.286H84.4917V145.809C84.4917 144.986 84.3117 144.375 83.9517 143.976C83.5917 143.565 83.0709 143.359 82.3895 143.359C81.6309 143.359 81.0267 143.597 80.5767 144.073C80.1267 144.536 79.9017 145.23 79.9017 146.156V151.286H76.8931V140.91H79.7667V142.125C80.1652 141.688 80.6602 141.354 81.2517 141.122C81.8431 140.878 82.4924 140.756 83.1995 140.756ZM99.4432 146.136C99.4432 146.175 99.4239 146.445 99.3854 146.946H91.5361C91.6775 147.589 92.0118 148.097 92.5389 148.47C93.0661 148.843 93.7218 149.029 94.5061 149.029C95.0461 149.029 95.5218 148.952 95.9332 148.798C96.3575 148.631 96.7496 148.374 97.1096 148.026L98.7104 149.762C97.7332 150.881 96.3061 151.44 94.4289 151.44C93.2589 151.44 92.2239 151.215 91.3239 150.765C90.4239 150.302 89.7296 149.666 89.2411 148.856C88.7525 148.046 88.5082 147.126 88.5082 146.098C88.5082 145.082 88.7461 144.169 89.2218 143.359C89.7104 142.536 90.3725 141.9 91.2082 141.45C92.0568 140.987 93.0018 140.756 94.0432 140.756C95.0589 140.756 95.9782 140.974 96.8011 141.411C97.6239 141.849 98.2668 142.479 98.7296 143.301C99.2054 144.111 99.4432 145.056 99.4432 146.136ZM94.0625 143.031C93.3811 143.031 92.8089 143.224 92.3461 143.61C91.8832 143.996 91.6004 144.523 91.4975 145.191H96.6082C96.5054 144.536 96.2225 144.015 95.7596 143.629C95.2968 143.231 94.7311 143.031 94.0625 143.031ZM105.4 151.44C104.294 151.44 103.298 151.215 102.411 150.765C101.536 150.302 100.848 149.666 100.347 148.856C99.8584 148.046 99.6141 147.126 99.6141 146.098C99.6141 145.069 99.8584 144.15 100.347 143.34C100.848 142.53 101.536 141.9 102.411 141.45C103.298 140.987 104.294 140.756 105.4 140.756C106.493 140.756 107.444 140.987 108.254 141.45C109.077 141.9 109.675 142.549 110.048 143.398L107.714 144.651C107.174 143.7 106.396 143.224 105.381 143.224C104.596 143.224 103.947 143.481 103.433 143.996C102.918 144.51 102.661 145.211 102.661 146.098C102.661 146.985 102.918 147.686 103.433 148.2C103.947 148.714 104.596 148.971 105.381 148.971C106.409 148.971 107.187 148.496 107.714 147.544L110.048 148.817C109.675 149.64 109.077 150.283 108.254 150.746C107.444 151.209 106.493 151.44 105.4 151.44ZM117.562 150.784C117.266 151.003 116.9 151.17 116.463 151.286C116.038 151.389 115.588 151.44 115.113 151.44C113.878 151.44 112.921 151.125 112.239 150.495C111.571 149.865 111.236 148.939 111.236 147.718V143.456H109.636V141.141H111.236V138.615H114.245V141.141H116.829V143.456H114.245V147.679C114.245 148.116 114.354 148.457 114.573 148.701C114.804 148.933 115.126 149.049 115.537 149.049C116.013 149.049 116.418 148.92 116.752 148.663L117.562 150.784ZM132.89 140.91L128.203 151.922C127.728 153.118 127.136 153.96 126.429 154.449C125.735 154.937 124.893 155.181 123.903 155.181C123.363 155.181 122.829 155.098 122.302 154.931C121.775 154.764 121.344 154.532 121.01 154.236L122.109 152.096C122.34 152.301 122.604 152.462 122.9 152.578C123.208 152.694 123.51 152.751 123.806 152.751C124.218 152.751 124.552 152.649 124.809 152.443C125.066 152.25 125.298 151.922 125.503 151.459L125.542 151.363L121.048 140.91H124.153L127.065 147.949L129.997 140.91H132.89ZM137.711 151.44C136.618 151.44 135.635 151.215 134.761 150.765C133.899 150.302 133.224 149.666 132.736 148.856C132.247 148.046 132.003 147.126 132.003 146.098C132.003 145.069 132.247 144.15 132.736 143.34C133.224 142.53 133.899 141.9 134.761 141.45C135.635 140.987 136.618 140.756 137.711 140.756C138.804 140.756 139.781 140.987 140.643 141.45C141.504 141.9 142.179 142.53 142.668 143.34C143.156 144.15 143.401 145.069 143.401 146.098C143.401 147.126 143.156 148.046 142.668 148.856C142.179 149.666 141.504 150.302 140.643 150.765C139.781 151.215 138.804 151.44 137.711 151.44ZM137.711 148.971C138.483 148.971 139.113 148.714 139.601 148.2C140.103 147.673 140.353 146.972 140.353 146.098C140.353 145.224 140.103 144.529 139.601 144.015C139.113 143.488 138.483 143.224 137.711 143.224C136.94 143.224 136.303 143.488 135.802 144.015C135.301 144.529 135.05 145.224 135.05 146.098C135.05 146.972 135.301 147.673 135.802 148.2C136.303 148.714 136.94 148.971 137.711 148.971ZM154.804 140.91V151.286H151.949V150.051C151.551 150.501 151.075 150.849 150.522 151.093C149.969 151.324 149.372 151.44 148.729 151.44C147.366 151.44 146.286 151.048 145.489 150.264C144.692 149.479 144.293 148.316 144.293 146.773V140.91H147.302V146.329C147.302 148.001 148.002 148.836 149.404 148.836C150.124 148.836 150.702 148.605 151.139 148.142C151.577 147.666 151.795 146.966 151.795 146.04V140.91H154.804ZM159.404 142.279C159.764 141.778 160.246 141.399 160.85 141.141C161.467 140.884 162.175 140.756 162.972 140.756V143.533C162.637 143.507 162.412 143.494 162.297 143.494C161.435 143.494 160.76 143.739 160.272 144.227C159.783 144.703 159.539 145.423 159.539 146.387V151.286H156.53V140.91H159.404V142.279ZM178.745 136.976V151.286H175.871V150.09C175.126 150.99 174.046 151.44 172.631 151.44C171.654 151.44 170.767 151.221 169.97 150.784C169.186 150.347 168.568 149.724 168.118 148.914C167.668 148.104 167.443 147.165 167.443 146.098C167.443 145.031 167.668 144.092 168.118 143.282C168.568 142.472 169.186 141.849 169.97 141.411C170.767 140.974 171.654 140.756 172.631 140.756C173.956 140.756 174.991 141.174 175.736 142.009V136.976H178.745ZM173.152 148.971C173.911 148.971 174.541 148.714 175.042 148.2C175.543 147.673 175.794 146.972 175.794 146.098C175.794 145.224 175.543 144.529 175.042 144.015C174.541 143.488 173.911 143.224 173.152 143.224C172.381 143.224 171.744 143.488 171.243 144.015C170.741 144.529 170.491 145.224 170.491 146.098C170.491 146.972 170.741 147.673 171.243 148.2C171.744 148.714 172.381 148.971 173.152 148.971ZM190.632 146.136C190.632 146.175 190.613 146.445 190.574 146.946H182.725C182.867 147.589 183.201 148.097 183.728 148.47C184.255 148.843 184.911 149.029 185.695 149.029C186.235 149.029 186.711 148.952 187.122 148.798C187.547 148.631 187.939 148.374 188.299 148.026L189.899 149.762C188.922 150.881 187.495 151.44 185.618 151.44C184.448 151.44 183.413 151.215 182.513 150.765C181.613 150.302 180.919 149.666 180.43 148.856C179.942 148.046 179.697 147.126 179.697 146.098C179.697 145.082 179.935 144.169 180.411 143.359C180.899 142.536 181.562 141.9 182.397 141.45C183.246 140.987 184.191 140.756 185.232 140.756C186.248 140.756 187.167 140.974 187.99 141.411C188.813 141.849 189.456 142.479 189.919 143.301C190.394 144.111 190.632 145.056 190.632 146.136ZM185.252 143.031C184.57 143.031 183.998 143.224 183.535 143.61C183.072 143.996 182.789 144.523 182.687 145.191H187.797C187.694 144.536 187.412 144.015 186.949 143.629C186.486 143.231 185.92 143.031 185.252 143.031ZM201.685 140.91L197.307 151.286H194.202L189.843 140.91H192.948L195.822 147.969L198.792 140.91H201.685ZM201.852 140.91H204.86V151.286H201.852V140.91ZM203.356 139.464C202.803 139.464 202.353 139.303 202.006 138.981C201.659 138.66 201.485 138.261 201.485 137.786C201.485 137.31 201.659 136.911 202.006 136.59C202.353 136.269 202.803 136.108 203.356 136.108C203.909 136.108 204.359 136.262 204.706 136.571C205.053 136.879 205.227 137.265 205.227 137.728C205.227 138.229 205.053 138.647 204.706 138.981C204.359 139.303 203.909 139.464 203.356 139.464ZM211.606 151.44C210.5 151.44 209.504 151.215 208.617 150.765C207.743 150.302 207.055 149.666 206.553 148.856C206.065 148.046 205.82 147.126 205.82 146.098C205.82 145.069 206.065 144.15 206.553 143.34C207.055 142.53 207.743 141.9 208.617 141.45C209.504 140.987 210.5 140.756 211.606 140.756C212.699 140.756 213.65 140.987 214.46 141.45C215.283 141.9 215.881 142.549 216.254 143.398L213.92 144.651C213.38 143.7 212.603 143.224 211.587 143.224C210.803 143.224 210.153 143.481 209.639 143.996C209.125 144.51 208.868 145.211 208.868 146.098C208.868 146.985 209.125 147.686 209.639 148.2C210.153 148.714 210.803 148.971 211.587 148.971C212.615 148.971 213.393 148.496 213.92 147.544L216.254 148.817C215.881 149.64 215.283 150.283 214.46 150.746C213.65 151.209 212.699 151.44 211.606 151.44ZM226.957 146.136C226.957 146.175 226.938 146.445 226.899 146.946H219.05C219.191 147.589 219.526 148.097 220.053 148.47C220.58 148.843 221.236 149.029 222.02 149.029C222.56 149.029 223.036 148.952 223.447 148.798C223.871 148.631 224.264 148.374 224.624 148.026L226.224 149.762C225.247 150.881 223.82 151.44 221.943 151.44C220.773 151.44 219.738 151.215 218.838 150.765C217.938 150.302 217.244 149.666 216.755 148.856C216.266 148.046 216.022 147.126 216.022 146.098C216.022 145.082 216.26 144.169 216.736 143.359C217.224 142.536 217.886 141.9 218.722 141.45C219.571 140.987 220.516 140.756 221.557 140.756C222.573 140.756 223.492 140.974 224.315 141.411C225.138 141.849 225.781 142.479 226.244 143.301C226.719 144.111 226.957 145.056 226.957 146.136ZM221.576 143.031C220.895 143.031 220.323 143.224 219.86 143.61C219.397 143.996 219.114 144.523 219.011 145.191H224.122C224.019 144.536 223.736 144.015 223.274 143.629C222.811 143.231 222.245 143.031 221.576 143.031Z" fill="white"/>
<path d="M243.395 143.929L241.027 141.631L235.447 136.214L233.079 138.512L238.659 143.929L233.079 149.345L235.447 151.643L241.027 146.227L243.394 143.929H243.395V143.929Z" fill="white"/>
<defs>
<filter id="filter0_ddd" x="0.624397" y="0.361958" width="279.751" height="196.18" filterUnits="userSpaceOnUse" color-interpolation-filters="sRGB">
<feFlood flood-opacity="0" result="BackgroundImageFix"/>
<feColorMatrix in="SourceAlpha" type="matrix" values="0 0 0 0 0 0 0 0 0 0 0 0 0 0 0 0 0 0 127 0"/>
<feOffset dy="2.73756"/>
<feGaussianBlur stdDeviation="10.9502"/>
<feColorMatrix type="matrix" values="0 0 0 0 0.337255 0 0 0 0 0.384314 0 0 0 0 0.956863 0 0 0 0.3 0"/>
<feBlend mode="normal" in2="BackgroundImageFix" result="effect1_dropShadow"/>
<feColorMatrix in="SourceAlpha" type="matrix" values="0 0 0 0 0 0 0 0 0 0 0 0 0 0 0 0 0 0 127 0"/>
<feOffset dy="2.73756"/>
<feGaussianBlur stdDeviation="5.47512"/>
<feColorMatrix type="matrix" values="0 0 0 0 0.337255 0 0 0 0 0.384314 0 0 0 0 0.956863 0 0 0 0.3 0"/>
<feBlend mode="normal" in2="effect1_dropShadow" result="effect2_dropShadow"/>
<feColorMatrix in="SourceAlpha" type="matrix" values="0 0 0 0 0 0 0 0 0 0 0 0 0 0 0 0 0 0 127 0"/>
<feOffset dy="2.73756"/>
<feGaussianBlur stdDeviation="13.6878"/>
<feColorMatrix type="matrix" values="0 0 0 0 0.337255 0 0 0 0 0.384314 0 0 0 0 0.956863 0 0 0 0.12 0"/>
<feBlend mode="normal" in2="effect2_dropShadow" result="effect3_dropShadow"/>
<feBlend mode="normal" in="SourceGraphic" in2="effect3_dropShadow" result="shape"/>
</filter>
<linearGradient id="paint0_linear" x1="258.786" y1="35.2857" x2="111.786" y2="239.291" gradientUnits="userSpaceOnUse">
<stop stop-color="#869DFF"/>
<stop offset="0.0001" stop-color="#869DFF"/>
<stop offset="1" stop-color="#5662F4"/>
</linearGradient>
</defs>
</svg>
