<svg width="144" height="144" viewBox="0 0 144 144" fill="none" xmlns="http://www.w3.org/2000/svg">
<g filter="url(#filter0_d)">
<mask id="mask0" mask-type="alpha" maskUnits="userSpaceOnUse" x="18" y="18" width="108" height="108">
<circle cx="71.8033" cy="71.8033" r="53.8033" fill="#C4C4C4"/>
</mask>
<g mask="url(#mask0)">
<circle cx="69.9949" cy="67.2821" r="84.5481" fill="#5662F4"/>
<circle cx="69.9949" cy="67.2821" r="84.5481" fill="url(#paint0_radial)"/>
<path d="M71.3934 71.3587L-66.5857 127.998L108.562 -111.202L71.3934 71.3587Z" fill="#00BDCF"/>
<path d="M71.3934 71.3587L-66.5857 127.998L108.562 -111.202L71.3934 71.3587Z" fill="url(#paint1_linear)"/>
<path d="M71.3935 71.3587L164.269 102.065L95.3634 156.175L71.3935 71.3587Z" fill="#00BDCF"/>
<path d="M71.3935 71.3587L164.269 102.065L95.3634 156.175L71.3935 71.3587Z" fill="url(#paint2_linear)"/>
<path d="M71.3936 71.3587L127.092 184.571L-43.2752 118.988L71.3936 71.3587Z" fill="#FF918F"/>
<path d="M71.3936 71.3587L127.092 184.571L-43.2752 118.988L71.3936 71.3587Z" fill="url(#paint3_linear)"/>
</g>
</g>
<defs>
<filter id="filter0_d" x="0" y="0" width="143.607" height="143.607" filterUnits="userSpaceOnUse" color-interpolation-filters="sRGB">
<feFlood flood-opacity="0" result="BackgroundImageFix"/>
<feColorMatrix in="SourceAlpha" type="matrix" values="0 0 0 0 0 0 0 0 0 0 0 0 0 0 0 0 0 0 127 0"/>
<feOffset/>
<feGaussianBlur stdDeviation="9"/>
<feColorMatrix type="matrix" values="0 0 0 0 0 0 0 0 0 0 0 0 0 0 0 0 0 0 0.25 0"/>
<feBlend mode="normal" in2="BackgroundImageFix" result="effect1_dropShadow"/>
<feBlend mode="normal" in="SourceGraphic" in2="effect1_dropShadow" result="shape"/>
</filter>
<radialGradient id="paint0_radial" cx="0" cy="0" r="1" gradientUnits="userSpaceOnUse" gradientTransform="translate(72.6749 72.739) rotate(-34.3432) scale(98.7682)">
<stop stop-color="#5662F4"/>
<stop offset="1" stop-color="white" stop-opacity="0"/>
<stop offset="1" stop-color="#869DFF"/>
</radialGradient>
<linearGradient id="paint1_linear" x1="72.2493" y1="72.2258" x2="-25.6246" y2="10.8235" gradientUnits="userSpaceOnUse">
<stop stop-color="#22A6FE"/>
<stop offset="1" stop-color="white" stop-opacity="0"/>
</linearGradient>
<linearGradient id="paint2_linear" x1="65.4264" y1="78.1428" x2="170.889" y2="146.92" gradientUnits="userSpaceOnUse">
<stop stop-color="#22A6FE"/>
<stop offset="1" stop-color="white" stop-opacity="0"/>
</linearGradient>
<linearGradient id="paint3_linear" x1="78.1765" y1="74.5438" x2="39.1346" y2="157.686" gradientUnits="userSpaceOnUse">
<stop stop-color="#DD5D5A"/>
<stop offset="1" stop-color="white" stop-opacity="0"/>
</linearGradient>
</defs>
</svg>
