<svg width="262" height="127" viewBox="0 0 262 127" fill="none" xmlns="http://www.w3.org/2000/svg">
<g filter="url(#filter0_ddddd)">
<rect x="27" y="27" width="208" height="73.6914" rx="14.2629" fill="#262A45"/>
</g>
<g filter="url(#filter1_dddddii)">
<circle cx="52.5541" cy="74.5428" r="16.64" fill="#262A45"/>
</g>
<g filter="url(#filter2_dddddii)">
<circle cx="91.7772" cy="74.5428" r="16.64" fill="#262A45"/>
</g>
<g filter="url(#filter3_dddddii)">
<circle cx="131" cy="74.5428" r="16.64" fill="#262A45"/>
</g>
<g filter="url(#filter4_dddddii)">
<circle cx="170.223" cy="74.5428" r="16.64" fill="#262A45"/>
</g>
<g filter="url(#filter5_dddddii)">
<circle cx="209.446" cy="74.5428" r="16.64" fill="#262A45"/>
</g>
<g style="mix-blend-mode:overlay">
<path d="M75.2466 40.6354V47.2914H74.5525V44.2201H70.3877V47.2914H69.6841V40.6354H70.3877V43.6021H74.5525V40.6354H75.2466ZM79.1306 47.3389C78.6489 47.3389 78.2146 47.2312 77.8279 47.0156C77.4413 46.7938 77.137 46.4895 76.9151 46.1028C76.6933 45.7161 76.5823 45.2787 76.5823 44.7906C76.5823 44.3025 76.6933 43.8651 76.9151 43.4784C77.137 43.0918 77.4413 42.7907 77.8279 42.5751C78.2146 42.3596 78.6489 42.2518 79.1306 42.2518C79.6124 42.2518 80.0466 42.3596 80.4333 42.5751C80.82 42.7907 81.1211 43.0918 81.3366 43.4784C81.5585 43.8651 81.6694 44.3025 81.6694 44.7906C81.6694 45.2787 81.5585 45.7161 81.3366 46.1028C81.1211 46.4895 80.82 46.7938 80.4333 47.0156C80.0466 47.2312 79.6124 47.3389 79.1306 47.3389ZM79.1306 46.7399C79.4856 46.7399 79.8026 46.6606 80.0815 46.5022C80.3667 46.3374 80.5886 46.106 80.7471 45.808C80.9056 45.5101 80.9848 45.171 80.9848 44.7906C80.9848 44.4103 80.9056 44.0711 80.7471 43.7732C80.5886 43.4753 80.3667 43.2471 80.0815 43.0886C79.8026 42.9238 79.4856 42.8414 79.1306 42.8414C78.7756 42.8414 78.4555 42.9238 78.1703 43.0886C77.8913 43.2471 77.6695 43.4753 77.5047 43.7732C77.3462 44.0711 77.2669 44.4103 77.2669 44.7906C77.2669 45.171 77.3462 45.5101 77.5047 45.808C77.6695 46.106 77.8913 46.3374 78.1703 46.5022C78.4555 46.6606 78.7756 46.7399 79.1306 46.7399ZM90.0589 42.2899L88.1667 47.2914H87.5296L85.9512 43.1932L84.3727 47.2914H83.7357L81.853 42.2899H82.4995L84.0685 46.5402L85.6754 42.2899H86.2554L87.8529 46.5402L89.4408 42.2899H90.0589ZM94.9332 42.2518C95.5861 42.2518 96.0869 42.4167 96.4355 42.7463C96.7842 43.0696 96.9585 43.5513 96.9585 44.1916V47.2914H96.3119V46.5117C96.1598 46.7716 95.9348 46.9744 95.6368 47.1202C95.3452 47.266 94.9966 47.3389 94.5909 47.3389C94.0331 47.3389 93.5893 47.2058 93.2597 46.9396C92.9301 46.6733 92.7652 46.3215 92.7652 45.8841C92.7652 45.4594 92.9174 45.1171 93.2217 44.8572C93.5323 44.5973 94.0235 44.4673 94.6955 44.4673H96.2834V44.1631C96.2834 43.732 96.163 43.4055 95.9221 43.1837C95.6812 42.9555 95.3294 42.8414 94.8666 42.8414C94.5497 42.8414 94.2454 42.8953 93.9538 43.003C93.6622 43.1044 93.4118 43.2471 93.2026 43.4309L92.8984 42.9269C93.1519 42.7114 93.4562 42.5466 93.8112 42.4325C94.1662 42.3121 94.5402 42.2518 94.9332 42.2518ZM94.6955 46.8064C95.0758 46.8064 95.4023 46.7209 95.6749 46.5497C95.9474 46.3722 96.1503 46.1187 96.2834 45.789V44.9713H94.7145C93.8587 44.9713 93.4308 45.2692 93.4308 45.8651C93.4308 46.1567 93.5418 46.3881 93.7636 46.5592C93.9855 46.724 94.2961 46.8064 94.6955 46.8064ZM99.2486 43.2693C99.4071 42.9333 99.6416 42.6797 99.9522 42.5086C100.269 42.3374 100.659 42.2518 101.122 42.2518V42.9079L100.96 42.8984C100.434 42.8984 100.022 43.0601 99.724 43.3834C99.4261 43.7067 99.2771 44.1599 99.2771 44.7431V47.2914H98.602V42.2899H99.2486V43.2693ZM106.462 44.9998H102.279C102.317 45.5196 102.516 45.9412 102.878 46.2645C103.239 46.5814 103.695 46.7399 104.247 46.7399C104.558 46.7399 104.843 46.686 105.103 46.5782C105.363 46.4641 105.588 46.2993 105.778 46.0838L106.158 46.5212C105.936 46.7874 105.657 46.9903 105.321 47.1297C104.992 47.2692 104.627 47.3389 104.228 47.3389C103.715 47.3389 103.258 47.2312 102.859 47.0156C102.466 46.7938 102.158 46.4895 101.936 46.1028C101.715 45.7161 101.604 45.2787 101.604 44.7906C101.604 44.3025 101.708 43.8651 101.917 43.4784C102.133 43.0918 102.425 42.7907 102.792 42.5751C103.166 42.3596 103.585 42.2518 104.047 42.2518C104.51 42.2518 104.925 42.3596 105.293 42.5751C105.661 42.7907 105.949 43.0918 106.158 43.4784C106.367 43.8588 106.472 44.2962 106.472 44.7906L106.462 44.9998ZM104.047 42.8319C103.566 42.8319 103.16 42.9872 102.83 43.2978C102.507 43.6021 102.323 44.0014 102.279 44.4959H105.825C105.781 44.0014 105.594 43.6021 105.264 43.2978C104.941 42.9872 104.535 42.8319 104.047 42.8319ZM114.157 42.2899L111.656 47.8904C111.454 48.3595 111.219 48.6923 110.953 48.8888C110.687 49.0853 110.366 49.1836 109.992 49.1836C109.752 49.1836 109.526 49.1456 109.317 49.0695C109.108 48.9934 108.927 48.8793 108.775 48.7272L109.089 48.2232C109.343 48.4768 109.647 48.6036 110.002 48.6036C110.23 48.6036 110.423 48.5402 110.582 48.4134C110.747 48.2866 110.899 48.0711 111.038 47.7668L111.257 47.2819L109.023 42.2899H109.726L111.609 46.5402L113.492 42.2899H114.157ZM116.823 47.3389C116.341 47.3389 115.907 47.2312 115.52 47.0156C115.133 46.7938 114.829 46.4895 114.607 46.1028C114.385 45.7161 114.275 45.2787 114.275 44.7906C114.275 44.3025 114.385 43.8651 114.607 43.4784C114.829 43.0918 115.133 42.7907 115.52 42.5751C115.907 42.3596 116.341 42.2518 116.823 42.2518C117.305 42.2518 117.739 42.3596 118.125 42.5751C118.512 42.7907 118.813 43.0918 119.029 43.4784C119.251 43.8651 119.362 44.3025 119.362 44.7906C119.362 45.2787 119.251 45.7161 119.029 46.1028C118.813 46.4895 118.512 46.7938 118.125 47.0156C117.739 47.2312 117.305 47.3389 116.823 47.3389ZM116.823 46.7399C117.178 46.7399 117.495 46.6606 117.774 46.5022C118.059 46.3374 118.281 46.106 118.439 45.808C118.598 45.5101 118.677 45.171 118.677 44.7906C118.677 44.4103 118.598 44.0711 118.439 43.7732C118.281 43.4753 118.059 43.2471 117.774 43.0886C117.495 42.9238 117.178 42.8414 116.823 42.8414C116.468 42.8414 116.148 42.9238 115.862 43.0886C115.584 43.2471 115.362 43.4753 115.197 43.7732C115.038 44.0711 114.959 44.4103 114.959 44.7906C114.959 45.171 115.038 45.5101 115.197 45.808C115.362 46.106 115.584 46.3374 115.862 46.5022C116.148 46.6606 116.468 46.7399 116.823 46.7399ZM125.057 42.2899V47.2914H124.41V46.3786C124.233 46.6828 123.989 46.9205 123.678 47.0917C123.367 47.2565 123.012 47.3389 122.613 47.3389C121.96 47.3389 121.444 47.1583 121.063 46.7969C120.689 46.4293 120.502 45.8936 120.502 45.19V42.2899H121.177V45.1234C121.177 45.6496 121.307 46.0489 121.567 46.3215C121.827 46.5941 122.198 46.7304 122.68 46.7304C123.206 46.7304 123.621 46.5719 123.925 46.2549C124.23 45.9317 124.382 45.4848 124.382 44.9142V42.2899H125.057ZM130.71 40.759C130.419 40.759 130.197 40.8382 130.045 40.9967C129.899 41.1552 129.826 41.3897 129.826 41.7003V42.2899H131.366V42.8604H129.845V47.2914H129.17V42.8604H128.276V42.2899H129.17V41.6718C129.17 41.2154 129.3 40.8541 129.56 40.5878C129.826 40.3216 130.2 40.1885 130.682 40.1885C130.872 40.1885 131.056 40.217 131.233 40.2741C131.411 40.3248 131.56 40.4008 131.68 40.5023L131.452 41.0062C131.255 40.8414 131.008 40.759 130.71 40.759ZM136.359 44.9998H132.175C132.213 45.5196 132.413 45.9412 132.774 46.2645C133.136 46.5814 133.592 46.7399 134.144 46.7399C134.454 46.7399 134.74 46.686 134.999 46.5782C135.259 46.4641 135.484 46.2993 135.675 46.0838L136.055 46.5212C135.833 46.7874 135.554 46.9903 135.218 47.1297C134.888 47.2692 134.524 47.3389 134.125 47.3389C133.611 47.3389 133.155 47.2312 132.755 47.0156C132.362 46.7938 132.055 46.4895 131.833 46.1028C131.611 45.7161 131.5 45.2787 131.5 44.7906C131.5 44.3025 131.605 43.8651 131.814 43.4784C132.03 43.0918 132.321 42.7907 132.689 42.5751C133.063 42.3596 133.481 42.2518 133.944 42.2518C134.407 42.2518 134.822 42.3596 135.19 42.5751C135.557 42.7907 135.846 43.0918 136.055 43.4784C136.264 43.8588 136.369 44.2962 136.369 44.7906L136.359 44.9998ZM133.944 42.8319C133.462 42.8319 133.057 42.9872 132.727 43.2978C132.404 43.6021 132.22 44.0014 132.175 44.4959H135.722C135.678 44.0014 135.491 43.6021 135.161 43.2978C134.838 42.9872 134.432 42.8319 133.944 42.8319ZM141.908 44.9998H137.724C137.762 45.5196 137.961 45.9412 138.323 46.2645C138.684 46.5814 139.141 46.7399 139.692 46.7399C140.003 46.7399 140.288 46.686 140.548 46.5782C140.808 46.4641 141.033 46.2993 141.223 46.0838L141.603 46.5212C141.381 46.7874 141.102 46.9903 140.767 47.1297C140.437 47.2692 140.072 47.3389 139.673 47.3389C139.16 47.3389 138.703 47.2312 138.304 47.0156C137.911 46.7938 137.603 46.4895 137.381 46.1028C137.16 45.7161 137.049 45.2787 137.049 44.7906C137.049 44.3025 137.153 43.8651 137.362 43.4784C137.578 43.0918 137.87 42.7907 138.237 42.5751C138.611 42.3596 139.03 42.2518 139.492 42.2518C139.955 42.2518 140.37 42.3596 140.738 42.5751C141.106 42.7907 141.394 43.0918 141.603 43.4784C141.812 43.8588 141.917 44.2962 141.917 44.7906L141.908 44.9998ZM139.492 42.8319C139.011 42.8319 138.605 42.9872 138.275 43.2978C137.952 43.6021 137.768 44.0014 137.724 44.4959H141.27C141.226 44.0014 141.039 43.6021 140.709 43.2978C140.386 42.9872 139.98 42.8319 139.492 42.8319ZM143.101 40.236H143.776V47.2914H143.101V40.236ZM145.464 42.2899H146.14V47.2914H145.464V42.2899ZM145.807 41.1964C145.667 41.1964 145.55 41.1488 145.455 41.0538C145.36 40.9587 145.312 40.8446 145.312 40.7114C145.312 40.5847 145.36 40.4737 145.455 40.3786C145.55 40.2836 145.667 40.236 145.807 40.236C145.946 40.236 146.063 40.2836 146.159 40.3786C146.254 40.4674 146.301 40.5752 146.301 40.7019C146.301 40.8414 146.254 40.9587 146.159 41.0538C146.063 41.1488 145.946 41.1964 145.807 41.1964ZM150.376 42.2518C151.004 42.2518 151.501 42.4357 151.869 42.8033C152.243 43.1647 152.43 43.694 152.43 44.3913V47.2914H151.755V44.4578C151.755 43.938 151.625 43.5418 151.365 43.2693C151.105 42.9967 150.734 42.8604 150.253 42.8604C149.714 42.8604 149.286 43.022 148.969 43.3453C148.658 43.6623 148.503 44.1028 148.503 44.667V47.2914H147.828V42.2899H148.474V43.2122C148.658 42.9079 148.912 42.6734 149.235 42.5086C149.565 42.3374 149.945 42.2518 150.376 42.2518ZM158.722 42.2899V46.6828C158.722 47.5323 158.513 48.1598 158.094 48.5655C157.682 48.9776 157.058 49.1836 156.221 49.1836C155.758 49.1836 155.318 49.1139 154.899 48.9744C154.487 48.8413 154.151 48.6543 153.892 48.4134L154.234 47.8999C154.475 48.1155 154.766 48.2834 155.109 48.4039C155.457 48.5243 155.822 48.5845 156.202 48.5845C156.836 48.5845 157.302 48.4356 157.6 48.1376C157.898 47.846 158.047 47.3896 158.047 46.7684V46.1313C157.838 46.4483 157.562 46.6892 157.22 46.854C156.884 47.0188 156.51 47.1012 156.098 47.1012C155.628 47.1012 155.201 46.9998 154.814 46.7969C154.434 46.5877 154.132 46.2993 153.911 45.9317C153.695 45.5577 153.587 45.1361 153.587 44.667C153.587 44.1979 153.695 43.7795 153.911 43.4119C154.132 43.0442 154.434 42.759 154.814 42.5561C155.194 42.3533 155.622 42.2518 156.098 42.2518C156.522 42.2518 156.906 42.3374 157.248 42.5086C157.59 42.6797 157.866 42.9269 158.075 43.2502V42.2899H158.722ZM156.164 46.5022C156.525 46.5022 156.852 46.4261 157.143 46.274C157.435 46.1155 157.66 45.8968 157.819 45.6179C157.983 45.339 158.066 45.022 158.066 44.667C158.066 44.312 157.983 43.9982 157.819 43.7257C157.66 43.4467 157.435 43.2312 157.143 43.0791C156.858 42.9206 156.532 42.8414 156.164 42.8414C155.803 42.8414 155.476 42.9174 155.185 43.0696C154.899 43.2217 154.674 43.4372 154.51 43.7162C154.351 43.9951 154.272 44.312 154.272 44.667C154.272 45.022 154.351 45.339 154.51 45.6179C154.674 45.8968 154.899 46.1155 155.185 46.274C155.476 46.4261 155.803 46.5022 156.164 46.5022ZM165.352 46.9871C165.225 47.1012 165.067 47.19 164.876 47.2533C164.693 47.3104 164.499 47.3389 164.296 47.3389C163.827 47.3389 163.466 47.2121 163.212 46.9586C162.959 46.705 162.832 46.3469 162.832 45.8841V42.8604H161.938V42.2899H162.832V41.1964H163.507V42.2899H165.029V42.8604H163.507V45.8461C163.507 46.144 163.58 46.3722 163.726 46.5307C163.878 46.6828 164.094 46.7589 164.373 46.7589C164.512 46.7589 164.645 46.7367 164.772 46.6923C164.905 46.648 165.019 46.5846 165.114 46.5022L165.352 46.9871ZM168.259 47.3389C167.777 47.3389 167.343 47.2312 166.956 47.0156C166.569 46.7938 166.265 46.4895 166.043 46.1028C165.821 45.7161 165.71 45.2787 165.71 44.7906C165.71 44.3025 165.821 43.8651 166.043 43.4784C166.265 43.0918 166.569 42.7907 166.956 42.5751C167.343 42.3596 167.777 42.2518 168.259 42.2518C168.74 42.2518 169.175 42.3596 169.561 42.5751C169.948 42.7907 170.249 43.0918 170.465 43.4784C170.686 43.8651 170.797 44.3025 170.797 44.7906C170.797 45.2787 170.686 45.7161 170.465 46.1028C170.249 46.4895 169.948 46.7938 169.561 47.0156C169.175 47.2312 168.74 47.3389 168.259 47.3389ZM168.259 46.7399C168.614 46.7399 168.931 46.6606 169.209 46.5022C169.495 46.3374 169.717 46.106 169.875 45.808C170.034 45.5101 170.113 45.171 170.113 44.7906C170.113 44.4103 170.034 44.0711 169.875 43.7732C169.717 43.4753 169.495 43.2471 169.209 43.0886C168.931 42.9238 168.614 42.8414 168.259 42.8414C167.904 42.8414 167.584 42.9238 167.298 43.0886C167.019 43.2471 166.797 43.4753 166.633 43.7732C166.474 44.0711 166.395 44.4103 166.395 44.7906C166.395 45.171 166.474 45.5101 166.633 45.808C166.797 46.106 167.019 46.3374 167.298 46.5022C167.584 46.6606 167.904 46.7399 168.259 46.7399ZM176.55 40.236V47.2914H175.903V46.3025C175.7 46.6385 175.431 46.8952 175.095 47.0727C174.765 47.2502 174.391 47.3389 173.973 47.3389C173.504 47.3389 173.079 47.2312 172.699 47.0156C172.318 46.8001 172.02 46.499 171.805 46.1123C171.589 45.7256 171.482 45.2851 171.482 44.7906C171.482 44.2962 171.589 43.8556 171.805 43.4689C172.02 43.0823 172.318 42.7843 172.699 42.5751C173.079 42.3596 173.504 42.2518 173.973 42.2518C174.379 42.2518 174.743 42.3374 175.066 42.5086C175.396 42.6734 175.665 42.9174 175.875 43.2407V40.236H176.55ZM174.03 46.7399C174.379 46.7399 174.692 46.6606 174.971 46.5022C175.256 46.3374 175.478 46.106 175.637 45.808C175.802 45.5101 175.884 45.171 175.884 44.7906C175.884 44.4103 175.802 44.0711 175.637 43.7732C175.478 43.4753 175.256 43.2471 174.971 43.0886C174.692 42.9238 174.379 42.8414 174.03 42.8414C173.675 42.8414 173.355 42.9238 173.07 43.0886C172.791 43.2471 172.569 43.4753 172.404 43.7732C172.245 44.0711 172.166 44.4103 172.166 44.7906C172.166 45.171 172.245 45.5101 172.404 45.808C172.569 46.106 172.791 46.3374 173.07 46.5022C173.355 46.6606 173.675 46.7399 174.03 46.7399ZM179.989 42.2518C180.642 42.2518 181.143 42.4167 181.492 42.7463C181.84 43.0696 182.015 43.5513 182.015 44.1916V47.2914H181.368V46.5117C181.216 46.7716 180.991 46.9744 180.693 47.1202C180.401 47.266 180.053 47.3389 179.647 47.3389C179.089 47.3389 178.645 47.2058 178.316 46.9396C177.986 46.6733 177.821 46.3215 177.821 45.8841C177.821 45.4594 177.973 45.1171 178.278 44.8572C178.588 44.5973 179.08 44.4673 179.752 44.4673H181.339V44.1631C181.339 43.732 181.219 43.4055 180.978 43.1837C180.737 42.9555 180.385 42.8414 179.923 42.8414C179.606 42.8414 179.301 42.8953 179.01 43.003C178.718 43.1044 178.468 43.2471 178.259 43.4309L177.954 42.9269C178.208 42.7114 178.512 42.5466 178.867 42.4325C179.222 42.3121 179.596 42.2518 179.989 42.2518ZM179.752 46.8064C180.132 46.8064 180.458 46.7209 180.731 46.5497C181.003 46.3722 181.206 46.1187 181.339 45.789V44.9713H179.771C178.915 44.9713 178.487 45.2692 178.487 45.8651C178.487 46.1567 178.598 46.3881 178.82 46.5592C179.042 46.724 179.352 46.8064 179.752 46.8064ZM187.768 42.2899L185.267 47.8904C185.064 48.3595 184.83 48.6923 184.564 48.8888C184.297 49.0853 183.977 49.1836 183.603 49.1836C183.362 49.1836 183.137 49.1456 182.928 49.0695C182.719 48.9934 182.538 48.8793 182.386 48.7272L182.7 48.2232C182.953 48.4768 183.258 48.6036 183.613 48.6036C183.841 48.6036 184.034 48.5402 184.193 48.4134C184.358 48.2866 184.51 48.0711 184.649 47.7668L184.868 47.2819L182.633 42.2899H183.337L185.22 46.5402L187.102 42.2899H187.768ZM190.128 45.2946C190.128 45.0347 190.169 44.8065 190.252 44.61C190.341 44.4135 190.448 44.2455 190.575 44.106C190.702 43.9666 190.867 43.8081 191.07 43.6306C191.342 43.3897 191.542 43.1805 191.669 43.003C191.802 42.8192 191.868 42.5973 191.868 42.3374C191.868 41.9888 191.732 41.7098 191.459 41.5007C191.187 41.2851 190.813 41.1774 190.337 41.1774C189.551 41.1774 188.946 41.4341 188.521 41.9476L188.017 41.5672C188.556 40.908 189.345 40.5783 190.385 40.5783C191.051 40.5783 191.58 40.7273 191.973 41.0252C192.372 41.3232 192.572 41.7257 192.572 42.2328C192.572 42.4927 192.528 42.7241 192.439 42.9269C192.356 43.1235 192.252 43.2914 192.125 43.4309C192.005 43.5704 191.843 43.732 191.64 43.9158C191.367 44.1631 191.165 44.3849 191.031 44.5814C190.898 44.7716 190.832 45.0093 190.832 45.2946H190.128ZM190.48 47.3389C190.341 47.3389 190.223 47.2914 190.128 47.1963C190.033 47.0949 189.986 46.9776 189.986 46.8445C189.986 46.705 190.033 46.5909 190.128 46.5022C190.223 46.4071 190.341 46.3595 190.48 46.3595C190.626 46.3595 190.746 46.4071 190.841 46.5022C190.936 46.5909 190.984 46.705 190.984 46.8445C190.984 46.9776 190.933 47.0949 190.832 47.1963C190.737 47.2914 190.619 47.3389 190.48 47.3389Z" fill="white"/>
</g>
<g style="mix-blend-mode:overlay">
<path d="M75.2466 40.6354V47.2914H74.5525V44.2201H70.3877V47.2914H69.6841V40.6354H70.3877V43.6021H74.5525V40.6354H75.2466ZM79.1306 47.3389C78.6489 47.3389 78.2146 47.2312 77.8279 47.0156C77.4413 46.7938 77.137 46.4895 76.9151 46.1028C76.6933 45.7161 76.5823 45.2787 76.5823 44.7906C76.5823 44.3025 76.6933 43.8651 76.9151 43.4784C77.137 43.0918 77.4413 42.7907 77.8279 42.5751C78.2146 42.3596 78.6489 42.2518 79.1306 42.2518C79.6124 42.2518 80.0466 42.3596 80.4333 42.5751C80.82 42.7907 81.1211 43.0918 81.3366 43.4784C81.5585 43.8651 81.6694 44.3025 81.6694 44.7906C81.6694 45.2787 81.5585 45.7161 81.3366 46.1028C81.1211 46.4895 80.82 46.7938 80.4333 47.0156C80.0466 47.2312 79.6124 47.3389 79.1306 47.3389ZM79.1306 46.7399C79.4856 46.7399 79.8026 46.6606 80.0815 46.5022C80.3667 46.3374 80.5886 46.106 80.7471 45.808C80.9056 45.5101 80.9848 45.171 80.9848 44.7906C80.9848 44.4103 80.9056 44.0711 80.7471 43.7732C80.5886 43.4753 80.3667 43.2471 80.0815 43.0886C79.8026 42.9238 79.4856 42.8414 79.1306 42.8414C78.7756 42.8414 78.4555 42.9238 78.1703 43.0886C77.8913 43.2471 77.6695 43.4753 77.5047 43.7732C77.3462 44.0711 77.2669 44.4103 77.2669 44.7906C77.2669 45.171 77.3462 45.5101 77.5047 45.808C77.6695 46.106 77.8913 46.3374 78.1703 46.5022C78.4555 46.6606 78.7756 46.7399 79.1306 46.7399ZM90.0589 42.2899L88.1667 47.2914H87.5296L85.9512 43.1932L84.3727 47.2914H83.7357L81.853 42.2899H82.4995L84.0685 46.5402L85.6754 42.2899H86.2554L87.8529 46.5402L89.4408 42.2899H90.0589ZM94.9332 42.2518C95.5861 42.2518 96.0869 42.4167 96.4355 42.7463C96.7842 43.0696 96.9585 43.5513 96.9585 44.1916V47.2914H96.3119V46.5117C96.1598 46.7716 95.9348 46.9744 95.6368 47.1202C95.3452 47.266 94.9966 47.3389 94.5909 47.3389C94.0331 47.3389 93.5893 47.2058 93.2597 46.9396C92.9301 46.6733 92.7652 46.3215 92.7652 45.8841C92.7652 45.4594 92.9174 45.1171 93.2217 44.8572C93.5323 44.5973 94.0235 44.4673 94.6955 44.4673H96.2834V44.1631C96.2834 43.732 96.163 43.4055 95.9221 43.1837C95.6812 42.9555 95.3294 42.8414 94.8666 42.8414C94.5497 42.8414 94.2454 42.8953 93.9538 43.003C93.6622 43.1044 93.4118 43.2471 93.2026 43.4309L92.8984 42.9269C93.1519 42.7114 93.4562 42.5466 93.8112 42.4325C94.1662 42.3121 94.5402 42.2518 94.9332 42.2518ZM94.6955 46.8064C95.0758 46.8064 95.4023 46.7209 95.6749 46.5497C95.9474 46.3722 96.1503 46.1187 96.2834 45.789V44.9713H94.7145C93.8587 44.9713 93.4308 45.2692 93.4308 45.8651C93.4308 46.1567 93.5418 46.3881 93.7636 46.5592C93.9855 46.724 94.2961 46.8064 94.6955 46.8064ZM99.2486 43.2693C99.4071 42.9333 99.6416 42.6797 99.9522 42.5086C100.269 42.3374 100.659 42.2518 101.122 42.2518V42.9079L100.96 42.8984C100.434 42.8984 100.022 43.0601 99.724 43.3834C99.4261 43.7067 99.2771 44.1599 99.2771 44.7431V47.2914H98.602V42.2899H99.2486V43.2693ZM106.462 44.9998H102.279C102.317 45.5196 102.516 45.9412 102.878 46.2645C103.239 46.5814 103.695 46.7399 104.247 46.7399C104.558 46.7399 104.843 46.686 105.103 46.5782C105.363 46.4641 105.588 46.2993 105.778 46.0838L106.158 46.5212C105.936 46.7874 105.657 46.9903 105.321 47.1297C104.992 47.2692 104.627 47.3389 104.228 47.3389C103.715 47.3389 103.258 47.2312 102.859 47.0156C102.466 46.7938 102.158 46.4895 101.936 46.1028C101.715 45.7161 101.604 45.2787 101.604 44.7906C101.604 44.3025 101.708 43.8651 101.917 43.4784C102.133 43.0918 102.425 42.7907 102.792 42.5751C103.166 42.3596 103.585 42.2518 104.047 42.2518C104.51 42.2518 104.925 42.3596 105.293 42.5751C105.661 42.7907 105.949 43.0918 106.158 43.4784C106.367 43.8588 106.472 44.2962 106.472 44.7906L106.462 44.9998ZM104.047 42.8319C103.566 42.8319 103.16 42.9872 102.83 43.2978C102.507 43.6021 102.323 44.0014 102.279 44.4959H105.825C105.781 44.0014 105.594 43.6021 105.264 43.2978C104.941 42.9872 104.535 42.8319 104.047 42.8319ZM114.157 42.2899L111.656 47.8904C111.454 48.3595 111.219 48.6923 110.953 48.8888C110.687 49.0853 110.366 49.1836 109.992 49.1836C109.752 49.1836 109.526 49.1456 109.317 49.0695C109.108 48.9934 108.927 48.8793 108.775 48.7272L109.089 48.2232C109.343 48.4768 109.647 48.6036 110.002 48.6036C110.23 48.6036 110.423 48.5402 110.582 48.4134C110.747 48.2866 110.899 48.0711 111.038 47.7668L111.257 47.2819L109.023 42.2899H109.726L111.609 46.5402L113.492 42.2899H114.157ZM116.823 47.3389C116.341 47.3389 115.907 47.2312 115.52 47.0156C115.133 46.7938 114.829 46.4895 114.607 46.1028C114.385 45.7161 114.275 45.2787 114.275 44.7906C114.275 44.3025 114.385 43.8651 114.607 43.4784C114.829 43.0918 115.133 42.7907 115.52 42.5751C115.907 42.3596 116.341 42.2518 116.823 42.2518C117.305 42.2518 117.739 42.3596 118.125 42.5751C118.512 42.7907 118.813 43.0918 119.029 43.4784C119.251 43.8651 119.362 44.3025 119.362 44.7906C119.362 45.2787 119.251 45.7161 119.029 46.1028C118.813 46.4895 118.512 46.7938 118.125 47.0156C117.739 47.2312 117.305 47.3389 116.823 47.3389ZM116.823 46.7399C117.178 46.7399 117.495 46.6606 117.774 46.5022C118.059 46.3374 118.281 46.106 118.439 45.808C118.598 45.5101 118.677 45.171 118.677 44.7906C118.677 44.4103 118.598 44.0711 118.439 43.7732C118.281 43.4753 118.059 43.2471 117.774 43.0886C117.495 42.9238 117.178 42.8414 116.823 42.8414C116.468 42.8414 116.148 42.9238 115.862 43.0886C115.584 43.2471 115.362 43.4753 115.197 43.7732C115.038 44.0711 114.959 44.4103 114.959 44.7906C114.959 45.171 115.038 45.5101 115.197 45.808C115.362 46.106 115.584 46.3374 115.862 46.5022C116.148 46.6606 116.468 46.7399 116.823 46.7399ZM125.057 42.2899V47.2914H124.41V46.3786C124.233 46.6828 123.989 46.9205 123.678 47.0917C123.367 47.2565 123.012 47.3389 122.613 47.3389C121.96 47.3389 121.444 47.1583 121.063 46.7969C120.689 46.4293 120.502 45.8936 120.502 45.19V42.2899H121.177V45.1234C121.177 45.6496 121.307 46.0489 121.567 46.3215C121.827 46.5941 122.198 46.7304 122.68 46.7304C123.206 46.7304 123.621 46.5719 123.925 46.2549C124.23 45.9317 124.382 45.4848 124.382 44.9142V42.2899H125.057ZM130.71 40.759C130.419 40.759 130.197 40.8382 130.045 40.9967C129.899 41.1552 129.826 41.3897 129.826 41.7003V42.2899H131.366V42.8604H129.845V47.2914H129.17V42.8604H128.276V42.2899H129.17V41.6718C129.17 41.2154 129.3 40.8541 129.56 40.5878C129.826 40.3216 130.2 40.1885 130.682 40.1885C130.872 40.1885 131.056 40.217 131.233 40.2741C131.411 40.3248 131.56 40.4008 131.68 40.5023L131.452 41.0062C131.255 40.8414 131.008 40.759 130.71 40.759ZM136.359 44.9998H132.175C132.213 45.5196 132.413 45.9412 132.774 46.2645C133.136 46.5814 133.592 46.7399 134.144 46.7399C134.454 46.7399 134.74 46.686 134.999 46.5782C135.259 46.4641 135.484 46.2993 135.675 46.0838L136.055 46.5212C135.833 46.7874 135.554 46.9903 135.218 47.1297C134.888 47.2692 134.524 47.3389 134.125 47.3389C133.611 47.3389 133.155 47.2312 132.755 47.0156C132.362 46.7938 132.055 46.4895 131.833 46.1028C131.611 45.7161 131.5 45.2787 131.5 44.7906C131.5 44.3025 131.605 43.8651 131.814 43.4784C132.03 43.0918 132.321 42.7907 132.689 42.5751C133.063 42.3596 133.481 42.2518 133.944 42.2518C134.407 42.2518 134.822 42.3596 135.19 42.5751C135.557 42.7907 135.846 43.0918 136.055 43.4784C136.264 43.8588 136.369 44.2962 136.369 44.7906L136.359 44.9998ZM133.944 42.8319C133.462 42.8319 133.057 42.9872 132.727 43.2978C132.404 43.6021 132.22 44.0014 132.175 44.4959H135.722C135.678 44.0014 135.491 43.6021 135.161 43.2978C134.838 42.9872 134.432 42.8319 133.944 42.8319ZM141.908 44.9998H137.724C137.762 45.5196 137.961 45.9412 138.323 46.2645C138.684 46.5814 139.141 46.7399 139.692 46.7399C140.003 46.7399 140.288 46.686 140.548 46.5782C140.808 46.4641 141.033 46.2993 141.223 46.0838L141.603 46.5212C141.381 46.7874 141.102 46.9903 140.767 47.1297C140.437 47.2692 140.072 47.3389 139.673 47.3389C139.16 47.3389 138.703 47.2312 138.304 47.0156C137.911 46.7938 137.603 46.4895 137.381 46.1028C137.16 45.7161 137.049 45.2787 137.049 44.7906C137.049 44.3025 137.153 43.8651 137.362 43.4784C137.578 43.0918 137.87 42.7907 138.237 42.5751C138.611 42.3596 139.03 42.2518 139.492 42.2518C139.955 42.2518 140.37 42.3596 140.738 42.5751C141.106 42.7907 141.394 43.0918 141.603 43.4784C141.812 43.8588 141.917 44.2962 141.917 44.7906L141.908 44.9998ZM139.492 42.8319C139.011 42.8319 138.605 42.9872 138.275 43.2978C137.952 43.6021 137.768 44.0014 137.724 44.4959H141.27C141.226 44.0014 141.039 43.6021 140.709 43.2978C140.386 42.9872 139.98 42.8319 139.492 42.8319ZM143.101 40.236H143.776V47.2914H143.101V40.236ZM145.464 42.2899H146.14V47.2914H145.464V42.2899ZM145.807 41.1964C145.667 41.1964 145.55 41.1488 145.455 41.0538C145.36 40.9587 145.312 40.8446 145.312 40.7114C145.312 40.5847 145.36 40.4737 145.455 40.3786C145.55 40.2836 145.667 40.236 145.807 40.236C145.946 40.236 146.063 40.2836 146.159 40.3786C146.254 40.4674 146.301 40.5752 146.301 40.7019C146.301 40.8414 146.254 40.9587 146.159 41.0538C146.063 41.1488 145.946 41.1964 145.807 41.1964ZM150.376 42.2518C151.004 42.2518 151.501 42.4357 151.869 42.8033C152.243 43.1647 152.43 43.694 152.43 44.3913V47.2914H151.755V44.4578C151.755 43.938 151.625 43.5418 151.365 43.2693C151.105 42.9967 150.734 42.8604 150.253 42.8604C149.714 42.8604 149.286 43.022 148.969 43.3453C148.658 43.6623 148.503 44.1028 148.503 44.667V47.2914H147.828V42.2899H148.474V43.2122C148.658 42.9079 148.912 42.6734 149.235 42.5086C149.565 42.3374 149.945 42.2518 150.376 42.2518ZM158.722 42.2899V46.6828C158.722 47.5323 158.513 48.1598 158.094 48.5655C157.682 48.9776 157.058 49.1836 156.221 49.1836C155.758 49.1836 155.318 49.1139 154.899 48.9744C154.487 48.8413 154.151 48.6543 153.892 48.4134L154.234 47.8999C154.475 48.1155 154.766 48.2834 155.109 48.4039C155.457 48.5243 155.822 48.5845 156.202 48.5845C156.836 48.5845 157.302 48.4356 157.6 48.1376C157.898 47.846 158.047 47.3896 158.047 46.7684V46.1313C157.838 46.4483 157.562 46.6892 157.22 46.854C156.884 47.0188 156.51 47.1012 156.098 47.1012C155.628 47.1012 155.201 46.9998 154.814 46.7969C154.434 46.5877 154.132 46.2993 153.911 45.9317C153.695 45.5577 153.587 45.1361 153.587 44.667C153.587 44.1979 153.695 43.7795 153.911 43.4119C154.132 43.0442 154.434 42.759 154.814 42.5561C155.194 42.3533 155.622 42.2518 156.098 42.2518C156.522 42.2518 156.906 42.3374 157.248 42.5086C157.59 42.6797 157.866 42.9269 158.075 43.2502V42.2899H158.722ZM156.164 46.5022C156.525 46.5022 156.852 46.4261 157.143 46.274C157.435 46.1155 157.66 45.8968 157.819 45.6179C157.983 45.339 158.066 45.022 158.066 44.667C158.066 44.312 157.983 43.9982 157.819 43.7257C157.66 43.4467 157.435 43.2312 157.143 43.0791C156.858 42.9206 156.532 42.8414 156.164 42.8414C155.803 42.8414 155.476 42.9174 155.185 43.0696C154.899 43.2217 154.674 43.4372 154.51 43.7162C154.351 43.9951 154.272 44.312 154.272 44.667C154.272 45.022 154.351 45.339 154.51 45.6179C154.674 45.8968 154.899 46.1155 155.185 46.274C155.476 46.4261 155.803 46.5022 156.164 46.5022ZM165.352 46.9871C165.225 47.1012 165.067 47.19 164.876 47.2533C164.693 47.3104 164.499 47.3389 164.296 47.3389C163.827 47.3389 163.466 47.2121 163.212 46.9586C162.959 46.705 162.832 46.3469 162.832 45.8841V42.8604H161.938V42.2899H162.832V41.1964H163.507V42.2899H165.029V42.8604H163.507V45.8461C163.507 46.144 163.58 46.3722 163.726 46.5307C163.878 46.6828 164.094 46.7589 164.373 46.7589C164.512 46.7589 164.645 46.7367 164.772 46.6923C164.905 46.648 165.019 46.5846 165.114 46.5022L165.352 46.9871ZM168.259 47.3389C167.777 47.3389 167.343 47.2312 166.956 47.0156C166.569 46.7938 166.265 46.4895 166.043 46.1028C165.821 45.7161 165.71 45.2787 165.71 44.7906C165.71 44.3025 165.821 43.8651 166.043 43.4784C166.265 43.0918 166.569 42.7907 166.956 42.5751C167.343 42.3596 167.777 42.2518 168.259 42.2518C168.74 42.2518 169.175 42.3596 169.561 42.5751C169.948 42.7907 170.249 43.0918 170.465 43.4784C170.686 43.8651 170.797 44.3025 170.797 44.7906C170.797 45.2787 170.686 45.7161 170.465 46.1028C170.249 46.4895 169.948 46.7938 169.561 47.0156C169.175 47.2312 168.74 47.3389 168.259 47.3389ZM168.259 46.7399C168.614 46.7399 168.931 46.6606 169.209 46.5022C169.495 46.3374 169.717 46.106 169.875 45.808C170.034 45.5101 170.113 45.171 170.113 44.7906C170.113 44.4103 170.034 44.0711 169.875 43.7732C169.717 43.4753 169.495 43.2471 169.209 43.0886C168.931 42.9238 168.614 42.8414 168.259 42.8414C167.904 42.8414 167.584 42.9238 167.298 43.0886C167.019 43.2471 166.797 43.4753 166.633 43.7732C166.474 44.0711 166.395 44.4103 166.395 44.7906C166.395 45.171 166.474 45.5101 166.633 45.808C166.797 46.106 167.019 46.3374 167.298 46.5022C167.584 46.6606 167.904 46.7399 168.259 46.7399ZM176.55 40.236V47.2914H175.903V46.3025C175.7 46.6385 175.431 46.8952 175.095 47.0727C174.765 47.2502 174.391 47.3389 173.973 47.3389C173.504 47.3389 173.079 47.2312 172.699 47.0156C172.318 46.8001 172.02 46.499 171.805 46.1123C171.589 45.7256 171.482 45.2851 171.482 44.7906C171.482 44.2962 171.589 43.8556 171.805 43.4689C172.02 43.0823 172.318 42.7843 172.699 42.5751C173.079 42.3596 173.504 42.2518 173.973 42.2518C174.379 42.2518 174.743 42.3374 175.066 42.5086C175.396 42.6734 175.665 42.9174 175.875 43.2407V40.236H176.55ZM174.03 46.7399C174.379 46.7399 174.692 46.6606 174.971 46.5022C175.256 46.3374 175.478 46.106 175.637 45.808C175.802 45.5101 175.884 45.171 175.884 44.7906C175.884 44.4103 175.802 44.0711 175.637 43.7732C175.478 43.4753 175.256 43.2471 174.971 43.0886C174.692 42.9238 174.379 42.8414 174.03 42.8414C173.675 42.8414 173.355 42.9238 173.07 43.0886C172.791 43.2471 172.569 43.4753 172.404 43.7732C172.245 44.0711 172.166 44.4103 172.166 44.7906C172.166 45.171 172.245 45.5101 172.404 45.808C172.569 46.106 172.791 46.3374 173.07 46.5022C173.355 46.6606 173.675 46.7399 174.03 46.7399ZM179.989 42.2518C180.642 42.2518 181.143 42.4167 181.492 42.7463C181.84 43.0696 182.015 43.5513 182.015 44.1916V47.2914H181.368V46.5117C181.216 46.7716 180.991 46.9744 180.693 47.1202C180.401 47.266 180.053 47.3389 179.647 47.3389C179.089 47.3389 178.645 47.2058 178.316 46.9396C177.986 46.6733 177.821 46.3215 177.821 45.8841C177.821 45.4594 177.973 45.1171 178.278 44.8572C178.588 44.5973 179.08 44.4673 179.752 44.4673H181.339V44.1631C181.339 43.732 181.219 43.4055 180.978 43.1837C180.737 42.9555 180.385 42.8414 179.923 42.8414C179.606 42.8414 179.301 42.8953 179.01 43.003C178.718 43.1044 178.468 43.2471 178.259 43.4309L177.954 42.9269C178.208 42.7114 178.512 42.5466 178.867 42.4325C179.222 42.3121 179.596 42.2518 179.989 42.2518ZM179.752 46.8064C180.132 46.8064 180.458 46.7209 180.731 46.5497C181.003 46.3722 181.206 46.1187 181.339 45.789V44.9713H179.771C178.915 44.9713 178.487 45.2692 178.487 45.8651C178.487 46.1567 178.598 46.3881 178.82 46.5592C179.042 46.724 179.352 46.8064 179.752 46.8064ZM187.768 42.2899L185.267 47.8904C185.064 48.3595 184.83 48.6923 184.564 48.8888C184.297 49.0853 183.977 49.1836 183.603 49.1836C183.362 49.1836 183.137 49.1456 182.928 49.0695C182.719 48.9934 182.538 48.8793 182.386 48.7272L182.7 48.2232C182.953 48.4768 183.258 48.6036 183.613 48.6036C183.841 48.6036 184.034 48.5402 184.193 48.4134C184.358 48.2866 184.51 48.0711 184.649 47.7668L184.868 47.2819L182.633 42.2899H183.337L185.22 46.5402L187.102 42.2899H187.768ZM190.128 45.2946C190.128 45.0347 190.169 44.8065 190.252 44.61C190.341 44.4135 190.448 44.2455 190.575 44.106C190.702 43.9666 190.867 43.8081 191.07 43.6306C191.342 43.3897 191.542 43.1805 191.669 43.003C191.802 42.8192 191.868 42.5973 191.868 42.3374C191.868 41.9888 191.732 41.7098 191.459 41.5007C191.187 41.2851 190.813 41.1774 190.337 41.1774C189.551 41.1774 188.946 41.4341 188.521 41.9476L188.017 41.5672C188.556 40.908 189.345 40.5783 190.385 40.5783C191.051 40.5783 191.58 40.7273 191.973 41.0252C192.372 41.3232 192.572 41.7257 192.572 42.2328C192.572 42.4927 192.528 42.7241 192.439 42.9269C192.356 43.1235 192.252 43.2914 192.125 43.4309C192.005 43.5704 191.843 43.732 191.64 43.9158C191.367 44.1631 191.165 44.3849 191.031 44.5814C190.898 44.7716 190.832 45.0093 190.832 45.2946H190.128ZM190.48 47.3389C190.341 47.3389 190.223 47.2914 190.128 47.1963C190.033 47.0949 189.986 46.9776 189.986 46.8445C189.986 46.705 190.033 46.5909 190.128 46.5022C190.223 46.4071 190.341 46.3595 190.48 46.3595C190.626 46.3595 190.746 46.4071 190.841 46.5022C190.936 46.5909 190.984 46.705 190.984 46.8445C190.984 46.9776 190.933 47.0949 190.832 47.1963C190.737 47.2914 190.619 47.3389 190.48 47.3389Z" fill="white"/>
</g>
<g style="mix-blend-mode:overlay">
<path d="M134.573 80.4857H127.426C126.644 80.4857 126.644 82.5657 127.426 82.5657H134.573C135.355 82.5657 135.355 80.4857 134.573 80.4857" fill="white"/>
<path d="M124.76 74.5428C126.237 74.5428 127.435 73.3455 127.435 71.8685C127.435 70.3915 126.237 69.1942 124.76 69.1942C123.283 69.1942 122.086 70.3915 122.086 71.8685C122.086 73.3455 123.283 74.5428 124.76 74.5428Z" fill="white"/>
<path d="M137.24 74.5428C138.717 74.5428 139.914 73.3455 139.914 71.8685C139.914 70.3915 138.717 69.1942 137.24 69.1942C135.763 69.1942 134.566 70.3915 134.566 71.8685C134.566 73.3455 135.763 74.5428 137.24 74.5428Z" fill="white"/>
<path d="M85.5371 74.5428C87.014 74.5428 88.2114 73.3455 88.2114 71.8685C88.2114 70.3915 87.014 69.1942 85.5371 69.1942C84.0601 69.1942 82.8628 70.3915 82.8628 71.8685C82.8628 73.3455 84.0601 74.5428 85.5371 74.5428Z" fill="white"/>
<path d="M98.0171 74.5428C99.494 74.5428 100.691 73.3455 100.691 71.8685C100.691 70.3915 99.494 69.1942 98.0171 69.1942C96.5401 69.1942 95.3428 70.3915 95.3428 71.8685C95.3428 73.3455 96.5401 74.5428 98.0171 74.5428Z" fill="white"/>
<path d="M95.937 82.2686C94.1542 79.2971 88.8056 79.2971 87.0227 82.2686" stroke="white" stroke-width="1.78286" stroke-linecap="round"/>
<path d="M46.3144 74.5428C47.7914 74.5428 48.9887 73.3455 48.9887 71.8685C48.9887 70.3915 47.7914 69.1942 46.3144 69.1942C44.8375 69.1942 43.6401 70.3915 43.6401 71.8685C43.6401 73.3455 44.8375 74.5428 46.3144 74.5428Z" fill="white"/>
<path d="M58.7944 74.5428C60.2714 74.5428 61.4687 73.3455 61.4687 71.8685C61.4687 70.3915 60.2714 69.1942 58.7944 69.1942C57.3174 69.1942 56.1201 70.3915 56.1201 71.8685C56.1201 73.3455 57.3174 74.5428 58.7944 74.5428Z" fill="white"/>
<path d="M56.7144 82.8628C54.9315 78.7028 49.5829 78.7028 47.8001 82.8628L56.7144 82.8628Z" fill="white" stroke="white" stroke-width="1.78286" stroke-linecap="round"/>
<path d="M203.206 73.9485C204.683 73.9485 205.88 72.7512 205.88 71.2743C205.88 69.7973 204.683 68.6 203.206 68.6C201.729 68.6 200.532 69.7973 200.532 71.2743C200.532 72.7512 201.729 73.9485 203.206 73.9485Z" fill="white"/>
<path d="M215.686 73.9485C217.163 73.9485 218.36 72.7512 218.36 71.2743C218.36 69.7973 217.163 68.6 215.686 68.6C214.209 68.6 213.012 69.7973 213.012 71.2743C213.012 72.7512 214.209 73.9485 215.686 73.9485Z" fill="white"/>
<path d="M204.692 80.3372C206.475 84.4972 211.823 84.4972 213.606 80.3372H204.692Z" fill="white" stroke="white" stroke-width="1.78286" stroke-linecap="round"/>
<path d="M163.983 74.5428C165.46 74.5428 166.657 73.3455 166.657 71.8685C166.657 70.3915 165.46 69.1942 163.983 69.1942C162.506 69.1942 161.309 70.3915 161.309 71.8685C161.309 73.3455 162.506 74.5428 163.983 74.5428Z" fill="white"/>
<path d="M176.463 74.5428C177.94 74.5428 179.137 73.3455 179.137 71.8685C179.137 70.3915 177.94 69.1942 176.463 69.1942C174.986 69.1942 173.789 70.3915 173.789 71.8685C173.789 73.3455 174.986 74.5428 176.463 74.5428Z" fill="white"/>
<path d="M165.469 80.04C167.252 83.0115 172.6 83.0115 174.383 80.04" stroke="white" stroke-width="1.78286" stroke-linecap="round"/>
</g>
<defs>
<filter id="filter0_ddddd" x="0.851428" y="0.851428" width="260.297" height="125.989" filterUnits="userSpaceOnUse" color-interpolation-filters="sRGB">
<feFlood flood-opacity="0" result="BackgroundImageFix"/>
<feColorMatrix in="SourceAlpha" type="matrix" values="0 0 0 0 0 0 0 0 0 0 0 0 0 0 0 0 0 0 127 0"/>
<feOffset dx="7.13143" dy="7.13143"/>
<feGaussianBlur stdDeviation="9.50857"/>
<feColorMatrix type="matrix" values="0 0 0 0 0 0 0 0 0 0 0 0 0 0 0 0 0 0 0.2 0"/>
<feBlend mode="normal" in2="BackgroundImageFix" result="effect1_dropShadow"/>
<feColorMatrix in="SourceAlpha" type="matrix" values="0 0 0 0 0 0 0 0 0 0 0 0 0 0 0 0 0 0 127 0"/>
<feOffset dx="-7.13143" dy="-7.13143"/>
<feGaussianBlur stdDeviation="9.50857"/>
<feColorMatrix type="matrix" values="0 0 0 0 0.166528 0 0 0 0 0.190544 0 0 0 0 0.366667 0 0 0 0.3 0"/>
<feBlend mode="normal" in2="effect1_dropShadow" result="effect2_dropShadow"/>
<feColorMatrix in="SourceAlpha" type="matrix" values="0 0 0 0 0 0 0 0 0 0 0 0 0 0 0 0 0 0 127 0"/>
<feOffset dx="-3.56571" dy="-3.56571"/>
<feGaussianBlur stdDeviation="4.75429"/>
<feColorMatrix type="matrix" values="0 0 0 0 0.188472 0 0 0 0 0.211856 0 0 0 0 0.383333 0 0 0 0.3 0"/>
<feBlend mode="normal" in2="effect2_dropShadow" result="effect3_dropShadow"/>
<feColorMatrix in="SourceAlpha" type="matrix" values="0 0 0 0 0 0 0 0 0 0 0 0 0 0 0 0 0 0 127 0"/>
<feOffset dx="3.56571" dy="3.56571"/>
<feGaussianBlur stdDeviation="4.75429"/>
<feColorMatrix type="matrix" values="0 0 0 0 0 0 0 0 0 0 0 0 0 0 0 0 0 0 0.3 0"/>
<feBlend mode="normal" in2="effect3_dropShadow" result="effect4_dropShadow"/>
<feColorMatrix in="SourceAlpha" type="matrix" values="0 0 0 0 0 0 0 0 0 0 0 0 0 0 0 0 0 0 127 0"/>
<feOffset dx="-1.18857" dy="-1.18857"/>
<feGaussianBlur stdDeviation="2.37714"/>
<feColorMatrix type="matrix" values="0 0 0 0 0.20691 0 0 0 0 0.232581 0 0 0 0 0.420833 0 0 0 0.6 0"/>
<feBlend mode="normal" in2="effect4_dropShadow" result="effect5_dropShadow"/>
<feBlend mode="normal" in="SourceGraphic" in2="effect5_dropShadow" result="shape"/>
</filter>
<filter id="filter1_dddddii" x="9.76549" y="31.7543" width="85.5771" height="85.5771" filterUnits="userSpaceOnUse" color-interpolation-filters="sRGB">
<feFlood flood-opacity="0" result="BackgroundImageFix"/>
<feColorMatrix in="SourceAlpha" type="matrix" values="0 0 0 0 0 0 0 0 0 0 0 0 0 0 0 0 0 0 127 0"/>
<feOffset dx="7.13143" dy="7.13143"/>
<feGaussianBlur stdDeviation="9.50857"/>
<feColorMatrix type="matrix" values="0 0 0 0 0 0 0 0 0 0 0 0 0 0 0 0 0 0 0.2 0"/>
<feBlend mode="normal" in2="BackgroundImageFix" result="effect1_dropShadow"/>
<feColorMatrix in="SourceAlpha" type="matrix" values="0 0 0 0 0 0 0 0 0 0 0 0 0 0 0 0 0 0 127 0"/>
<feOffset dx="-7.13143" dy="-7.13143"/>
<feGaussianBlur stdDeviation="9.50857"/>
<feColorMatrix type="matrix" values="0 0 0 0 0.166528 0 0 0 0 0.190544 0 0 0 0 0.366667 0 0 0 0.3 0"/>
<feBlend mode="normal" in2="effect1_dropShadow" result="effect2_dropShadow"/>
<feColorMatrix in="SourceAlpha" type="matrix" values="0 0 0 0 0 0 0 0 0 0 0 0 0 0 0 0 0 0 127 0"/>
<feOffset dx="-3.56571" dy="-3.56571"/>
<feGaussianBlur stdDeviation="4.75429"/>
<feColorMatrix type="matrix" values="0 0 0 0 0.188472 0 0 0 0 0.211856 0 0 0 0 0.383333 0 0 0 0.3 0"/>
<feBlend mode="normal" in2="effect2_dropShadow" result="effect3_dropShadow"/>
<feColorMatrix in="SourceAlpha" type="matrix" values="0 0 0 0 0 0 0 0 0 0 0 0 0 0 0 0 0 0 127 0"/>
<feOffset dx="3.56571" dy="3.56571"/>
<feGaussianBlur stdDeviation="4.75429"/>
<feColorMatrix type="matrix" values="0 0 0 0 0 0 0 0 0 0 0 0 0 0 0 0 0 0 0.3 0"/>
<feBlend mode="normal" in2="effect3_dropShadow" result="effect4_dropShadow"/>
<feColorMatrix in="SourceAlpha" type="matrix" values="0 0 0 0 0 0 0 0 0 0 0 0 0 0 0 0 0 0 127 0"/>
<feOffset dx="-1.18857" dy="-1.18857"/>
<feGaussianBlur stdDeviation="2.37714"/>
<feColorMatrix type="matrix" values="0 0 0 0 0.20691 0 0 0 0 0.232581 0 0 0 0 0.420833 0 0 0 0.6 0"/>
<feBlend mode="normal" in2="effect4_dropShadow" result="effect5_dropShadow"/>
<feBlend mode="normal" in="SourceGraphic" in2="effect5_dropShadow" result="shape"/>
<feColorMatrix in="SourceAlpha" type="matrix" values="0 0 0 0 0 0 0 0 0 0 0 0 0 0 0 0 0 0 127 0" result="hardAlpha"/>
<feOffset dx="4.75429" dy="4.75429"/>
<feGaussianBlur stdDeviation="9.50857"/>
<feComposite in2="hardAlpha" operator="arithmetic" k2="-1" k3="1"/>
<feColorMatrix type="matrix" values="0 0 0 0 0.0941176 0 0 0 0 0.0980392 0 0 0 0 0.14902 0 0 0 0.6 0"/>
<feBlend mode="normal" in2="shape" result="effect6_innerShadow"/>
<feColorMatrix in="SourceAlpha" type="matrix" values="0 0 0 0 0 0 0 0 0 0 0 0 0 0 0 0 0 0 127 0" result="hardAlpha"/>
<feOffset dx="-9.50857" dy="-9.50857"/>
<feGaussianBlur stdDeviation="9.50857"/>
<feComposite in2="hardAlpha" operator="arithmetic" k2="-1" k3="1"/>
<feColorMatrix type="matrix" values="0 0 0 0 0.337255 0 0 0 0 0.384314 0 0 0 0 0.956863 0 0 0 0.1 0"/>
<feBlend mode="normal" in2="effect6_innerShadow" result="effect7_innerShadow"/>
</filter>
<filter id="filter2_dddddii" x="48.9886" y="31.7543" width="85.5771" height="85.5771" filterUnits="userSpaceOnUse" color-interpolation-filters="sRGB">
<feFlood flood-opacity="0" result="BackgroundImageFix"/>
<feColorMatrix in="SourceAlpha" type="matrix" values="0 0 0 0 0 0 0 0 0 0 0 0 0 0 0 0 0 0 127 0"/>
<feOffset dx="7.13143" dy="7.13143"/>
<feGaussianBlur stdDeviation="9.50857"/>
<feColorMatrix type="matrix" values="0 0 0 0 0 0 0 0 0 0 0 0 0 0 0 0 0 0 0.2 0"/>
<feBlend mode="normal" in2="BackgroundImageFix" result="effect1_dropShadow"/>
<feColorMatrix in="SourceAlpha" type="matrix" values="0 0 0 0 0 0 0 0 0 0 0 0 0 0 0 0 0 0 127 0"/>
<feOffset dx="-7.13143" dy="-7.13143"/>
<feGaussianBlur stdDeviation="9.50857"/>
<feColorMatrix type="matrix" values="0 0 0 0 0.166528 0 0 0 0 0.190544 0 0 0 0 0.366667 0 0 0 0.3 0"/>
<feBlend mode="normal" in2="effect1_dropShadow" result="effect2_dropShadow"/>
<feColorMatrix in="SourceAlpha" type="matrix" values="0 0 0 0 0 0 0 0 0 0 0 0 0 0 0 0 0 0 127 0"/>
<feOffset dx="-3.56571" dy="-3.56571"/>
<feGaussianBlur stdDeviation="4.75429"/>
<feColorMatrix type="matrix" values="0 0 0 0 0.188472 0 0 0 0 0.211856 0 0 0 0 0.383333 0 0 0 0.3 0"/>
<feBlend mode="normal" in2="effect2_dropShadow" result="effect3_dropShadow"/>
<feColorMatrix in="SourceAlpha" type="matrix" values="0 0 0 0 0 0 0 0 0 0 0 0 0 0 0 0 0 0 127 0"/>
<feOffset dx="3.56571" dy="3.56571"/>
<feGaussianBlur stdDeviation="4.75429"/>
<feColorMatrix type="matrix" values="0 0 0 0 0 0 0 0 0 0 0 0 0 0 0 0 0 0 0.3 0"/>
<feBlend mode="normal" in2="effect3_dropShadow" result="effect4_dropShadow"/>
<feColorMatrix in="SourceAlpha" type="matrix" values="0 0 0 0 0 0 0 0 0 0 0 0 0 0 0 0 0 0 127 0"/>
<feOffset dx="-1.18857" dy="-1.18857"/>
<feGaussianBlur stdDeviation="2.37714"/>
<feColorMatrix type="matrix" values="0 0 0 0 0.20691 0 0 0 0 0.232581 0 0 0 0 0.420833 0 0 0 0.6 0"/>
<feBlend mode="normal" in2="effect4_dropShadow" result="effect5_dropShadow"/>
<feBlend mode="normal" in="SourceGraphic" in2="effect5_dropShadow" result="shape"/>
<feColorMatrix in="SourceAlpha" type="matrix" values="0 0 0 0 0 0 0 0 0 0 0 0 0 0 0 0 0 0 127 0" result="hardAlpha"/>
<feOffset dx="4.75429" dy="4.75429"/>
<feGaussianBlur stdDeviation="9.50857"/>
<feComposite in2="hardAlpha" operator="arithmetic" k2="-1" k3="1"/>
<feColorMatrix type="matrix" values="0 0 0 0 0.0941176 0 0 0 0 0.0980392 0 0 0 0 0.14902 0 0 0 0.6 0"/>
<feBlend mode="normal" in2="shape" result="effect6_innerShadow"/>
<feColorMatrix in="SourceAlpha" type="matrix" values="0 0 0 0 0 0 0 0 0 0 0 0 0 0 0 0 0 0 127 0" result="hardAlpha"/>
<feOffset dx="-9.50857" dy="-9.50857"/>
<feGaussianBlur stdDeviation="9.50857"/>
<feComposite in2="hardAlpha" operator="arithmetic" k2="-1" k3="1"/>
<feColorMatrix type="matrix" values="0 0 0 0 0.337255 0 0 0 0 0.384314 0 0 0 0 0.956863 0 0 0 0.1 0"/>
<feBlend mode="normal" in2="effect6_innerShadow" result="effect7_innerShadow"/>
</filter>
<filter id="filter3_dddddii" x="88.2113" y="31.7543" width="85.5771" height="85.5771" filterUnits="userSpaceOnUse" color-interpolation-filters="sRGB">
<feFlood flood-opacity="0" result="BackgroundImageFix"/>
<feColorMatrix in="SourceAlpha" type="matrix" values="0 0 0 0 0 0 0 0 0 0 0 0 0 0 0 0 0 0 127 0"/>
<feOffset dx="7.13143" dy="7.13143"/>
<feGaussianBlur stdDeviation="9.50857"/>
<feColorMatrix type="matrix" values="0 0 0 0 0 0 0 0 0 0 0 0 0 0 0 0 0 0 0.2 0"/>
<feBlend mode="normal" in2="BackgroundImageFix" result="effect1_dropShadow"/>
<feColorMatrix in="SourceAlpha" type="matrix" values="0 0 0 0 0 0 0 0 0 0 0 0 0 0 0 0 0 0 127 0"/>
<feOffset dx="-7.13143" dy="-7.13143"/>
<feGaussianBlur stdDeviation="9.50857"/>
<feColorMatrix type="matrix" values="0 0 0 0 0.166528 0 0 0 0 0.190544 0 0 0 0 0.366667 0 0 0 0.3 0"/>
<feBlend mode="normal" in2="effect1_dropShadow" result="effect2_dropShadow"/>
<feColorMatrix in="SourceAlpha" type="matrix" values="0 0 0 0 0 0 0 0 0 0 0 0 0 0 0 0 0 0 127 0"/>
<feOffset dx="-3.56571" dy="-3.56571"/>
<feGaussianBlur stdDeviation="4.75429"/>
<feColorMatrix type="matrix" values="0 0 0 0 0.188472 0 0 0 0 0.211856 0 0 0 0 0.383333 0 0 0 0.3 0"/>
<feBlend mode="normal" in2="effect2_dropShadow" result="effect3_dropShadow"/>
<feColorMatrix in="SourceAlpha" type="matrix" values="0 0 0 0 0 0 0 0 0 0 0 0 0 0 0 0 0 0 127 0"/>
<feOffset dx="3.56571" dy="3.56571"/>
<feGaussianBlur stdDeviation="4.75429"/>
<feColorMatrix type="matrix" values="0 0 0 0 0 0 0 0 0 0 0 0 0 0 0 0 0 0 0.3 0"/>
<feBlend mode="normal" in2="effect3_dropShadow" result="effect4_dropShadow"/>
<feColorMatrix in="SourceAlpha" type="matrix" values="0 0 0 0 0 0 0 0 0 0 0 0 0 0 0 0 0 0 127 0"/>
<feOffset dx="-1.18857" dy="-1.18857"/>
<feGaussianBlur stdDeviation="2.37714"/>
<feColorMatrix type="matrix" values="0 0 0 0 0.20691 0 0 0 0 0.232581 0 0 0 0 0.420833 0 0 0 0.6 0"/>
<feBlend mode="normal" in2="effect4_dropShadow" result="effect5_dropShadow"/>
<feBlend mode="normal" in="SourceGraphic" in2="effect5_dropShadow" result="shape"/>
<feColorMatrix in="SourceAlpha" type="matrix" values="0 0 0 0 0 0 0 0 0 0 0 0 0 0 0 0 0 0 127 0" result="hardAlpha"/>
<feOffset dx="4.75429" dy="4.75429"/>
<feGaussianBlur stdDeviation="9.50857"/>
<feComposite in2="hardAlpha" operator="arithmetic" k2="-1" k3="1"/>
<feColorMatrix type="matrix" values="0 0 0 0 0.0941176 0 0 0 0 0.0980392 0 0 0 0 0.14902 0 0 0 0.6 0"/>
<feBlend mode="normal" in2="shape" result="effect6_innerShadow"/>
<feColorMatrix in="SourceAlpha" type="matrix" values="0 0 0 0 0 0 0 0 0 0 0 0 0 0 0 0 0 0 127 0" result="hardAlpha"/>
<feOffset dx="-9.50857" dy="-9.50857"/>
<feGaussianBlur stdDeviation="9.50857"/>
<feComposite in2="hardAlpha" operator="arithmetic" k2="-1" k3="1"/>
<feColorMatrix type="matrix" values="0 0 0 0 0.337255 0 0 0 0 0.384314 0 0 0 0 0.956863 0 0 0 0.1 0"/>
<feBlend mode="normal" in2="effect6_innerShadow" result="effect7_innerShadow"/>
</filter>
<filter id="filter4_dddddii" x="127.434" y="31.7543" width="85.5771" height="85.5771" filterUnits="userSpaceOnUse" color-interpolation-filters="sRGB">
<feFlood flood-opacity="0" result="BackgroundImageFix"/>
<feColorMatrix in="SourceAlpha" type="matrix" values="0 0 0 0 0 0 0 0 0 0 0 0 0 0 0 0 0 0 127 0"/>
<feOffset dx="7.13143" dy="7.13143"/>
<feGaussianBlur stdDeviation="9.50857"/>
<feColorMatrix type="matrix" values="0 0 0 0 0 0 0 0 0 0 0 0 0 0 0 0 0 0 0.2 0"/>
<feBlend mode="normal" in2="BackgroundImageFix" result="effect1_dropShadow"/>
<feColorMatrix in="SourceAlpha" type="matrix" values="0 0 0 0 0 0 0 0 0 0 0 0 0 0 0 0 0 0 127 0"/>
<feOffset dx="-7.13143" dy="-7.13143"/>
<feGaussianBlur stdDeviation="9.50857"/>
<feColorMatrix type="matrix" values="0 0 0 0 0.166528 0 0 0 0 0.190544 0 0 0 0 0.366667 0 0 0 0.3 0"/>
<feBlend mode="normal" in2="effect1_dropShadow" result="effect2_dropShadow"/>
<feColorMatrix in="SourceAlpha" type="matrix" values="0 0 0 0 0 0 0 0 0 0 0 0 0 0 0 0 0 0 127 0"/>
<feOffset dx="-3.56571" dy="-3.56571"/>
<feGaussianBlur stdDeviation="4.75429"/>
<feColorMatrix type="matrix" values="0 0 0 0 0.188472 0 0 0 0 0.211856 0 0 0 0 0.383333 0 0 0 0.3 0"/>
<feBlend mode="normal" in2="effect2_dropShadow" result="effect3_dropShadow"/>
<feColorMatrix in="SourceAlpha" type="matrix" values="0 0 0 0 0 0 0 0 0 0 0 0 0 0 0 0 0 0 127 0"/>
<feOffset dx="3.56571" dy="3.56571"/>
<feGaussianBlur stdDeviation="4.75429"/>
<feColorMatrix type="matrix" values="0 0 0 0 0 0 0 0 0 0 0 0 0 0 0 0 0 0 0.3 0"/>
<feBlend mode="normal" in2="effect3_dropShadow" result="effect4_dropShadow"/>
<feColorMatrix in="SourceAlpha" type="matrix" values="0 0 0 0 0 0 0 0 0 0 0 0 0 0 0 0 0 0 127 0"/>
<feOffset dx="-1.18857" dy="-1.18857"/>
<feGaussianBlur stdDeviation="2.37714"/>
<feColorMatrix type="matrix" values="0 0 0 0 0.20691 0 0 0 0 0.232581 0 0 0 0 0.420833 0 0 0 0.6 0"/>
<feBlend mode="normal" in2="effect4_dropShadow" result="effect5_dropShadow"/>
<feBlend mode="normal" in="SourceGraphic" in2="effect5_dropShadow" result="shape"/>
<feColorMatrix in="SourceAlpha" type="matrix" values="0 0 0 0 0 0 0 0 0 0 0 0 0 0 0 0 0 0 127 0" result="hardAlpha"/>
<feOffset dx="4.75429" dy="4.75429"/>
<feGaussianBlur stdDeviation="9.50857"/>
<feComposite in2="hardAlpha" operator="arithmetic" k2="-1" k3="1"/>
<feColorMatrix type="matrix" values="0 0 0 0 0.0941176 0 0 0 0 0.0980392 0 0 0 0 0.14902 0 0 0 0.6 0"/>
<feBlend mode="normal" in2="shape" result="effect6_innerShadow"/>
<feColorMatrix in="SourceAlpha" type="matrix" values="0 0 0 0 0 0 0 0 0 0 0 0 0 0 0 0 0 0 127 0" result="hardAlpha"/>
<feOffset dx="-9.50857" dy="-9.50857"/>
<feGaussianBlur stdDeviation="9.50857"/>
<feComposite in2="hardAlpha" operator="arithmetic" k2="-1" k3="1"/>
<feColorMatrix type="matrix" values="0 0 0 0 0.337255 0 0 0 0 0.384314 0 0 0 0 0.956863 0 0 0 0.1 0"/>
<feBlend mode="normal" in2="effect6_innerShadow" result="effect7_innerShadow"/>
</filter>
<filter id="filter5_dddddii" x="166.657" y="31.7543" width="85.5771" height="85.5771" filterUnits="userSpaceOnUse" color-interpolation-filters="sRGB">
<feFlood flood-opacity="0" result="BackgroundImageFix"/>
<feColorMatrix in="SourceAlpha" type="matrix" values="0 0 0 0 0 0 0 0 0 0 0 0 0 0 0 0 0 0 127 0"/>
<feOffset dx="7.13143" dy="7.13143"/>
<feGaussianBlur stdDeviation="9.50857"/>
<feColorMatrix type="matrix" values="0 0 0 0 0 0 0 0 0 0 0 0 0 0 0 0 0 0 0.2 0"/>
<feBlend mode="normal" in2="BackgroundImageFix" result="effect1_dropShadow"/>
<feColorMatrix in="SourceAlpha" type="matrix" values="0 0 0 0 0 0 0 0 0 0 0 0 0 0 0 0 0 0 127 0"/>
<feOffset dx="-7.13143" dy="-7.13143"/>
<feGaussianBlur stdDeviation="9.50857"/>
<feColorMatrix type="matrix" values="0 0 0 0 0.166528 0 0 0 0 0.190544 0 0 0 0 0.366667 0 0 0 0.3 0"/>
<feBlend mode="normal" in2="effect1_dropShadow" result="effect2_dropShadow"/>
<feColorMatrix in="SourceAlpha" type="matrix" values="0 0 0 0 0 0 0 0 0 0 0 0 0 0 0 0 0 0 127 0"/>
<feOffset dx="-3.56571" dy="-3.56571"/>
<feGaussianBlur stdDeviation="4.75429"/>
<feColorMatrix type="matrix" values="0 0 0 0 0.188472 0 0 0 0 0.211856 0 0 0 0 0.383333 0 0 0 0.3 0"/>
<feBlend mode="normal" in2="effect2_dropShadow" result="effect3_dropShadow"/>
<feColorMatrix in="SourceAlpha" type="matrix" values="0 0 0 0 0 0 0 0 0 0 0 0 0 0 0 0 0 0 127 0"/>
<feOffset dx="3.56571" dy="3.56571"/>
<feGaussianBlur stdDeviation="4.75429"/>
<feColorMatrix type="matrix" values="0 0 0 0 0 0 0 0 0 0 0 0 0 0 0 0 0 0 0.3 0"/>
<feBlend mode="normal" in2="effect3_dropShadow" result="effect4_dropShadow"/>
<feColorMatrix in="SourceAlpha" type="matrix" values="0 0 0 0 0 0 0 0 0 0 0 0 0 0 0 0 0 0 127 0"/>
<feOffset dx="-1.18857" dy="-1.18857"/>
<feGaussianBlur stdDeviation="2.37714"/>
<feColorMatrix type="matrix" values="0 0 0 0 0.20691 0 0 0 0 0.232581 0 0 0 0 0.420833 0 0 0 0.6 0"/>
<feBlend mode="normal" in2="effect4_dropShadow" result="effect5_dropShadow"/>
<feBlend mode="normal" in="SourceGraphic" in2="effect5_dropShadow" result="shape"/>
<feColorMatrix in="SourceAlpha" type="matrix" values="0 0 0 0 0 0 0 0 0 0 0 0 0 0 0 0 0 0 127 0" result="hardAlpha"/>
<feOffset dx="4.75429" dy="4.75429"/>
<feGaussianBlur stdDeviation="9.50857"/>
<feComposite in2="hardAlpha" operator="arithmetic" k2="-1" k3="1"/>
<feColorMatrix type="matrix" values="0 0 0 0 0.0941176 0 0 0 0 0.0980392 0 0 0 0 0.14902 0 0 0 0.6 0"/>
<feBlend mode="normal" in2="shape" result="effect6_innerShadow"/>
<feColorMatrix in="SourceAlpha" type="matrix" values="0 0 0 0 0 0 0 0 0 0 0 0 0 0 0 0 0 0 127 0" result="hardAlpha"/>
<feOffset dx="-9.50857" dy="-9.50857"/>
<feGaussianBlur stdDeviation="9.50857"/>
<feComposite in2="hardAlpha" operator="arithmetic" k2="-1" k3="1"/>
<feColorMatrix type="matrix" values="0 0 0 0 0.337255 0 0 0 0 0.384314 0 0 0 0 0.956863 0 0 0 0.1 0"/>
<feBlend mode="normal" in2="effect6_innerShadow" result="effect7_innerShadow"/>
</filter>
</defs>
</svg>
