<svg width="1440" height="2695" viewBox="0 0 1440 2695" fill="none" xmlns="http://www.w3.org/2000/svg">
<g filter="url(#filter0_d)">
<path fill-rule="evenodd" clip-rule="evenodd" d="M0 48.1919L80.4 35.5749C159.6 22.9579 320.4 -2.27608 480 48.1919C639.6 98.6599 800.4 224.83 960 250.064C1119.6 275.298 1280.4 199.596 1359.6 161.745L1440 123.894V351H1359.6C1280.4 351 1119.6 351 960 351C800.4 351 639.6 351 480 351C320.4 351 159.6 351 80.4 351H0V48.1919Z" fill="#4B5161"/>
</g>
<rect y="309" width="1440" height="1999" fill="#4B5161"/>
<path fill-rule="evenodd" clip-rule="evenodd" d="M1440 2695L1380 2637.37C1320 2579.74 1200 2464.48 1080 2442.87C960 2421.26 840 2493.3 720 2486.09C600 2478.89 480 2392.44 360 2363.63C240 2334.81 120 2363.63 60 2378.04L0 2392.44V2306H60C120 2306 240 2306 360 2306C480 2306 600 2306 720 2306C840 2306 960 2306 1080 2306C1200 2306 1320 2306 1380 2306H1440V2695Z" fill="#4B5161"/>
<defs>
<filter id="filter0_d" x="-13" y="0" width="1476" height="369" filterUnits="userSpaceOnUse" color-interpolation-filters="sRGB">
<feFlood flood-opacity="0" result="BackgroundImageFix"/>
<feColorMatrix in="SourceAlpha" type="matrix" values="0 0 0 0 0 0 0 0 0 0 0 0 0 0 0 0 0 0 127 0"/>
<feOffset dx="5"/>
<feGaussianBlur stdDeviation="9"/>
<feColorMatrix type="matrix" values="0 0 0 0 0 0 0 0 0 0 0 0 0 0 0 0 0 0 0.25 0"/>
<feBlend mode="normal" in2="BackgroundImageFix" result="effect1_dropShadow"/>
<feBlend mode="normal" in="SourceGraphic" in2="effect1_dropShadow" result="shape"/>
</filter>
</defs>
</svg>
