<svg width="280" height="98" viewBox="0 0 280 98" fill="none" xmlns="http://www.w3.org/2000/svg">
<g filter="url(#filter0_d)">
<rect x="18" y="14" width="244.102" height="62.769" rx="10.4615" fill="white"/>
</g>
<path d="M77.5991 62.4944C76.8773 62.4944 76.2287 62.3688 75.6533 62.1178C75.0884 61.8562 74.6438 61.5005 74.3195 61.0507C73.9952 60.5904 73.8278 60.0621 73.8173 59.4658H75.3395C75.3918 59.9784 75.601 60.4125 75.9671 60.7682C76.3438 61.1134 76.8878 61.2861 77.5991 61.2861C78.2791 61.2861 78.8127 61.1187 79.1997 60.7839C79.5973 60.4387 79.7961 59.9993 79.7961 59.4658C79.7961 59.0473 79.681 58.7073 79.4508 58.4458C79.2207 58.1842 78.933 57.9855 78.5878 57.8495C78.2425 57.7135 77.777 57.567 77.1911 57.4101C76.4693 57.2218 75.8887 57.0335 75.4493 56.8452C75.0204 56.6569 74.649 56.3639 74.3352 55.9664C74.0318 55.5584 73.8801 55.0144 73.8801 54.3344C73.8801 53.7381 74.0318 53.2098 74.3352 52.7495C74.6385 52.2892 75.0622 51.9335 75.6062 51.6824C76.1607 51.4313 76.7936 51.3058 77.505 51.3058C78.5302 51.3058 79.3671 51.5621 80.0157 52.0747C80.6748 52.5873 81.0462 53.2673 81.1299 54.1147H79.5607C79.5084 53.6962 79.2887 53.3301 78.9016 53.0163C78.5145 52.6919 78.0019 52.5298 77.3638 52.5298C76.7675 52.5298 76.281 52.6867 75.9044 53.0006C75.5278 53.3039 75.3395 53.7329 75.3395 54.2873C75.3395 54.6849 75.4493 55.0092 75.669 55.2602C75.8991 55.5113 76.1764 55.7049 76.5007 55.8409C76.8355 55.9664 77.301 56.1129 77.8973 56.2802C78.6191 56.479 79.1997 56.6778 79.6391 56.8765C80.0785 57.0649 80.4551 57.363 80.769 57.771C81.0828 58.1685 81.2397 58.7125 81.2397 59.403C81.2397 59.9365 81.0985 60.4387 80.8161 60.9095C80.5336 61.3802 80.1151 61.7621 79.5607 62.055C79.0062 62.3479 78.3524 62.4944 77.5991 62.4944ZM87.6094 53.6282C88.2581 53.6282 88.8439 53.7695 89.367 54.0519C89.8901 54.3239 90.298 54.7372 90.591 55.2916C90.8944 55.8461 91.046 56.5209 91.046 57.3159V62.3845H89.6337V57.5199C89.6337 56.6621 89.4193 56.0082 88.9904 55.5584C88.5614 55.0981 87.9756 54.8679 87.2328 54.8679C86.4796 54.8679 85.8781 55.1033 85.4282 55.5741C84.9888 56.0449 84.7691 56.7301 84.7691 57.6298V62.3845H83.3412V50.7723H84.7691V55.0092C85.0516 54.5698 85.4387 54.2298 85.9304 53.9892C86.4325 53.7486 86.9922 53.6282 87.6094 53.6282ZM97.1291 62.5258C96.3236 62.5258 95.5913 62.3427 94.9322 61.9765C94.2836 61.6104 93.771 61.0925 93.3944 60.423C93.0282 59.743 92.8451 58.9584 92.8451 58.0692C92.8451 57.1904 93.0334 56.4162 93.4101 55.7467C93.7971 55.0667 94.3202 54.5489 94.9793 54.1932C95.6384 53.827 96.3759 53.6439 97.1919 53.6439C98.0079 53.6439 98.7454 53.827 99.4045 54.1932C100.064 54.5489 100.581 55.0615 100.958 55.731C101.345 56.4005 101.539 57.1799 101.539 58.0692C101.539 58.9584 101.34 59.743 100.942 60.423C100.555 61.0925 100.027 61.6104 99.3574 61.9765C98.6879 62.3427 97.9451 62.5258 97.1291 62.5258ZM97.1291 61.2704C97.6417 61.2704 98.123 61.1501 98.5728 60.9095C99.0227 60.6688 99.3836 60.3079 99.6556 59.8267C99.938 59.3455 100.079 58.7596 100.079 58.0692C100.079 57.3787 99.9433 56.7929 99.6713 56.3116C99.3993 55.8304 99.0436 55.4747 98.6042 55.2446C98.1648 55.0039 97.6888 54.8836 97.1762 54.8836C96.6531 54.8836 96.1719 55.0039 95.7325 55.2446C95.3036 55.4747 94.9584 55.8304 94.6968 56.3116C94.4353 56.7929 94.3045 57.3787 94.3045 58.0692C94.3045 58.7701 94.4301 59.3611 94.6811 59.8424C94.9427 60.3236 95.2879 60.6845 95.7168 60.9251C96.1457 61.1553 96.6165 61.2704 97.1291 61.2704ZM111.043 53.7852V62.3845H109.615V61.1134C109.343 61.5528 108.961 61.8981 108.469 62.1491C107.988 62.3898 107.454 62.5101 106.868 62.5101C106.199 62.5101 105.597 62.3741 105.064 62.1021C104.53 61.8196 104.107 61.4011 103.793 60.8467C103.489 60.2922 103.338 59.6175 103.338 58.8224V53.7852H104.75V58.6341C104.75 59.4815 104.964 60.1353 105.393 60.5956C105.822 61.0454 106.408 61.2704 107.151 61.2704C107.915 61.2704 108.516 61.035 108.956 60.5642C109.395 60.0935 109.615 59.4082 109.615 58.5085V53.7852H111.043ZM116.498 62.5258C115.839 62.5258 115.248 62.4159 114.725 62.1962C114.202 61.9661 113.788 61.6522 113.485 61.2547C113.182 60.8467 113.014 60.3811 112.983 59.8581H114.458C114.5 60.287 114.699 60.6375 115.054 60.9095C115.42 61.1814 115.896 61.3174 116.482 61.3174C117.026 61.3174 117.455 61.1971 117.769 60.9565C118.083 60.7159 118.24 60.4125 118.24 60.0464C118.24 59.6698 118.072 59.3925 117.738 59.2147C117.403 59.0264 116.885 58.8433 116.184 58.6655C115.546 58.4981 115.023 58.3307 114.615 58.1633C114.217 57.9855 113.872 57.7292 113.579 57.3944C113.297 57.0492 113.156 56.5993 113.156 56.0449C113.156 55.6055 113.286 55.2027 113.548 54.8366C113.809 54.4704 114.181 54.1827 114.662 53.9735C115.143 53.7538 115.692 53.6439 116.31 53.6439C117.262 53.6439 118.031 53.8846 118.616 54.3658C119.202 54.847 119.516 55.5061 119.558 56.343H118.13C118.099 55.8932 117.916 55.5322 117.581 55.2602C117.256 54.9882 116.817 54.8522 116.263 54.8522C115.75 54.8522 115.342 54.9621 115.039 55.1818C114.735 55.4015 114.584 55.6892 114.584 56.0449C114.584 56.3273 114.672 56.5627 114.85 56.751C115.039 56.9289 115.269 57.0753 115.541 57.1904C115.823 57.295 116.21 57.4153 116.702 57.5513C117.319 57.7187 117.821 57.8861 118.208 58.0535C118.596 58.2104 118.925 58.451 119.197 58.7753C119.48 59.0996 119.626 59.5233 119.636 60.0464C119.636 60.5171 119.506 60.9408 119.244 61.3174C118.983 61.6941 118.611 61.9922 118.13 62.2119C117.659 62.4211 117.115 62.5258 116.498 62.5258ZM125.403 62.5258C124.597 62.5258 123.865 62.3427 123.206 61.9765C122.557 61.6104 122.045 61.0925 121.668 60.423C121.302 59.743 121.119 58.9584 121.119 58.0692C121.119 57.1904 121.307 56.4162 121.684 55.7467C122.071 55.0667 122.594 54.5489 123.253 54.1932C123.912 53.827 124.65 53.6439 125.466 53.6439C126.282 53.6439 127.019 53.827 127.678 54.1932C128.337 54.5489 128.855 55.0615 129.232 55.731C129.619 56.4005 129.812 57.1799 129.812 58.0692C129.812 58.9584 129.613 59.743 129.216 60.423C128.829 61.0925 128.301 61.6104 127.631 61.9765C126.962 62.3427 126.219 62.5258 125.403 62.5258ZM125.403 61.2704C125.915 61.2704 126.397 61.1501 126.846 60.9095C127.296 60.6688 127.657 60.3079 127.929 59.8267C128.212 59.3455 128.353 58.7596 128.353 58.0692C128.353 57.3787 128.217 56.7929 127.945 56.3116C127.673 55.8304 127.317 55.4747 126.878 55.2446C126.438 55.0039 125.962 54.8836 125.45 54.8836C124.927 54.8836 124.446 55.0039 124.006 55.2446C123.577 55.4747 123.232 55.8304 122.97 56.3116C122.709 56.7929 122.578 57.3787 122.578 58.0692C122.578 58.7701 122.704 59.3611 122.955 59.8424C123.216 60.3236 123.562 60.6845 123.99 60.9251C124.419 61.1553 124.89 61.2704 125.403 61.2704ZM135.88 53.6282C136.926 53.6282 137.773 53.9473 138.422 54.5855C139.07 55.2132 139.395 56.1233 139.395 57.3159V62.3845H137.982V57.5199C137.982 56.6621 137.768 56.0082 137.339 55.5584C136.91 55.0981 136.324 54.8679 135.581 54.8679C134.828 54.8679 134.227 55.1033 133.777 55.5741C133.338 56.0449 133.118 56.7301 133.118 57.6298V62.3845H131.69V53.7852H133.118V55.0092C133.4 54.5698 133.782 54.2298 134.263 53.9892C134.755 53.7486 135.294 53.6282 135.88 53.6282ZM154.338 51.447V62.3845H152.91V57.4258H147.339V62.3845H145.911V51.447H147.339V56.2489H152.91V51.447H154.338ZM157.513 52.3886C157.241 52.3886 157.011 52.2944 156.823 52.1061C156.635 51.9178 156.541 51.6876 156.541 51.4156C156.541 51.1436 156.635 50.9135 156.823 50.7252C157.011 50.5369 157.241 50.4427 157.513 50.4427C157.775 50.4427 157.995 50.5369 158.173 50.7252C158.361 50.9135 158.455 51.1436 158.455 51.4156C158.455 51.6876 158.361 51.9178 158.173 52.1061C157.995 52.2944 157.775 52.3886 157.513 52.3886ZM158.204 53.7852V62.3845H156.776V53.7852H158.204ZM162.066 50.7723V62.3845H160.638V50.7723H162.066ZM165.927 50.7723V62.3845H164.499V50.7723H165.927Z" fill="#767676"/>
<path d="M41.0321 45.7866C41.2522 46.74 40.2064 47.4645 39.3929 46.9559L36.6184 45.2222L33.1539 50.7664C32.2491 52.2141 33.2949 54.1025 35.0011 54.1025H38.542C38.9933 54.1025 39.3593 54.4685 39.3593 54.9198V57.6442C39.3593 58.0955 38.9933 58.4615 38.542 58.4615H35.0082C29.8773 58.4615 26.7464 52.8052 29.4636 48.4577L32.925 42.9144L30.1513 41.1812C29.3284 40.6672 29.5406 39.413 30.4836 39.1953L37.9917 37.4619C38.5781 37.3265 39.1632 37.6922 39.2986 38.2785L41.0321 45.7866V45.7866ZM47.745 33.3285L50.5571 37.8289L47.7824 39.5627C46.9616 40.0755 47.1694 41.3304 48.1147 41.5487L55.6228 43.282C56.2134 43.4182 56.7953 43.0479 56.9297 42.4654L58.6631 34.9573C58.8808 34.0144 57.8464 33.2737 57.0238 33.788L54.2527 35.5196L51.4423 31.0188C48.8868 26.9301 42.9145 26.9207 40.3531 31.0188L39.1297 32.9781C38.8906 33.3608 39.0071 33.8649 39.3899 34.1041L41.7 35.5477C42.0828 35.7869 42.5871 35.6705 42.8263 35.2877L44.0496 33.33C44.9154 31.9446 46.9083 31.9899 47.745 33.3285V33.3285ZM62.3315 48.4577L60.4575 45.4565C60.2184 45.0735 59.7141 44.9569 59.3312 45.1962L57.0249 46.6373C56.6422 46.8765 56.5257 47.3807 56.7649 47.7636L58.6422 50.768C59.5451 52.2126 58.5021 54.1026 56.794 54.1026H50.2567V50.8347C50.2567 49.8666 49.0824 49.3783 48.3964 50.0641L42.9477 55.5116C42.5221 55.9371 42.5221 56.6271 42.9477 57.0527L48.3964 62.5006C49.0777 63.182 50.2567 62.7047 50.2567 61.73V58.4615H56.787C61.9138 58.4615 65.0509 52.8087 62.3315 48.4577Z" fill="#10D4C2"/>
<path d="M79.8902 38.8464L77.2853 34.3741H75.5591V38.8464H74.1312V27.9089H77.6619C78.4884 27.9089 79.1841 28.0502 79.749 28.3326C80.3244 28.6151 80.7533 28.9969 81.0357 29.4782C81.3182 29.9594 81.4594 30.5086 81.4594 31.1259C81.4594 31.8791 81.2397 32.5434 80.8004 33.1188C80.3714 33.6941 79.7228 34.076 78.8545 34.2643L81.6007 38.8464H79.8902ZM75.5591 33.2286H77.6619C78.4361 33.2286 79.0167 33.0403 79.4037 32.6637C79.7908 32.2766 79.9844 31.764 79.9844 31.1259C79.9844 30.4772 79.7908 29.9751 79.4037 29.6194C79.0271 29.2637 78.4465 29.0859 77.6619 29.0859H75.5591V33.2286ZM91.5244 34.2172C91.5244 34.4892 91.5087 34.7769 91.4773 35.0803H84.6041C84.6564 35.9277 84.9441 36.592 85.4672 37.0732C86.0007 37.544 86.6441 37.7794 87.3974 37.7794C88.0146 37.7794 88.5272 37.6381 88.9352 37.3557C89.3537 37.0628 89.6466 36.6757 89.814 36.1944H91.3518C91.1216 37.0209 90.6613 37.6957 89.9709 38.2187C89.2804 38.7314 88.4226 38.9877 87.3974 38.9877C86.5814 38.9877 85.8491 38.8046 85.2004 38.4384C84.5623 38.0723 84.0601 37.5544 83.694 36.8849C83.3278 36.2049 83.1448 35.4203 83.1448 34.5311C83.1448 33.6418 83.3226 32.8625 83.6783 32.1929C84.034 31.5234 84.5309 31.0108 85.1691 30.6551C85.8177 30.2889 86.5604 30.1059 87.3974 30.1059C88.2134 30.1059 88.9352 30.2837 89.5629 30.6394C90.1906 30.9951 90.6718 31.4868 91.0066 32.1145C91.3518 32.7317 91.5244 33.4326 91.5244 34.2172ZM90.0493 33.9191C90.0493 33.3751 89.929 32.9095 89.6884 32.5225C89.4478 32.1249 89.1183 31.8268 88.6998 31.628C88.2918 31.4188 87.8367 31.3142 87.3346 31.3142C86.6127 31.3142 85.9955 31.5443 85.4829 32.0046C84.9807 32.4649 84.6931 33.1031 84.6198 33.9191H90.0493ZM92.8758 34.5311C92.8758 33.6418 93.0536 32.8677 93.4093 32.2086C93.765 31.5391 94.2567 31.0212 94.8844 30.6551C95.5225 30.2889 96.2496 30.1059 97.0656 30.1059C98.1222 30.1059 98.9905 30.3622 99.6705 30.8748C100.361 31.3874 100.816 32.0988 101.036 33.0089H99.4979C99.3515 32.4858 99.0638 32.0726 98.6348 31.7692C98.2164 31.4658 97.6933 31.3142 97.0656 31.3142C96.2496 31.3142 95.5905 31.5966 95.0884 32.1615C94.5862 32.716 94.3352 33.5058 94.3352 34.5311C94.3352 35.5668 94.5862 36.3671 95.0884 36.932C95.5905 37.4969 96.2496 37.7794 97.0656 37.7794C97.6933 37.7794 98.2164 37.6329 98.6348 37.34C99.0533 37.0471 99.341 36.6286 99.4979 36.0846H101.036C100.806 36.9634 100.345 37.6695 99.6548 38.2031C98.9644 38.7261 98.1013 38.9877 97.0656 38.9877C96.2496 38.9877 95.5225 38.8046 94.8844 38.4384C94.2567 38.0723 93.765 37.5544 93.4093 36.8849C93.0536 36.2154 92.8758 35.4308 92.8758 34.5311ZM110.348 30.2471L105.169 42.895H103.694L105.389 38.7523L101.921 30.2471H103.506L106.205 37.2144L108.873 30.2471H110.348ZM111.25 34.5311C111.25 33.6418 111.428 32.8677 111.783 32.2086C112.139 31.5391 112.631 31.0212 113.258 30.6551C113.897 30.2889 114.624 30.1059 115.44 30.1059C116.496 30.1059 117.365 30.3622 118.045 30.8748C118.735 31.3874 119.19 32.0988 119.41 33.0089H117.872C117.725 32.4858 117.438 32.0726 117.009 31.7692C116.59 31.4658 116.067 31.3142 115.44 31.3142C114.624 31.3142 113.965 31.5966 113.462 32.1615C112.96 32.716 112.709 33.5058 112.709 34.5311C112.709 35.5668 112.96 36.3671 113.462 36.932C113.965 37.4969 114.624 37.7794 115.44 37.7794C116.067 37.7794 116.59 37.6329 117.009 37.34C117.427 37.0471 117.715 36.6286 117.872 36.0846H119.41C119.18 36.9634 118.719 37.6695 118.029 38.2031C117.338 38.7261 116.475 38.9877 115.44 38.9877C114.624 38.9877 113.897 38.8046 113.258 38.4384C112.631 38.0723 112.139 37.5544 111.783 36.8849C111.428 36.2154 111.25 35.4308 111.25 34.5311ZM122.743 27.2342V38.8464H121.315V27.2342H122.743ZM125.914 28.8505C125.642 28.8505 125.412 28.7563 125.224 28.568C125.036 28.3797 124.942 28.1496 124.942 27.8776C124.942 27.6056 125.036 27.3754 125.224 27.1871C125.412 26.9988 125.642 26.9046 125.914 26.9046C126.176 26.9046 126.396 26.9988 126.574 27.1871C126.762 27.3754 126.856 27.6056 126.856 27.8776C126.856 28.1496 126.762 28.3797 126.574 28.568C126.396 28.7563 126.176 28.8505 125.914 28.8505ZM126.605 30.2471V38.8464H125.177V30.2471H126.605ZM133.229 30.0902C134.275 30.0902 135.122 30.4092 135.771 31.0474C136.419 31.6751 136.744 32.5852 136.744 33.7778V38.8464H135.331V33.9818C135.331 33.124 135.117 32.4702 134.688 32.0203C134.259 31.56 133.673 31.3298 132.93 31.3298C132.177 31.3298 131.576 31.5652 131.126 32.036C130.686 32.5068 130.467 33.192 130.467 34.0917V38.8464H129.039V30.2471H130.467V31.4711C130.749 31.0317 131.131 30.6917 131.612 30.4511C132.104 30.2105 132.643 30.0902 133.229 30.0902ZM142.623 30.1059C143.365 30.1059 144.014 30.268 144.568 30.5923C145.133 30.9166 145.552 31.3246 145.824 31.8163V30.2471H147.268V39.0347C147.268 39.8194 147.1 40.515 146.765 41.1218C146.431 41.739 145.949 42.2203 145.322 42.5655C144.704 42.9107 143.983 43.0833 143.156 43.0833C142.026 43.0833 141.085 42.8166 140.332 42.283C139.578 41.7495 139.134 41.0224 138.998 40.1018H140.41C140.567 40.6249 140.891 41.0433 141.383 41.3572C141.875 41.6815 142.466 41.8437 143.156 41.8437C143.941 41.8437 144.579 41.5978 145.071 41.1061C145.573 40.6144 145.824 39.924 145.824 39.0347V37.2301C145.541 37.7323 145.123 38.1507 144.568 38.4855C144.014 38.8203 143.365 38.9877 142.623 38.9877C141.859 38.9877 141.163 38.7994 140.536 38.4227C139.918 38.0461 139.432 37.5178 139.076 36.8378C138.721 36.1578 138.543 35.3837 138.543 34.5154C138.543 33.6366 138.721 32.8677 139.076 32.2086C139.432 31.5391 139.918 31.0212 140.536 30.6551C141.163 30.2889 141.859 30.1059 142.623 30.1059ZM145.824 34.5311C145.824 33.8825 145.693 33.3175 145.432 32.8363C145.17 32.3551 144.814 31.9889 144.364 31.7378C143.925 31.4763 143.439 31.3455 142.905 31.3455C142.372 31.3455 141.885 31.4711 141.446 31.7222C141.006 31.9732 140.656 32.3394 140.394 32.8206C140.133 33.3018 140.002 33.8668 140.002 34.5154C140.002 35.1745 140.133 35.7498 140.394 36.2415C140.656 36.7228 141.006 37.0941 141.446 37.3557C141.885 37.6067 142.372 37.7323 142.905 37.7323C143.439 37.7323 143.925 37.6067 144.364 37.3557C144.814 37.0941 145.17 36.7228 145.432 36.2415C145.693 35.7498 145.824 35.1797 145.824 34.5311ZM155.292 29.0702V32.7265H159.278V33.9034H155.292V37.6695H159.749V38.8464H153.864V27.8932H159.749V29.0702H155.292ZM165.111 37.5283L167.779 30.2471H169.301L165.927 38.8464H164.263L160.89 30.2471H162.427L165.111 37.5283ZM178.552 34.2172C178.552 34.4892 178.536 34.7769 178.505 35.0803H171.632C171.684 35.9277 171.972 36.592 172.495 37.0732C173.028 37.544 173.672 37.7794 174.425 37.7794C175.042 37.7794 175.555 37.6381 175.963 37.3557C176.381 37.0628 176.674 36.6757 176.842 36.1944H178.379C178.149 37.0209 177.689 37.6957 176.998 38.2187C176.308 38.7314 175.45 38.9877 174.425 38.9877C173.609 38.9877 172.877 38.8046 172.228 38.4384C171.59 38.0723 171.088 37.5544 170.722 36.8849C170.355 36.2049 170.172 35.4203 170.172 34.5311C170.172 33.6418 170.35 32.8625 170.706 32.1929C171.062 31.5234 171.558 31.0108 172.197 30.6551C172.845 30.2889 173.588 30.1059 174.425 30.1059C175.241 30.1059 175.963 30.2837 176.59 30.6394C177.218 30.9951 177.699 31.4868 178.034 32.1145C178.379 32.7317 178.552 33.4326 178.552 34.2172ZM177.077 33.9191C177.077 33.3751 176.957 32.9095 176.716 32.5225C176.475 32.1249 176.146 31.8268 175.727 31.628C175.319 31.4188 174.864 31.3142 174.362 31.3142C173.64 31.3142 173.023 31.5443 172.51 32.0046C172.008 32.4649 171.721 33.1031 171.647 33.9191H177.077ZM184.627 30.0902C185.673 30.0902 186.52 30.4092 187.169 31.0474C187.818 31.6751 188.142 32.5852 188.142 33.7778V38.8464H186.73V33.9818C186.73 33.124 186.515 32.4702 186.086 32.0203C185.657 31.56 185.071 31.3298 184.329 31.3298C183.575 31.3298 182.974 31.5652 182.524 32.036C182.085 32.5068 181.865 33.192 181.865 34.0917V38.8464H180.437V30.2471H181.865V31.4711C182.147 31.0317 182.529 30.6917 183.01 30.4511C183.502 30.2105 184.041 30.0902 184.627 30.0902ZM192.216 31.424V36.4926C192.216 36.9111 192.305 37.2092 192.483 37.3871C192.661 37.5544 192.97 37.6381 193.409 37.6381H194.46V38.8464H193.174C192.378 38.8464 191.782 38.6634 191.385 38.2972C190.987 37.9311 190.788 37.3295 190.788 36.4926V31.424H189.674V30.2471H190.788V28.0816H192.216V30.2471H194.46V31.424H192.216Z" fill="#232323"/>
<path d="M204.563 14H251.64C257.418 14 262.102 18.6838 262.102 24.4615V66.3075C262.102 72.0852 257.418 76.769 251.64 76.769H204.563V14Z" fill="#10D4C2"/>
<path d="M213.769 32.753V31.9108L218.053 25.9792H219.384V31.7888H220.604V32.753H219.384V34.718H218.285V32.753H213.769ZM218.334 27.1387L215.051 31.7888H218.334V27.1387ZM222.495 34.7912C222.283 34.7912 222.104 34.718 221.958 34.5716C221.811 34.4251 221.738 34.2461 221.738 34.0345C221.738 33.823 221.811 33.644 221.958 33.4975C222.104 33.351 222.283 33.2778 222.495 33.2778C222.698 33.2778 222.869 33.351 223.008 33.4975C223.154 33.644 223.227 33.823 223.227 34.0345C223.227 34.2461 223.154 34.4251 223.008 34.5716C222.869 34.718 222.698 34.7912 222.495 34.7912ZM222.495 29.5675C222.283 29.5675 222.104 29.4942 221.958 29.3478C221.811 29.2013 221.738 29.0223 221.738 28.8108C221.738 28.5992 221.811 28.4202 221.958 28.2737C222.104 28.1273 222.283 28.054 222.495 28.054C222.698 28.054 222.869 28.1273 223.008 28.2737C223.154 28.4202 223.227 28.5992 223.227 28.8108C223.227 29.0223 223.154 29.2013 223.008 29.3478C222.869 29.4942 222.698 29.5675 222.495 29.5675ZM224.776 28.1151C224.833 27.3665 225.122 26.7806 225.643 26.3575C226.163 25.9344 226.839 25.7229 227.669 25.7229C228.222 25.7229 228.698 25.8246 229.097 26.028C229.503 26.2233 229.809 26.4918 230.012 26.8335C230.223 27.1753 230.329 27.5618 230.329 27.993C230.329 28.4975 230.183 28.9328 229.89 29.299C229.605 29.6651 229.231 29.9011 228.767 30.0069V30.0679C229.296 30.1981 229.715 30.4544 230.024 30.8368C230.333 31.2192 230.488 31.7196 230.488 32.338C230.488 32.8018 230.382 33.2209 230.171 33.5952C229.959 33.9613 229.642 34.2502 229.219 34.4617C228.795 34.6733 228.287 34.779 227.693 34.779C226.83 34.779 226.123 34.5553 225.569 34.1078C225.016 33.6521 224.707 33.0093 224.642 32.1794H225.716C225.773 32.6676 225.972 33.0663 226.314 33.3755C226.656 33.6847 227.111 33.8393 227.681 33.8393C228.25 33.8393 228.682 33.6928 228.975 33.3999C229.276 33.0988 229.426 32.7123 229.426 32.2404C229.426 31.6301 229.223 31.1907 228.816 30.9222C228.409 30.6537 227.795 30.5195 226.973 30.5195H226.692V29.5919H226.985C227.734 29.5837 228.299 29.4617 228.682 29.2257C229.064 28.9816 229.255 28.6073 229.255 28.1029C229.255 27.6716 229.113 27.3258 228.828 27.0654C228.551 26.8051 228.153 26.6749 227.632 26.6749C227.127 26.6749 226.721 26.8051 226.411 27.0654C226.102 27.3258 225.919 27.6757 225.862 28.1151H224.776ZM237.663 26.7603L234.27 34.718H233.147L236.589 26.8702H231.878V25.9182H237.663V26.7603ZM239.675 34.7912C239.464 34.7912 239.285 34.718 239.138 34.5716C238.992 34.4251 238.919 34.2461 238.919 34.0345C238.919 33.823 238.992 33.644 239.138 33.4975C239.285 33.351 239.464 33.2778 239.675 33.2778C239.879 33.2778 240.05 33.351 240.188 33.4975C240.335 33.644 240.408 33.823 240.408 34.0345C240.408 34.2461 240.335 34.4251 240.188 34.5716C240.05 34.718 239.879 34.7912 239.675 34.7912ZM239.675 29.5675C239.464 29.5675 239.285 29.4942 239.138 29.3478C238.992 29.2013 238.919 29.0223 238.919 28.8108C238.919 28.5992 238.992 28.4202 239.138 28.2737C239.285 28.1273 239.464 28.054 239.675 28.054C239.879 28.054 240.05 28.1273 240.188 28.2737C240.335 28.4202 240.408 28.5992 240.408 28.8108C240.408 29.0223 240.335 29.2013 240.188 29.3478C240.05 29.4942 239.879 29.5675 239.675 29.5675ZM241.688 26.9068V25.8937H243.983V34.718H242.86V26.9068H241.688ZM246 33.827C247.034 32.9971 247.843 32.3177 248.429 31.7888C249.015 31.2518 249.507 30.6944 249.906 30.1167C250.313 29.5309 250.516 28.9572 250.516 28.3958C250.516 27.8669 250.386 27.4519 250.126 27.1509C249.873 26.8417 249.462 26.6871 248.893 26.6871C248.34 26.6871 247.908 26.862 247.599 27.2119C247.298 27.5536 247.135 28.0134 247.111 28.5911H246.037C246.069 27.6798 246.346 26.9759 246.867 26.4796C247.388 25.9832 248.059 25.7351 248.881 25.7351C249.719 25.7351 250.382 25.967 250.87 26.4308C251.366 26.8946 251.615 27.5333 251.615 28.347C251.615 29.0223 251.411 29.6814 251.004 30.3242C250.606 30.9589 250.15 31.5203 249.637 32.0085C249.125 32.4886 248.47 33.05 247.672 33.6928H251.871V34.6204H246V33.827Z" fill="white"/>
<path d="M233.333 41.8972C225.152 41.8972 218.512 48.5368 218.512 56.7177C218.512 64.8986 225.152 71.5381 233.333 71.5381C241.514 71.5381 248.153 64.8986 248.153 56.7177C248.153 48.5368 241.514 41.8972 233.333 41.8972ZM240.743 58.1997H234.815V64.1279H231.851V58.1997H225.922V55.2356H231.851V49.3074H234.815V55.2356H240.743V58.1997Z" fill="white"/>
<defs>
<filter id="filter0_d" x="0.564173" y="0.0513382" width="278.973" height="97.6406" filterUnits="userSpaceOnUse" color-interpolation-filters="sRGB">
<feFlood flood-opacity="0" result="BackgroundImageFix"/>
<feColorMatrix in="SourceAlpha" type="matrix" values="0 0 0 0 0 0 0 0 0 0 0 0 0 0 0 0 0 0 127 0"/>
<feOffset dy="3.48717"/>
<feGaussianBlur stdDeviation="8.71791"/>
<feColorMatrix type="matrix" values="0 0 0 0 0 0 0 0 0 0 0 0 0 0 0 0 0 0 0.15 0"/>
<feBlend mode="normal" in2="BackgroundImageFix" result="effect1_dropShadow"/>
<feBlend mode="normal" in="SourceGraphic" in2="effect1_dropShadow" result="shape"/>
</filter>
</defs>
</svg>
