<svg width="270" height="67" viewBox="0 0 270 67" fill="none" xmlns="http://www.w3.org/2000/svg">
<g filter="url(#filter0_d)">
<rect x="13" y="7" width="244.102" height="41.846" rx="5.23075" fill="url(#paint0_linear)"/>
</g>
<path d="M63.0411 21.76V24.1488H58.0544V26.7293H61.7857V29.0482H58.0544V34H55.0729V21.76H63.0411ZM68.3743 21.76V34H65.3928V21.76H68.3743ZM82.2693 34H79.2877L74.3011 26.4503V34H71.3196V21.76H74.3011L79.2877 29.3446V21.76H82.2693V34ZM89.8007 21.76C91.091 21.76 92.2185 22.0158 93.1833 22.5272C94.1481 23.0387 94.892 23.7594 95.4151 24.6893C95.9498 25.6076 96.2171 26.6711 96.2171 27.88C96.2171 29.0773 95.9498 30.1409 95.4151 31.0708C94.892 32.0007 94.1423 32.7214 93.1658 33.2328C92.2011 33.7443 91.0794 34 89.8007 34H85.2151V21.76H89.8007ZM89.6089 31.4195C90.7365 31.4195 91.6141 31.1115 92.2417 30.4954C92.8694 29.8793 93.1833 29.0075 93.1833 27.88C93.1833 26.7525 92.8694 25.8749 92.2417 25.2472C91.6141 24.6195 90.7365 24.3057 89.6089 24.3057H88.1966V31.4195H89.6089ZM117.009 21.76V34H114.027V26.6595L111.29 34H108.884L106.129 26.6421V34H103.147V21.76H106.669L110.104 30.2339L113.504 21.76H117.009ZM125.726 34.1221C124.576 34.1221 123.518 33.8547 122.553 33.32C121.6 32.7853 120.838 32.0414 120.269 31.0882C119.711 30.1234 119.432 29.0424 119.432 27.8452C119.432 26.6479 119.711 25.5727 120.269 24.6195C120.838 23.6664 121.6 22.9224 122.553 22.3877C123.518 21.853 124.576 21.5857 125.726 21.5857C126.877 21.5857 127.929 21.853 128.882 22.3877C129.847 22.9224 130.603 23.6664 131.149 24.6195C131.707 25.5727 131.986 26.6479 131.986 27.8452C131.986 29.0424 131.707 30.1234 131.149 31.0882C130.591 32.0414 129.835 32.7853 128.882 33.32C127.929 33.8547 126.877 34.1221 125.726 34.1221ZM125.726 31.4021C126.703 31.4021 127.482 31.0766 128.063 30.4257C128.656 29.7747 128.952 28.9146 128.952 27.8452C128.952 26.7641 128.656 25.904 128.063 25.2646C127.482 24.6137 126.703 24.2882 125.726 24.2882C124.738 24.2882 123.948 24.6079 123.355 25.2472C122.774 25.8865 122.483 26.7525 122.483 27.8452C122.483 28.9262 122.774 29.7922 123.355 30.4431C123.948 31.0824 124.738 31.4021 125.726 31.4021ZM140.671 34L138.125 29.3795H137.411V34H134.429V21.76H139.433C140.398 21.76 141.217 21.9286 141.892 22.2657C142.577 22.6028 143.089 23.0677 143.426 23.6606C143.763 24.2417 143.932 24.8927 143.932 25.6134C143.932 26.427 143.699 27.1535 143.234 27.7928C142.781 28.4322 142.107 28.8855 141.212 29.1528L144.036 34H140.671ZM137.411 27.2698H139.259C139.805 27.2698 140.212 27.1361 140.479 26.8687C140.758 26.6014 140.898 26.2236 140.898 25.7354C140.898 25.2705 140.758 24.9043 140.479 24.637C140.212 24.3696 139.805 24.2359 139.259 24.2359H137.411V27.2698ZM149.569 24.1488V26.6246H153.562V28.9262H149.569V31.6113H154.085V34H146.588V21.76H154.085V24.1488H149.569ZM167.527 34L164.981 29.3795H164.267V34H161.285V21.76H166.289C167.254 21.76 168.073 21.9286 168.748 22.2657C169.433 22.6028 169.945 23.0677 170.282 23.6606C170.619 24.2417 170.788 24.8927 170.788 25.6134C170.788 26.427 170.555 27.1535 170.09 27.7928C169.637 28.4322 168.963 28.8855 168.068 29.1528L170.892 34H167.527ZM164.267 27.2698H166.115C166.661 27.2698 167.068 27.1361 167.335 26.8687C167.614 26.6014 167.754 26.2236 167.754 25.7354C167.754 25.2705 167.614 24.9043 167.335 24.637C167.068 24.3696 166.661 24.2359 166.115 24.2359H164.267V27.2698ZM181.063 31.838H176.495L175.763 34H172.642L177.07 21.76H180.523L184.951 34H181.796L181.063 31.838ZM180.296 29.5364L178.779 25.0554L177.28 29.5364H180.296ZM190.065 21.76V34H187.084V21.76H190.065ZM197.596 21.76C198.887 21.76 200.014 22.0158 200.979 22.5272C201.944 23.0387 202.688 23.7594 203.211 24.6893C203.745 25.6076 204.013 26.6711 204.013 27.88C204.013 29.0773 203.745 30.1409 203.211 31.0708C202.688 32.0007 201.938 32.7214 200.961 33.2328C199.997 33.7443 198.875 34 197.596 34H193.011V21.76H197.596ZM197.405 31.4195C198.532 31.4195 199.41 31.1115 200.037 30.4954C200.665 29.8793 200.979 29.0075 200.979 27.88C200.979 26.7525 200.665 25.8749 200.037 25.2472C199.41 24.6195 198.532 24.3057 197.405 24.3057H195.992V31.4195H197.405ZM210.892 34.1221C209.997 34.1221 209.195 33.9768 208.486 33.6862C207.777 33.3956 207.208 32.9655 206.777 32.3959C206.359 31.8263 206.138 31.1405 206.115 30.3385H209.288C209.335 30.7918 209.492 31.1405 209.759 31.3846C210.026 31.6171 210.375 31.7333 210.805 31.7333C211.247 31.7333 211.596 31.6345 211.851 31.4369C212.107 31.2277 212.235 30.9429 212.235 30.5826C212.235 30.2804 212.13 30.0304 211.921 29.8328C211.723 29.6352 211.473 29.4725 211.171 29.3446C210.881 29.2168 210.462 29.0715 209.916 28.9087C209.125 28.6646 208.48 28.4205 207.98 28.1764C207.481 27.9323 207.051 27.572 206.69 27.0954C206.33 26.6188 206.15 25.997 206.15 25.2298C206.15 24.0906 206.562 23.2014 207.388 22.5621C208.213 21.9112 209.288 21.5857 210.613 21.5857C211.962 21.5857 213.049 21.9112 213.874 22.5621C214.699 23.2014 215.141 24.0964 215.199 25.2472H211.973C211.95 24.852 211.805 24.544 211.537 24.3231C211.27 24.0906 210.927 23.9744 210.509 23.9744C210.148 23.9744 209.858 24.0732 209.637 24.2708C209.416 24.4568 209.306 24.73 209.306 25.0903C209.306 25.4855 209.492 25.7935 209.864 26.0144C210.236 26.2352 210.817 26.4735 211.607 26.7293C212.398 26.9966 213.037 27.2523 213.525 27.4964C214.025 27.7405 214.455 28.0951 214.815 28.56C215.176 29.025 215.356 29.6236 215.356 30.3559C215.356 31.0533 215.176 31.6868 214.815 32.2564C214.467 32.826 213.955 33.2793 213.281 33.6164C212.607 33.9535 211.811 34.1221 210.892 34.1221Z" fill="white"/>
<defs>
<filter id="filter0_d" x="0.794922" y="0.0256696" width="268.512" height="66.2561" filterUnits="userSpaceOnUse" color-interpolation-filters="sRGB">
<feFlood flood-opacity="0" result="BackgroundImageFix"/>
<feColorMatrix in="SourceAlpha" type="matrix" values="0 0 0 0 0 0 0 0 0 0 0 0 0 0 0 0 0 0 127 0"/>
<feOffset dy="5.23075"/>
<feGaussianBlur stdDeviation="6.10254"/>
<feColorMatrix type="matrix" values="0 0 0 0 0.0627451 0 0 0 0 0.831373 0 0 0 0 0.760784 0 0 0 0.35 0"/>
<feBlend mode="normal" in2="BackgroundImageFix" result="effect1_dropShadow"/>
<feBlend mode="normal" in="SourceGraphic" in2="effect1_dropShadow" result="shape"/>
</filter>
<linearGradient id="paint0_linear" x1="257.102" y1="25.2329" x2="13" y2="25.2329" gradientUnits="userSpaceOnUse">
<stop stop-color="#10D4C2"/>
<stop offset="1" stop-color="#77F8C8"/>
</linearGradient>
</defs>
</svg>
