<svg width="184" height="33" viewBox="0 0 184 33" fill="none" xmlns="http://www.w3.org/2000/svg">
<path d="M6.456 19.776H13.624V24H0.984V1.536H6.456V19.776ZM33.866 6.144V24H28.394V21.568C27.8393 22.3573 27.082 22.9973 26.122 23.488C25.1833 23.9573 24.138 24.192 22.986 24.192C21.6207 24.192 20.4153 23.8933 19.37 23.296C18.3247 22.6773 17.514 21.792 16.938 20.64C16.362 19.488 16.074 18.1333 16.074 16.576V6.144H21.514V15.84C21.514 17.0347 21.8233 17.9627 22.442 18.624C23.0607 19.2853 23.8927 19.616 24.938 19.616C26.0047 19.616 26.8473 19.2853 27.466 18.624C28.0847 17.9627 28.394 17.0347 28.394 15.84V6.144H33.866ZM36.7085 15.072C36.7085 13.216 37.0818 11.5947 37.8285 10.208C38.5965 8.82133 39.6525 7.75467 40.9965 7.008C42.3618 6.26133 43.9192 5.888 45.6685 5.888C47.9085 5.888 49.7752 6.47467 51.2685 7.648C52.7832 8.82133 53.7752 10.4747 54.2445 12.608H48.4205C47.9298 11.2427 46.9805 10.56 45.5725 10.56C44.5698 10.56 43.7698 10.9547 43.1725 11.744C42.5752 12.512 42.2765 13.6213 42.2765 15.072C42.2765 16.5227 42.5752 17.6427 43.1725 18.432C43.7698 19.2 44.5698 19.584 45.5725 19.584C46.9805 19.584 47.9298 18.9013 48.4205 17.536H54.2445C53.7752 19.6267 52.7832 21.2693 51.2685 22.464C49.7538 23.6587 47.8872 24.256 45.6685 24.256C43.9192 24.256 42.3618 23.8827 40.9965 23.136C39.6525 22.3893 38.5965 21.3227 37.8285 19.936C37.0818 18.5493 36.7085 16.928 36.7085 15.072ZM68.0835 24L62.6435 16.512V24H57.1715V0.32H62.6435V13.408L68.0515 6.144H74.8035L67.3795 15.104L74.8675 24H68.0835ZM95.1928 6.144L83.9928 32.48H78.1048L82.2008 23.392L74.9367 6.144H81.0488L85.1768 17.312L89.2728 6.144H95.1928ZM121.073 8.768C121.073 10.0693 120.774 11.264 120.177 12.352C119.579 13.4187 118.662 14.2827 117.425 14.944C116.187 15.6053 114.651 15.936 112.817 15.936H109.425V24H103.953V1.536H112.817C114.609 1.536 116.123 1.84533 117.361 2.464C118.598 3.08267 119.526 3.936 120.145 5.024C120.763 6.112 121.073 7.36 121.073 8.768ZM112.401 11.584C113.446 11.584 114.225 11.3387 114.737 10.848C115.249 10.3573 115.505 9.664 115.505 8.768C115.505 7.872 115.249 7.17867 114.737 6.688C114.225 6.19733 113.446 5.952 112.401 5.952H109.425V11.584H112.401ZM140.753 14.784C140.753 15.296 140.722 15.8293 140.658 16.384H128.274C128.359 17.4933 128.711 18.3467 129.33 18.944C129.97 19.52 130.748 19.808 131.666 19.808C133.031 19.808 133.98 19.232 134.514 18.08H140.338C140.039 19.2533 139.495 20.3093 138.706 21.248C137.938 22.1867 136.967 22.9227 135.794 23.456C134.62 23.9893 133.308 24.256 131.858 24.256C130.108 24.256 128.551 23.8827 127.186 23.136C125.82 22.3893 124.754 21.3227 123.986 19.936C123.218 18.5493 122.834 16.928 122.834 15.072C122.834 13.216 123.207 11.5947 123.954 10.208C124.722 8.82133 125.788 7.75467 127.154 7.008C128.519 6.26133 130.087 5.888 131.858 5.888C133.586 5.888 135.122 6.25067 136.466 6.976C137.81 7.70133 138.855 8.736 139.602 10.08C140.37 11.424 140.753 12.992 140.753 14.784ZM135.154 13.344C135.154 12.4053 134.834 11.6587 134.194 11.104C133.554 10.5493 132.754 10.272 131.794 10.272C130.876 10.272 130.098 10.5387 129.458 11.072C128.839 11.6053 128.455 12.3627 128.306 13.344H135.154ZM142.552 15.04C142.552 13.2053 142.894 11.5947 143.576 10.208C144.28 8.82133 145.23 7.75467 146.424 7.008C147.619 6.26133 148.952 5.888 150.424 5.888C151.683 5.888 152.782 6.144 153.72 6.656C154.68 7.168 155.416 7.84 155.928 8.672V6.144H161.4V24H155.928V21.472C155.395 22.304 154.648 22.976 153.688 23.488C152.75 24 151.651 24.256 150.392 24.256C148.942 24.256 147.619 23.8827 146.424 23.136C145.23 22.368 144.28 21.2907 143.576 19.904C142.894 18.496 142.552 16.8747 142.552 15.04ZM155.928 15.072C155.928 13.7067 155.544 12.6293 154.776 11.84C154.03 11.0507 153.112 10.656 152.024 10.656C150.936 10.656 150.008 11.0507 149.24 11.84C148.494 12.608 148.12 13.6747 148.12 15.04C148.12 16.4053 148.494 17.4933 149.24 18.304C150.008 19.0933 150.936 19.488 152.024 19.488C153.112 19.488 154.03 19.0933 154.776 18.304C155.544 17.5147 155.928 16.4373 155.928 15.072ZM176.271 24L170.831 16.512V24H165.359V0.32H170.831V13.408L176.239 6.144H182.991L175.567 15.104L183.055 24H176.271Z" fill="#6037A0"/>
</svg>
