<svg width="69" height="38" viewBox="0 0 69 38" fill="none" xmlns="http://www.w3.org/2000/svg">
<path d="M68.5528 18.8236V27.8943H62.4971H62.3031V28.0883C62.3031 30.4933 61.3364 32.8002 59.615 34.5015C57.8935 36.2028 55.5581 37.159 53.1225 37.159C50.6869 37.159 48.3516 36.2028 46.63 34.5015C44.9086 32.8002 43.9419 30.4933 43.9419 28.0883V27.8943H43.748H24.9988H24.8049V28.0883C24.8049 30.4933 23.8382 32.8002 22.1167 34.5015C20.3952 36.2028 18.0598 37.159 15.6243 37.159C13.1887 37.159 10.8533 36.2028 9.1318 34.5015C7.41035 32.8002 6.44367 30.4933 6.44367 28.0883V27.8943H6.24971H0.193966V18.8945L15.7144 0.488155H46.7765L56.0929 12.7644L56.1511 12.8411H56.2474H62.4971C65.8607 12.8411 68.5528 15.5049 68.5528 18.8236ZM17.1867 4.73258H17.0942L17.0359 4.8045L10.7862 12.5251L10.5304 12.8411H10.937H29.6861H29.8801V12.6471V4.92654V4.73258H29.6861H17.1867ZM34.3734 4.73258H34.1794V4.92654V12.6471V12.8411H34.3734H51.4351H51.8366L51.5871 12.5266L45.4623 4.806L45.4041 4.73258H45.3104H34.3734ZM19.075 24.6748C18.1594 23.7699 16.9181 23.262 15.6243 23.262C14.3304 23.262 13.0891 23.7699 12.1735 24.6748C11.2579 25.5797 10.743 26.8075 10.743 28.0883C10.743 29.3691 11.2579 30.5969 12.1735 31.5018C13.0891 32.4067 14.3304 32.9146 15.6243 32.9146C16.9181 32.9146 18.1594 32.4067 19.075 31.5018C19.9907 30.5969 20.5055 29.3691 20.5055 28.0883C20.5055 26.8075 19.9907 25.5797 19.075 24.6748ZM56.5733 24.6748C55.6577 23.7699 54.4164 23.262 53.1225 23.262C51.8287 23.262 50.5874 23.7699 49.6718 24.6748C48.7561 25.5797 48.2413 26.8075 48.2413 28.0883C48.2413 29.3691 48.7561 30.5969 49.6718 31.5018C50.5874 32.4067 51.8287 32.9146 53.1225 32.9146C54.4164 32.9146 55.6577 32.4067 56.5733 31.5018C57.4889 30.5969 58.0038 29.3691 58.0038 28.0883C58.0038 26.8075 57.4889 25.5797 56.5733 24.6748Z" fill="#FFFCFA" stroke="#FFFCFA" stroke-width="0.387931"/>
</svg>
