<svg width="114" height="101" viewBox="0 0 114 101" fill="none" xmlns="http://www.w3.org/2000/svg">
<rect width="114" height="100.971" rx="5.21143" fill="#262A45"/>
<g clip-path="url(#clip0)">
<path d="M14.5427 25.504H15.314V32.133H19.3997V32.8H14.5427V25.504ZM22.2537 27.2759C22.9694 27.2759 23.5184 27.4566 23.9006 27.8179C24.2827 28.1723 24.4738 28.7004 24.4738 29.4022V32.8H23.7651V31.9454C23.5983 32.2303 23.3516 32.4526 23.025 32.6124C22.7054 32.7723 22.3232 32.8522 21.8785 32.8522C21.267 32.8522 20.7806 32.7062 20.4193 32.4144C20.058 32.1226 19.8773 31.7369 19.8773 31.2575C19.8773 30.7919 20.0441 30.4167 20.3776 30.1318C20.7181 29.8469 21.2566 29.7045 21.9932 29.7045H23.7338V29.3709C23.7338 28.8984 23.6018 28.5406 23.3377 28.2974C23.0737 28.0472 22.688 27.9222 22.1808 27.9222C21.8334 27.9222 21.4998 27.9812 21.1802 28.0993C20.8606 28.2105 20.5861 28.3669 20.3568 28.5684L20.0232 28.016C20.3012 27.7797 20.6347 27.599 21.0238 27.474C21.413 27.3419 21.8229 27.2759 22.2537 27.2759ZM21.9932 32.2685C22.4101 32.2685 22.7679 32.1747 23.0667 31.9871C23.3655 31.7925 23.5879 31.5146 23.7338 31.1532V30.2569H22.014C21.076 30.2569 20.6069 30.5835 20.6069 31.2366C20.6069 31.5563 20.7285 31.8099 20.9717 31.9975C21.2149 32.1782 21.5554 32.2685 21.9932 32.2685ZM27.745 32.8522C27.3002 32.8522 26.8729 32.7896 26.4629 32.6646C26.0599 32.5325 25.7438 32.3692 25.5145 32.1747L25.848 31.591C26.0773 31.7717 26.3657 31.9211 26.7131 32.0392C27.0605 32.1504 27.4218 32.2059 27.7971 32.2059C28.2974 32.2059 28.6656 32.1295 28.9019 31.9766C29.1451 31.8168 29.2667 31.5945 29.2667 31.3096C29.2667 31.1081 29.2007 30.9517 29.0687 30.8406C28.9366 30.7224 28.7699 30.6356 28.5684 30.58C28.3669 30.5174 28.0993 30.4584 27.7658 30.4028C27.3211 30.3194 26.9632 30.236 26.6922 30.1526C26.4213 30.0623 26.1885 29.9129 25.9939 29.7045C25.8063 29.496 25.7125 29.2076 25.7125 28.8394C25.7125 28.3808 25.9036 28.0055 26.2858 27.7137C26.6679 27.4219 27.1995 27.2759 27.8805 27.2759C28.2348 27.2759 28.5892 27.3246 28.9436 27.4219C29.298 27.5122 29.5898 27.6338 29.8191 27.7867L29.496 28.3808C29.0443 28.0681 28.5058 27.9117 27.8805 27.9117C27.408 27.9117 27.0501 27.9951 26.8069 28.1619C26.5706 28.3286 26.4525 28.5475 26.4525 28.8185C26.4525 29.027 26.5185 29.1937 26.6506 29.3188C26.7895 29.4439 26.9598 29.5377 27.1613 29.6002C27.3628 29.6558 27.6407 29.7149 27.9951 29.7774C28.4329 29.8608 28.7838 29.9442 29.0478 30.0276C29.3119 30.111 29.5377 30.2534 29.7253 30.4549C29.9129 30.6564 30.0067 30.9344 30.0067 31.2887C30.0067 31.7682 29.8052 32.1504 29.4022 32.4352C29.0061 32.7132 28.4537 32.8522 27.745 32.8522ZM34.0535 32.4665C33.9145 32.5916 33.7408 32.6889 33.5323 32.7584C33.3308 32.8209 33.1189 32.8522 32.8965 32.8522C32.3823 32.8522 31.9863 32.7132 31.7083 32.4352C31.4304 32.1573 31.2914 31.7647 31.2914 31.2575V27.943H30.3117V27.3176H31.2914V26.119H32.0314V27.3176H33.6991V27.943H32.0314V31.2158C32.0314 31.5424 32.1113 31.7925 32.2712 31.9662C32.4379 32.133 32.6742 32.2164 32.9799 32.2164C33.1328 32.2164 33.2787 32.192 33.4177 32.1434C33.5636 32.0948 33.6887 32.0253 33.7929 31.935L34.0535 32.4665ZM42.3706 25.504V26.0356L39.3167 32.8H38.5037L41.5055 26.1711H37.7533V27.5365H37.0132V25.504H42.3706ZM51.1632 25.0663V32.8H50.4544V31.7161C50.2321 32.0843 49.9367 32.3658 49.5685 32.5603C49.2071 32.7549 48.7972 32.8522 48.3386 32.8522C47.8244 32.8522 47.3588 32.734 46.9419 32.4978C46.525 32.2615 46.1984 31.9315 45.9622 31.5076C45.7259 31.0838 45.6078 30.6008 45.6078 30.0588C45.6078 29.5168 45.7259 29.0339 45.9622 28.6101C46.1984 28.1862 46.525 27.8596 46.9419 27.6303C47.3588 27.3941 47.8244 27.2759 48.3386 27.2759C48.7833 27.2759 49.1828 27.3697 49.5372 27.5574C49.8985 27.738 50.1938 28.0055 50.4231 28.3599V25.0663H51.1632ZM48.4011 32.1955C48.7833 32.1955 49.1272 32.1087 49.433 31.935C49.7457 31.7543 49.9889 31.5007 50.1626 31.1741C50.3432 30.8475 50.4336 30.4758 50.4336 30.0588C50.4336 29.6419 50.3432 29.2702 50.1626 28.9436C49.9889 28.617 49.7457 28.3669 49.433 28.1931C49.1272 28.0125 48.7833 27.9222 48.4011 27.9222C48.012 27.9222 47.6611 28.0125 47.3484 28.1931C47.0427 28.3669 46.7995 28.617 46.6188 28.9436C46.4451 29.2702 46.3582 29.6419 46.3582 30.0588C46.3582 30.4758 46.4451 30.8475 46.6188 31.1741C46.7995 31.5007 47.0427 31.7543 47.3484 31.935C47.6611 32.1087 48.012 32.1955 48.4011 32.1955ZM54.9335 27.2759C55.6492 27.2759 56.1981 27.4566 56.5803 27.8179C56.9625 28.1723 57.1535 28.7004 57.1535 29.4022V32.8H56.4448V31.9454C56.278 32.2303 56.0313 32.4526 55.7048 32.6124C55.3851 32.7723 55.003 32.8522 54.5582 32.8522C53.9468 32.8522 53.4604 32.7062 53.099 32.4144C52.7377 32.1226 52.5571 31.7369 52.5571 31.2575C52.5571 30.7919 52.7238 30.4167 53.0574 30.1318C53.3978 29.8469 53.9363 29.7045 54.6729 29.7045H56.4135V29.3709C56.4135 28.8984 56.2815 28.5406 56.0174 28.2974C55.7534 28.0472 55.3678 27.9222 54.8605 27.9222C54.5131 27.9222 54.1795 27.9812 53.8599 28.0993C53.5403 28.2105 53.2658 28.3669 53.0365 28.5684L52.703 28.016C52.9809 27.7797 53.3145 27.599 53.7036 27.474C54.0927 27.3419 54.5027 27.2759 54.9335 27.2759ZM54.6729 32.2685C55.0898 32.2685 55.4477 32.1747 55.7465 31.9871C56.0452 31.7925 56.2676 31.5146 56.4135 31.1532V30.2569H54.6937C53.7557 30.2569 53.2867 30.5835 53.2867 31.2366C53.2867 31.5563 53.4083 31.8099 53.6515 31.9975C53.8947 32.1782 54.2351 32.2685 54.6729 32.2685ZM63.4602 27.3176L60.719 33.4567C60.4966 33.9709 60.2395 34.3357 59.9477 34.5511C59.6558 34.7665 59.3049 34.8742 58.895 34.8742C58.6309 34.8742 58.3842 34.8325 58.1549 34.7491C57.9256 34.6657 57.7276 34.5407 57.5608 34.3739L57.9048 33.8215C58.1827 34.0994 58.5163 34.2384 58.9054 34.2384C59.1555 34.2384 59.3675 34.1689 59.5412 34.0299C59.7218 33.891 59.8886 33.6547 60.0415 33.3212L60.2812 32.7896L57.8318 27.3176H58.6031L60.6669 31.9766L62.7306 27.3176H63.4602ZM65.7025 32.8522C65.2578 32.8522 64.8304 32.7896 64.4205 32.6646C64.0174 32.5325 63.7013 32.3692 63.472 32.1747L63.8055 31.591C64.0348 31.7717 64.3232 31.9211 64.6706 32.0392C65.018 32.1504 65.3794 32.2059 65.7546 32.2059C66.2549 32.2059 66.6232 32.1295 66.8594 31.9766C67.1026 31.8168 67.2242 31.5945 67.2242 31.3096C67.2242 31.1081 67.1582 30.9517 67.0262 30.8406C66.8942 30.7224 66.7274 30.6356 66.5259 30.58C66.3244 30.5174 66.0569 30.4584 65.7233 30.4028C65.2786 30.3194 64.9208 30.236 64.6498 30.1526C64.3788 30.0623 64.146 29.9129 63.9514 29.7045C63.7638 29.496 63.67 29.2076 63.67 28.8394C63.67 28.3808 63.8611 28.0055 64.2433 27.7137C64.6254 27.4219 65.157 27.2759 65.838 27.2759C66.1924 27.2759 66.5467 27.3246 66.9011 27.4219C67.2555 27.5122 67.5473 27.6338 67.7766 27.7867L67.4535 28.3808C67.0019 28.0681 66.4633 27.9117 65.838 27.9117C65.3655 27.9117 65.0076 27.9951 64.7644 28.1619C64.5282 28.3286 64.41 28.5475 64.41 28.8185C64.41 29.027 64.4761 29.1937 64.6081 29.3188C64.747 29.4439 64.9173 29.5377 65.1188 29.6002C65.3203 29.6558 65.5982 29.7149 65.9526 29.7774C66.3904 29.8608 66.7413 29.9442 67.0053 30.0276C67.2694 30.111 67.4952 30.2534 67.6828 30.4549C67.8704 30.6564 67.9642 30.9344 67.9642 31.2887C67.9642 31.7682 67.7627 32.1504 67.3597 32.4352C66.9636 32.7132 66.4112 32.8522 65.7025 32.8522Z" fill="white"/>
<path d="M17.2735 45.0469C18.2046 45.0469 18.9342 45.2692 19.4623 45.714C19.9904 46.1587 20.2544 46.7701 20.2544 47.5484C20.2544 48.3266 19.9904 48.9381 19.4623 49.3828C18.9342 49.8206 18.2046 50.0394 17.2735 50.0394H15.314V52.3429H14.5427V45.0469H17.2735ZM17.2526 49.362C17.9753 49.362 18.5277 49.2056 18.9099 48.8929C19.292 48.5733 19.4831 48.1251 19.4831 47.5484C19.4831 46.9578 19.292 46.5061 18.9099 46.1934C18.5277 45.8738 17.9753 45.714 17.2526 45.714H15.314V49.362H17.2526ZM23.4243 46.8188C24.14 46.8188 24.6889 46.9994 25.0711 47.3608C25.4533 47.7151 25.6443 48.2432 25.6443 48.945V52.3429H24.9356V51.4882C24.7688 51.7731 24.5221 51.9955 24.1956 52.1553C23.8759 52.3151 23.4938 52.395 23.0491 52.395C22.4376 52.395 21.9512 52.2491 21.5899 51.9572C21.2285 51.6654 21.0479 51.2798 21.0479 50.8003C21.0479 50.3348 21.2146 49.9595 21.5482 49.6746C21.8886 49.3898 22.4272 49.2473 23.1637 49.2473H24.9043V48.9138C24.9043 48.4413 24.7723 48.0834 24.5083 47.8402C24.2442 47.5901 23.8586 47.465 23.3513 47.465C23.0039 47.465 22.6704 47.5241 22.3507 47.6422C22.0311 47.7534 21.7566 47.9097 21.5273 48.1112L21.1938 47.5588C21.4717 47.3226 21.8053 47.1419 22.1944 47.0168C22.5835 46.8848 22.9935 46.8188 23.4243 46.8188ZM23.1637 51.8113C23.5806 51.8113 23.9385 51.7175 24.2373 51.5299C24.536 51.3354 24.7584 51.0574 24.9043 50.6961V49.7997H23.1845C22.2465 49.7997 21.7775 50.1263 21.7775 50.7795C21.7775 51.0991 21.8991 51.3527 22.1423 51.5403C22.3855 51.721 22.7259 51.8113 23.1637 51.8113ZM28.9155 52.395C28.4708 52.395 28.0434 52.3325 27.6335 52.2074C27.2305 52.0754 26.9143 51.9121 26.685 51.7175L27.0185 51.1338C27.2478 51.3145 27.5362 51.4639 27.8836 51.582C28.2311 51.6932 28.5924 51.7488 28.9676 51.7488C29.4679 51.7488 29.8362 51.6724 30.0724 51.5195C30.3156 51.3597 30.4372 51.1373 30.4372 50.8524C30.4372 50.6509 30.3712 50.4946 30.2392 50.3834C30.1072 50.2653 29.9404 50.1784 29.7389 50.1228C29.5374 50.0603 29.2699 50.0012 28.9363 49.9456C28.4916 49.8623 28.1338 49.7789 27.8628 49.6955C27.5918 49.6052 27.359 49.4558 27.1645 49.2473C26.9768 49.0388 26.883 48.7505 26.883 48.3822C26.883 47.9236 27.0741 47.5484 27.4563 47.2565C27.8385 46.9647 28.37 46.8188 29.051 46.8188C29.4054 46.8188 29.7597 46.8674 30.1141 46.9647C30.4685 47.055 30.7603 47.1766 30.9896 47.3295L30.6665 47.9236C30.2149 47.6109 29.6764 47.4546 29.051 47.4546C28.5785 47.4546 28.2206 47.538 27.9774 47.7047C27.7412 47.8715 27.6231 48.0904 27.6231 48.3614C27.6231 48.5698 27.6891 48.7366 27.8211 48.8617C27.9601 48.9867 28.1303 49.0805 28.3318 49.1431C28.5333 49.1987 28.8113 49.2577 29.1656 49.3203C29.6034 49.4036 29.9543 49.487 30.2183 49.5704C30.4824 49.6538 30.7082 49.7962 30.8958 49.9978C31.0834 50.1993 31.1773 50.4772 31.1773 50.8316C31.1773 51.311 30.9757 51.6932 30.5727 51.9781C30.1767 52.256 29.6242 52.395 28.9155 52.395ZM35.224 52.0094C35.085 52.1344 34.9113 52.2317 34.7029 52.3012C34.5014 52.3637 34.2894 52.395 34.0671 52.395C33.5529 52.395 33.1568 52.256 32.8789 51.9781C32.6009 51.7002 32.462 51.3076 32.462 50.8003V47.4858H31.4822V46.8605H32.462V45.6618H33.202V46.8605H34.8696V47.4858H33.202V50.7586C33.202 51.0852 33.2819 51.3354 33.4417 51.5091C33.6085 51.6758 33.8447 51.7592 34.1505 51.7592C34.3033 51.7592 34.4492 51.7349 34.5882 51.6863C34.7341 51.6376 34.8592 51.5681 34.9634 51.4778L35.224 52.0094ZM46.6159 45.0469V52.3429H45.8758V46.5061L43.0096 51.4153H42.6448L39.7785 46.5374V52.3429H39.0384V45.0469H39.6742L42.8428 50.4564L45.9801 45.0469H46.6159ZM50.8692 52.395C50.3411 52.395 49.8651 52.2769 49.4413 52.0406C49.0174 51.7974 48.6839 51.4639 48.4407 51.04C48.1975 50.6162 48.0759 50.1367 48.0759 49.6017C48.0759 49.0666 48.1975 48.5872 48.4407 48.1633C48.6839 47.7395 49.0174 47.4094 49.4413 47.1732C49.8651 46.9369 50.3411 46.8188 50.8692 46.8188C51.3973 46.8188 51.8733 46.9369 52.2971 47.1732C52.721 47.4094 53.0511 47.7395 53.2873 48.1633C53.5305 48.5872 53.6521 49.0666 53.6521 49.6017C53.6521 50.1367 53.5305 50.6162 53.2873 51.04C53.0511 51.4639 52.721 51.7974 52.2971 52.0406C51.8733 52.2769 51.3973 52.395 50.8692 52.395ZM50.8692 51.7384C51.2583 51.7384 51.6058 51.6515 51.9115 51.4778C52.2242 51.2971 52.4674 51.0435 52.6411 50.7169C52.8148 50.3903 52.9017 50.0186 52.9017 49.6017C52.9017 49.1848 52.8148 48.813 52.6411 48.4864C52.4674 48.1599 52.2242 47.9097 51.9115 47.736C51.6058 47.5553 51.2583 47.465 50.8692 47.465C50.4801 47.465 50.1292 47.5553 49.8165 47.736C49.5108 47.9097 49.2676 48.1599 49.0869 48.4864C48.9132 48.813 48.8263 49.1848 48.8263 49.6017C48.8263 50.0186 48.9132 50.3903 49.0869 50.7169C49.2676 51.0435 49.5108 51.2971 49.8165 51.4778C50.1292 51.6515 50.4801 51.7384 50.8692 51.7384ZM57.7478 46.8188C58.4357 46.8188 58.9812 47.0203 59.3842 47.4233C59.7942 47.8194 59.9991 48.3996 59.9991 49.1639V52.3429H59.2591V49.2369C59.2591 48.6671 59.1167 48.2328 58.8318 47.934C58.5469 47.6352 58.1404 47.4858 57.6123 47.4858C57.0217 47.4858 56.5526 47.663 56.2052 48.0174C55.8647 48.3648 55.6945 48.8478 55.6945 49.4662V52.3429H54.9545V46.8605H55.6632V47.8715C55.8647 47.538 56.1427 47.2809 56.4971 47.1002C56.8584 46.9126 57.2753 46.8188 57.7478 46.8188ZM64.6869 52.0094C64.5479 52.1344 64.3742 52.2317 64.1658 52.3012C63.9642 52.3637 63.7523 52.395 63.53 52.395C63.0158 52.395 62.6197 52.256 62.3418 51.9781C62.0638 51.7002 61.9248 51.3076 61.9248 50.8003V47.4858H60.9451V46.8605H61.9248V45.6618H62.6649V46.8605H64.3325V47.4858H62.6649V50.7586C62.6649 51.0852 62.7448 51.3354 62.9046 51.5091C63.0714 51.6758 63.3076 51.7592 63.6133 51.7592C63.7662 51.7592 63.9121 51.7349 64.0511 51.6863C64.197 51.6376 64.3221 51.5681 64.4263 51.4778L64.6869 52.0094ZM68.6189 46.8188C69.3068 46.8188 69.8523 47.0203 70.2553 47.4233C70.6653 47.8194 70.8703 48.3996 70.8703 49.1639V52.3429H70.1302V49.2369C70.1302 48.6671 69.9878 48.2328 69.7029 47.934C69.418 47.6352 69.0115 47.4858 68.4834 47.4858C67.8928 47.4858 67.4238 47.663 67.0763 48.0174C66.7359 48.3648 66.5656 48.8478 66.5656 49.4662V52.3429H65.8256V44.6091H66.5656V47.8194C66.7671 47.4997 67.0451 47.2531 67.3994 47.0794C67.7538 46.9056 68.1603 46.8188 68.6189 46.8188Z" fill="white"/>
<path d="M17.2735 64.5897C18.2046 64.5897 18.9342 64.8121 19.4623 65.2568C19.9904 65.7015 20.2544 66.313 20.2544 67.0912C20.2544 67.8695 19.9904 68.4809 19.4623 68.9257C18.9342 69.3634 18.2046 69.5823 17.2735 69.5823H15.314V71.8857H14.5427V64.5897H17.2735ZM17.2526 68.9048C17.9753 68.9048 18.5277 68.7485 18.9099 68.4358C19.292 68.1161 19.4831 67.668 19.4831 67.0912C19.4831 66.5006 19.292 66.0489 18.9099 65.7363C18.5277 65.4166 17.9753 65.2568 17.2526 65.2568H15.314V68.9048H17.2526ZM23.4243 66.3616C24.14 66.3616 24.6889 66.5423 25.0711 66.9036C25.4533 67.258 25.6443 67.7861 25.6443 68.4879V71.8857H24.9356V71.0311C24.7688 71.316 24.5221 71.5383 24.1956 71.6981C23.8759 71.8579 23.4938 71.9379 23.0491 71.9379C22.4376 71.9379 21.9512 71.7919 21.5899 71.5001C21.2285 71.2083 21.0479 70.8226 21.0479 70.3432C21.0479 69.8776 21.2146 69.5024 21.5482 69.2175C21.8886 68.9326 22.4272 68.7902 23.1637 68.7902H24.9043V68.4566C24.9043 67.9841 24.7723 67.6263 24.5083 67.3831C24.2442 67.1329 23.8586 67.0078 23.3513 67.0078C23.0039 67.0078 22.6704 67.0669 22.3507 67.185C22.0311 67.2962 21.7566 67.4526 21.5273 67.6541L21.1938 67.1017C21.4717 66.8654 21.8053 66.6847 22.1944 66.5597C22.5835 66.4276 22.9935 66.3616 23.4243 66.3616ZM23.1637 71.3542C23.5806 71.3542 23.9385 71.2604 24.2373 71.0728C24.536 70.8782 24.7584 70.6003 24.9043 70.2389V69.3426H23.1845C22.2465 69.3426 21.7775 69.6691 21.7775 70.3223C21.7775 70.6419 21.8991 70.8956 22.1423 71.0832C22.3855 71.2638 22.7259 71.3542 23.1637 71.3542ZM28.9155 71.9379C28.4708 71.9379 28.0434 71.8753 27.6335 71.7502C27.2305 71.6182 26.9143 71.4549 26.685 71.2604L27.0185 70.6767C27.2478 70.8574 27.5362 71.0067 27.8836 71.1249C28.2311 71.2361 28.5924 71.2916 28.9676 71.2916C29.4679 71.2916 29.8362 71.2152 30.0724 71.0623C30.3156 70.9025 30.4372 70.6802 30.4372 70.3953C30.4372 70.1938 30.3712 70.0374 30.2392 69.9262C30.1072 69.8081 29.9404 69.7213 29.7389 69.6657C29.5374 69.6031 29.2699 69.5441 28.9363 69.4885C28.4916 69.4051 28.1338 69.3217 27.8628 69.2383C27.5918 69.148 27.359 68.9986 27.1645 68.7902C26.9768 68.5817 26.883 68.2933 26.883 67.9251C26.883 67.4665 27.0741 67.0912 27.4563 66.7994C27.8385 66.5075 28.37 66.3616 29.051 66.3616C29.4054 66.3616 29.7597 66.4103 30.1141 66.5075C30.4685 66.5979 30.7603 66.7195 30.9896 66.8723L30.6665 67.4665C30.2149 67.1538 29.6764 66.9974 29.051 66.9974C28.5785 66.9974 28.2206 67.0808 27.9774 67.2476C27.7412 67.4143 27.6231 67.6332 27.6231 67.9042C27.6231 68.1127 27.6891 68.2794 27.8211 68.4045C27.9601 68.5296 28.1303 68.6234 28.3318 68.6859C28.5333 68.7415 28.8113 68.8006 29.1656 68.8631C29.6034 68.9465 29.9543 69.0299 30.2183 69.1133C30.4824 69.1966 30.7082 69.3391 30.8958 69.5406C31.0834 69.7421 31.1773 70.0201 31.1773 70.3744C31.1773 70.8539 30.9757 71.2361 30.5727 71.5209C30.1767 71.7989 29.6242 71.9379 28.9155 71.9379ZM35.224 71.5522C35.085 71.6773 34.9113 71.7746 34.7029 71.8441C34.5014 71.9066 34.2894 71.9379 34.0671 71.9379C33.5529 71.9379 33.1568 71.7989 32.8789 71.5209C32.6009 71.243 32.462 70.8504 32.462 70.3432V67.0287H31.4822V66.4033H32.462V65.2047H33.202V66.4033H34.8696V67.0287H33.202V70.3015C33.202 70.6281 33.2819 70.8782 33.4417 71.0519C33.6085 71.2187 33.8447 71.3021 34.1505 71.3021C34.3033 71.3021 34.4492 71.2777 34.5882 71.2291C34.7341 71.1805 34.8592 71.111 34.9634 71.0206L35.224 71.5522ZM41.4149 67.5186C41.8943 67.5186 42.3182 67.6089 42.6864 67.7896C43.0617 67.9702 43.3535 68.2273 43.562 68.5609C43.7704 68.8874 43.8747 69.2696 43.8747 69.7074C43.8747 70.1521 43.767 70.5447 43.5515 70.8851C43.3361 71.2256 43.0374 71.4897 42.6552 71.6773C42.28 71.8579 41.8561 71.9483 41.3836 71.9483C40.4177 71.9483 39.6777 71.6321 39.1635 70.9998C38.6493 70.3605 38.3922 69.4607 38.3922 68.3003C38.3922 67.4873 38.5312 66.7994 38.8091 66.2366C39.0871 65.6737 39.4762 65.2499 39.9765 64.965C40.4768 64.6731 41.0605 64.5272 41.7275 64.5272C42.4502 64.5272 43.0269 64.6592 43.4577 64.9233L43.1555 65.5278C42.808 65.2985 42.3355 65.1838 41.738 65.1838C40.9319 65.1838 40.2996 65.4409 39.841 65.9551C39.3824 66.4624 39.1531 67.2024 39.1531 68.1752C39.1531 68.3489 39.1635 68.547 39.1844 68.7693C39.365 68.3732 39.6534 68.0675 40.0495 67.8521C40.4455 67.6297 40.9007 67.5186 41.4149 67.5186ZM41.3523 71.3125C41.8804 71.3125 42.3078 71.17 42.6343 70.8851C42.9679 70.5933 43.1346 70.2077 43.1346 69.7282C43.1346 69.2488 42.9679 68.8666 42.6343 68.5817C42.3078 68.2968 41.863 68.1544 41.3002 68.1544C40.9319 68.1544 40.6054 68.2238 40.3205 68.3628C40.0425 68.5018 39.8236 68.6929 39.6638 68.9361C39.504 69.1793 39.4241 69.4503 39.4241 69.7491C39.4241 70.027 39.4971 70.2841 39.643 70.5203C39.7958 70.7566 40.0182 70.9477 40.31 71.0936C40.6019 71.2395 40.9493 71.3125 41.3523 71.3125ZM54.3819 66.3616C55.0698 66.3616 55.6083 66.5597 55.9974 66.9557C56.3935 67.3518 56.5915 67.9355 56.5915 68.7068V71.8857H55.8515V68.7797C55.8515 68.2099 55.7125 67.7757 55.4346 67.4769C55.1636 67.1781 54.7779 67.0287 54.2776 67.0287C53.7079 67.0287 53.2597 67.2059 52.9331 67.5603C52.6065 67.9077 52.4432 68.3906 52.4432 69.009V71.8857H51.7032V68.7797C51.7032 68.2099 51.5642 67.7757 51.2863 67.4769C51.0153 67.1781 50.6262 67.0287 50.1189 67.0287C49.5561 67.0287 49.1079 67.2059 48.7744 67.5603C48.4478 67.9077 48.2845 68.3906 48.2845 69.009V71.8857H47.5445V66.4033H48.2532V67.4039C48.4478 67.0704 48.7188 66.8133 49.0662 66.6326C49.4136 66.452 49.8132 66.3616 50.2648 66.3616C50.7234 66.3616 51.1195 66.4589 51.453 66.6535C51.7935 66.848 52.0472 67.1364 52.2139 67.5186C52.4154 67.1572 52.7038 66.8758 53.079 66.6743C53.4612 66.4659 53.8955 66.3616 54.3819 66.3616ZM60.6512 71.9379C60.1231 71.9379 59.6471 71.8197 59.2233 71.5835C58.7994 71.3403 58.4659 71.0067 58.2227 70.5829C57.9795 70.159 57.8579 69.6796 57.8579 69.1445C57.8579 68.6095 57.9795 68.13 58.2227 67.7062C58.4659 67.2823 58.7994 66.9523 59.2233 66.716C59.6471 66.4798 60.1231 66.3616 60.6512 66.3616C61.1793 66.3616 61.6553 66.4798 62.0791 66.716C62.503 66.9523 62.8331 67.2823 63.0693 67.7062C63.3125 68.13 63.4341 68.6095 63.4341 69.1445C63.4341 69.6796 63.3125 70.159 63.0693 70.5829C62.8331 71.0067 62.503 71.3403 62.0791 71.5835C61.6553 71.8197 61.1793 71.9379 60.6512 71.9379ZM60.6512 71.2812C61.0403 71.2812 61.3878 71.1944 61.6935 71.0206C62.0062 70.84 62.2494 70.5864 62.4231 70.2598C62.5968 69.9332 62.6837 69.5614 62.6837 69.1445C62.6837 68.7276 62.5968 68.3559 62.4231 68.0293C62.2494 67.7027 62.0062 67.4526 61.6935 67.2788C61.3878 67.0982 61.0403 67.0078 60.6512 67.0078C60.2621 67.0078 59.9112 67.0982 59.5985 67.2788C59.2928 67.4526 59.0496 67.7027 58.8689 68.0293C58.6952 68.3559 58.6083 68.7276 58.6083 69.1445C58.6083 69.5614 58.6952 69.9332 58.8689 70.2598C59.0496 70.5864 59.2928 70.84 59.5985 71.0206C59.9112 71.1944 60.2621 71.2812 60.6512 71.2812ZM67.5298 66.3616C68.2177 66.3616 68.7632 66.5631 69.1662 66.9662C69.5762 67.3622 69.7812 67.9424 69.7812 68.7068V71.8857H69.0411V68.7797C69.0411 68.2099 68.8987 67.7757 68.6138 67.4769C68.3289 67.1781 67.9224 67.0287 67.3943 67.0287C66.8037 67.0287 66.3347 67.2059 65.9872 67.5603C65.6468 67.9077 65.4765 68.3906 65.4765 69.009V71.8857H64.7365V66.4033H65.4452V67.4143C65.6468 67.0808 65.9247 66.8237 66.2791 66.643C66.6404 66.4554 67.0573 66.3616 67.5298 66.3616ZM74.4689 71.5522C74.3299 71.6773 74.1562 71.7746 73.9478 71.8441C73.7463 71.9066 73.5343 71.9379 73.312 71.9379C72.7978 71.9379 72.4017 71.7989 72.1238 71.5209C71.8458 71.243 71.7069 70.8504 71.7069 70.3432V67.0287H70.7271V66.4033H71.7069V65.2047H72.4469V66.4033H74.1145V67.0287H72.4469V70.3015C72.4469 70.6281 72.5268 70.8782 72.6866 71.0519C72.8534 71.2187 73.0896 71.3021 73.3954 71.3021C73.5482 71.3021 73.6941 71.2777 73.8331 71.2291C73.979 71.1805 74.1041 71.111 74.2083 71.0206L74.4689 71.5522ZM78.4009 66.3616C79.0888 66.3616 79.6343 66.5631 80.0373 66.9662C80.4473 67.3622 80.6523 67.9424 80.6523 68.7068V71.8857H79.9123V68.7797C79.9123 68.2099 79.7698 67.7757 79.4849 67.4769C79.2 67.1781 78.7935 67.0287 78.2654 67.0287C77.6748 67.0287 77.2058 67.2059 76.8584 67.5603C76.5179 67.9077 76.3476 68.3906 76.3476 69.009V71.8857H75.6076V64.152H76.3476V67.3622C76.5491 67.0426 76.8271 66.7959 77.1815 66.6222C77.5358 66.4485 77.9423 66.3616 78.4009 66.3616ZM83.9225 71.9379C83.4778 71.9379 83.0505 71.8753 82.6405 71.7502C82.2375 71.6182 81.9213 71.4549 81.692 71.2604L82.0256 70.6767C82.2549 70.8574 82.5432 71.0067 82.8907 71.1249C83.2381 71.2361 83.5994 71.2916 83.9746 71.2916C84.4749 71.2916 84.8432 71.2152 85.0795 71.0623C85.3227 70.9025 85.4443 70.6802 85.4443 70.3953C85.4443 70.1938 85.3783 70.0374 85.2462 69.9262C85.1142 69.8081 84.9474 69.7213 84.7459 69.6657C84.5444 69.6031 84.2769 69.5441 83.9434 69.4885C83.4987 69.4051 83.1408 69.3217 82.8698 69.2383C82.5988 69.148 82.366 68.9986 82.1715 68.7902C81.9839 68.5817 81.8901 68.2933 81.8901 67.9251C81.8901 67.4665 82.0812 67.0912 82.4633 66.7994C82.8455 66.5075 83.3771 66.3616 84.058 66.3616C84.4124 66.3616 84.7668 66.4103 85.1212 66.5075C85.4755 66.5979 85.7674 66.7195 85.9967 66.8723L85.6736 67.4665C85.2219 67.1538 84.6834 66.9974 84.058 66.9974C83.5855 66.9974 83.2277 67.0808 82.9845 67.2476C82.7482 67.4143 82.6301 67.6332 82.6301 67.9042C82.6301 68.1127 82.6961 68.2794 82.8281 68.4045C82.9671 68.5296 83.1373 68.6234 83.3388 68.6859C83.5404 68.7415 83.8183 68.8006 84.1727 68.8631C84.6104 68.9465 84.9613 69.0299 85.2254 69.1133C85.4894 69.1966 85.7153 69.3391 85.9029 69.5406C86.0905 69.7421 86.1843 70.0201 86.1843 70.3744C86.1843 70.8539 85.9828 71.2361 85.5798 71.5209C85.1837 71.7989 84.6313 71.9379 83.9225 71.9379Z" fill="white"/>
<path d="M19.1183 89.4795H15.0534L14.1779 91.4286H13.3753L16.7107 84.1326H17.4715L20.8068 91.4286H19.9939L19.1183 89.4795ZM18.8369 88.8541L17.0859 84.9351L15.3348 88.8541H18.8369ZM21.649 83.6948H22.389V91.4286H21.649V83.6948ZM24.2396 83.6948H24.9796V91.4286H24.2396V83.6948Z" fill="white"/>
</g>
<rect width="114" height="16.2857" rx="5.21143" fill="url(#paint0_linear)"/>
<path d="M14.1232 4.30971H15.1655V10.6989H19.1158V11.6057H14.1232V4.30971ZM24.317 10.1986H21.138L20.5127 11.6057H19.5225L22.2324 5.68553H23.233L25.9534 11.6057H24.932L24.317 10.1986ZM23.9626 9.39607L22.7327 6.60274L21.4924 9.39607H23.9626ZM28.6866 11.6891C28.228 11.6891 27.7798 11.6266 27.3421 11.5015C26.9113 11.3695 26.5743 11.1957 26.3311 10.9803L26.7271 10.1882C26.9634 10.3828 27.2587 10.5391 27.6131 10.6572C27.9744 10.7754 28.3461 10.8344 28.7283 10.8344C29.1939 10.8344 29.5344 10.758 29.7498 10.6051C29.9721 10.4522 30.0833 10.2542 30.0833 10.011C30.0833 9.8234 30.0173 9.67054 29.8853 9.55241C29.7602 9.43428 29.6004 9.34395 29.4058 9.28142C29.2112 9.21888 28.9472 9.15287 28.6137 9.08338C28.162 8.9861 27.7937 8.88535 27.5088 8.78112C27.2309 8.67689 26.9912 8.5136 26.7897 8.29124C26.5951 8.06194 26.4978 7.75273 26.4978 7.36361C26.4978 6.83552 26.7098 6.41166 27.1336 6.09202C27.5644 5.76544 28.1481 5.60215 28.8847 5.60215C29.2599 5.60215 29.6212 5.64731 29.9686 5.73764C30.323 5.82103 30.6253 5.9461 30.8754 6.11287L30.5106 6.92585C30.059 6.61316 29.5066 6.45682 28.8534 6.45682C28.4017 6.45682 28.0647 6.53673 27.8424 6.69655C27.62 6.84942 27.5088 7.05092 27.5088 7.30107C27.5088 7.48868 27.5714 7.64155 27.6965 7.75968C27.8285 7.8778 27.9918 7.96814 28.1863 8.03067C28.3878 8.09321 28.6554 8.15922 28.9889 8.22871C29.4475 8.33294 29.8123 8.43716 30.0833 8.54139C30.3612 8.63867 30.5975 8.79849 30.792 9.02084C30.9936 9.2432 31.0943 9.54199 31.0943 9.91721C31.0943 10.4592 30.8789 10.89 30.4481 11.2096C30.0242 11.5293 29.4371 11.6891 28.6866 11.6891ZM33.4445 6.51936H31.4225V5.68553H36.4775V6.51936H34.4555V11.6057H33.4445V6.51936ZM46.689 4.30971V11.6057H45.8343L41.4567 6.16498V11.6057H40.4145V4.30971H41.2691L45.6467 9.75044V4.30971H46.689ZM48.7895 5.68553H49.8005V11.6057H48.7895V5.68553ZM55.8253 8.61435H56.8051V10.9282C56.5202 11.1714 56.1762 11.359 55.7732 11.4911C55.3702 11.6231 54.9533 11.6891 54.5224 11.6891C53.904 11.6891 53.3447 11.5571 52.8444 11.293C52.351 11.029 51.9619 10.6677 51.677 10.209C51.3991 9.7435 51.2601 9.22235 51.2601 8.64562C51.2601 8.06889 51.3991 7.55122 51.677 7.09262C51.9549 6.62706 52.3406 6.26226 52.8339 5.99822C53.3273 5.73417 53.8762 5.60215 54.4808 5.60215C55.523 5.60215 56.3187 5.91136 56.8676 6.52978L56.2214 7.18642C55.7697 6.71392 55.1965 6.47767 54.5016 6.47767C54.0777 6.47767 53.6956 6.57147 53.3551 6.75908C53.0216 6.93975 52.7575 7.19684 52.563 7.53038C52.3753 7.85696 52.2815 8.22871 52.2815 8.64562C52.2815 9.05559 52.3753 9.42734 52.563 9.76087C52.7575 10.0874 53.025 10.3445 53.3655 10.5322C53.7129 10.7198 54.1021 10.8136 54.5329 10.8136C55.0332 10.8136 55.464 10.7024 55.8253 10.48V8.61435ZM58.6321 5.68553H59.6432V8.18702H62.8847V5.68553H63.8957V11.6057H62.8847V9.02084H59.6432V11.6057H58.6321V5.68553ZM66.9727 6.51936H64.9507V5.68553H70.0058V6.51936H67.9837V11.6057H66.9727V6.51936Z" fill="white"/>
<path d="M108.789 11.0742L102.6 6.51422L96.4114 11.0742" stroke="white" stroke-width="1.30286"/>
<defs>
<linearGradient id="paint0_linear" x1="116.931" y1="1.18442" x2="111.24" y2="35.9409" gradientUnits="userSpaceOnUse">
<stop stop-color="#869DFF"/>
<stop offset="0.0001" stop-color="#869DFF"/>
<stop offset="1" stop-color="#5662F4"/>
</linearGradient>
<clipPath id="clip0">
<rect x="0.651367" y="22.8" width="101.623" height="71.0057" fill="white"/>
</clipPath>
</defs>
</svg>
