<svg width="450" height="400" viewBox="0 0 450 400" fill="none" xmlns="http://www.w3.org/2000/svg">
<mask id="mask0" mask-type="alpha" maskUnits="userSpaceOnUse" x="0" y="0" width="450" height="400">
<rect width="450" height="400" rx="40" fill="#F7E4DA"/>
</mask>
<g mask="url(#mask0)">
<g filter="url(#filter0_d)">
<path d="M433.527 317.469C423.877 340.949 381.256 347.857 361.152 348.376V339.968C396.535 345.947 424.145 327.46 433.527 317.469Z" fill="#C4B0C9"/>
<path d="M238.067 370.043V335.642C241.546 339.431 256.342 345.4 263.305 347.911V375.401C248.644 380.992 240.371 374.159 238.067 370.043Z" fill="#886491"/>
<path d="M327.604 349.759C323.104 353.722 306.057 351.41 298.095 349.759V335.95C305.364 339.394 320.797 340.472 327.604 340.58V349.759Z" fill="#C4B0C9"/>
<path d="M303.376 372.287V350.286C319.061 351.566 325.339 349.753 326.517 348.686V377.407C311.154 381.503 304.688 375.7 303.376 372.287Z" fill="#886491"/>
<path d="M173.923 154.239C181.999 177.38 213.967 166.317 223.156 155.187V194.697C223.156 205.59 220.885 210.512 221.975 212.999V269.406C221.478 310.656 250.31 331.241 262.45 333.001V377.576C272.328 393.044 290.794 384.021 298.793 377.576V337.117C312.398 340.41 322.84 340.819 326.361 340.612V377.576C347.483 388.385 360.529 380.889 364.412 375.789C368.139 370.136 365.965 349.982 364.412 340.612C399.077 344.774 421.048 331.06 427.701 323.683C454.414 297.901 450.169 264.069 444.707 250.376L427.701 279.652C408.442 307.298 381.781 298.989 370.857 291.378C346.939 268.827 332.78 260.497 328.69 259.151C296.82 246.478 271.251 260.135 262.45 268.548L257.17 250.376C249.218 225.961 249.145 191.384 250.103 177.147C261.454 107 237.983 107 221.542 107C178.386 108.514 169.807 135.368 173.923 154.239Z" fill="#97739F"/>
<path d="M211.51 245.98C212.318 227.716 214.953 181.785 216.17 161.103L223.469 153.959V193.693C223.469 202.346 222.69 211.323 223.469 215.595V248.531C223.469 308.344 248.422 330.961 263.151 332.411V348.796C236.935 338.918 234.362 335.33 226.412 327.921C211.431 308.181 210.035 270.727 211.51 245.98Z" fill="#C4B0C9"/>
<path d="M191.259 122.576C193.028 126.494 197.969 131.979 203.59 122.576" stroke="#4B5161" stroke-width="3.23115" stroke-linecap="round"/>
<path d="M209.322 122.576C211.09 126.494 216.032 131.979 221.652 122.576" stroke="#4B5161" stroke-width="3.23115" stroke-linecap="round"/>
<circle cx="236.964" cy="126.348" r="1.91491" fill="#AC90B3"/>
<circle cx="240.794" cy="130.337" r="1.91491" fill="#AC90B3"/>
<ellipse cx="297.204" cy="266.455" rx="3.75003" ry="3.67024" fill="#C4B0C9" fill-opacity="0.47"/>
<ellipse cx="312.044" cy="266.455" rx="3.75003" ry="3.67024" fill="#C4B0C9" fill-opacity="0.47"/>
<circle cx="304.624" cy="276.349" r="3.67024" fill="#C4B0C9" fill-opacity="0.47"/>
</g>
</g>
<defs>
<filter id="filter0_d" x="168" y="91" width="315.778" height="319.117" filterUnits="userSpaceOnUse" color-interpolation-filters="sRGB">
<feFlood flood-opacity="0" result="BackgroundImageFix"/>
<feColorMatrix in="SourceAlpha" type="matrix" values="0 0 0 0 0 0 0 0 0 0 0 0 0 0 0 0 0 0 127 0"/>
<feOffset dx="15" dy="4"/>
<feGaussianBlur stdDeviation="10"/>
<feColorMatrix type="matrix" values="0 0 0 0 0 0 0 0 0 0 0 0 0 0 0 0 0 0 0.15 0"/>
<feBlend mode="normal" in2="BackgroundImageFix" result="effect1_dropShadow"/>
<feBlend mode="normal" in="SourceGraphic" in2="effect1_dropShadow" result="shape"/>
</filter>
</defs>
</svg>
