<svg width="294" height="173" viewBox="0 0 294 173" fill="none" xmlns="http://www.w3.org/2000/svg">
<g filter="url(#filter0_d)">
<rect x="16" y="13" width="262.552" height="140.844" rx="9.18548" fill="white"/>
</g>
<path d="M70.0745 37.667C71.3206 37.667 72.4096 37.9084 73.3414 38.3911C74.2845 38.8627 75.0086 39.5475 75.5138 40.4456C76.0302 41.3325 76.2884 42.371 76.2884 43.561C76.2884 44.7511 76.0302 45.7839 75.5138 46.6596C75.0086 47.5353 74.2845 48.2089 73.3414 48.6804C72.4096 49.1407 71.3206 49.3708 70.0745 49.3708H66.2518V37.667H70.0745ZM70.0745 47.8047C71.4441 47.8047 72.4938 47.4342 73.2236 46.6933C73.9533 45.9523 74.3182 44.9082 74.3182 43.561C74.3182 42.2026 73.9533 41.1417 73.2236 40.3783C72.4938 39.6148 71.4441 39.2331 70.0745 39.2331H68.1715V47.8047H70.0745ZM77.5512 44.6893C77.5512 43.7575 77.742 42.9323 78.1237 42.2138C78.5167 41.4953 79.0443 40.9396 79.7067 40.5467C80.3803 40.1425 81.1213 39.9404 81.9296 39.9404C82.6593 39.9404 83.2936 40.0864 83.8325 40.3783C84.3826 40.6589 84.8205 41.0126 85.146 41.4392V40.092H87.0827V49.3708H85.146V47.99C84.8205 48.4278 84.377 48.7927 83.8157 49.0846C83.2543 49.3765 82.6144 49.5224 81.8959 49.5224C81.0988 49.5224 80.3691 49.3203 79.7067 48.9162C79.0443 48.5008 78.5167 47.9282 78.1237 47.1985C77.742 46.4575 77.5512 45.6211 77.5512 44.6893ZM85.146 44.723C85.146 44.0831 85.0113 43.5274 84.7419 43.0558C84.4837 42.5843 84.1413 42.2251 83.7146 41.9781C83.288 41.7311 82.8277 41.6076 82.3338 41.6076C81.8398 41.6076 81.3795 41.7311 80.9529 41.9781C80.5263 42.2138 80.1782 42.5675 79.9088 43.039C79.6506 43.4993 79.5215 44.0494 79.5215 44.6893C79.5215 45.3292 79.6506 45.8906 79.9088 46.3733C80.1782 46.8561 80.5263 47.2265 80.9529 47.4848C81.3907 47.7318 81.851 47.8552 82.3338 47.8552C82.8277 47.8552 83.288 47.7318 83.7146 47.4848C84.1413 47.2378 84.4837 46.8785 84.7419 46.407C85.0113 45.9243 85.146 45.3629 85.146 44.723ZM90.5809 38.8627C90.2329 38.8627 89.941 38.7448 89.7052 38.509C89.4695 38.2733 89.3516 37.9814 89.3516 37.6333C89.3516 37.2853 89.4695 36.9934 89.7052 36.7577C89.941 36.5219 90.2329 36.404 90.5809 36.404C90.9177 36.404 91.204 36.5219 91.4398 36.7577C91.6755 36.9934 91.7934 37.2853 91.7934 37.6333C91.7934 37.9814 91.6755 38.2733 91.4398 38.509C91.204 38.7448 90.9177 38.8627 90.5809 38.8627ZM91.524 40.092V49.3708H89.6042V40.092H91.524ZM95.9642 36.9092V49.3708H94.0444V36.9092H95.9642ZM106.837 40.092L101.145 53.7324H99.1583L101.044 49.2193L97.3901 40.092H99.5288L102.139 47.1648L104.85 40.092H106.837ZM121.131 41.035C120.828 40.4512 120.407 40.0134 119.868 39.7215C119.329 39.4184 118.706 39.2668 117.999 39.2668C117.224 39.2668 116.534 39.4408 115.928 39.7889C115.321 40.1369 114.844 40.6309 114.496 41.2708C114.159 41.9107 113.991 42.6517 113.991 43.4937C113.991 44.3357 114.159 45.0822 114.496 45.7334C114.844 46.3733 115.321 46.8673 115.928 47.2153C116.534 47.5634 117.224 47.7374 117.999 47.7374C119.043 47.7374 119.891 47.4455 120.542 46.8617C121.193 46.2779 121.591 45.4864 121.737 44.4872H117.342V42.9548H123.792V44.4536C123.668 45.3629 123.343 46.1993 122.815 46.9627C122.299 47.7261 121.619 48.338 120.777 48.7983C119.947 49.2474 119.021 49.4719 117.999 49.4719C116.899 49.4719 115.894 49.2193 114.985 48.7141C114.075 48.1977 113.351 47.4848 112.812 46.5754C112.284 45.666 112.021 44.6388 112.021 43.4937C112.021 42.3485 112.284 41.3213 112.812 40.4119C113.351 39.5026 114.075 38.7953 114.985 38.2901C115.905 37.7737 116.91 37.5155 117.999 37.5155C119.245 37.5155 120.351 37.8242 121.316 38.4417C122.293 39.0479 123 39.9124 123.438 41.035H121.131ZM129.71 49.5224C128.834 49.5224 128.043 49.3259 127.336 48.933C126.628 48.5288 126.073 47.9675 125.668 47.249C125.264 46.5193 125.062 45.6773 125.062 44.723C125.062 43.78 125.27 42.9436 125.685 42.2138C126.101 41.4841 126.668 40.9228 127.386 40.5298C128.105 40.1369 128.907 39.9404 129.794 39.9404C130.681 39.9404 131.484 40.1369 132.202 40.5298C132.921 40.9228 133.488 41.4841 133.903 42.2138C134.319 42.9436 134.526 43.78 134.526 44.723C134.526 45.666 134.313 46.5024 133.886 47.2322C133.46 47.9619 132.876 48.5288 132.135 48.933C131.405 49.3259 130.597 49.5224 129.71 49.5224ZM129.71 47.8552C130.204 47.8552 130.664 47.7374 131.091 47.5016C131.529 47.2658 131.882 46.9122 132.152 46.4407C132.421 45.9692 132.556 45.3966 132.556 44.723C132.556 44.0494 132.427 43.4824 132.169 43.0222C131.911 42.5506 131.568 42.197 131.141 41.9612C130.715 41.7255 130.255 41.6076 129.761 41.6076C129.267 41.6076 128.806 41.7255 128.38 41.9612C127.964 42.197 127.633 42.5506 127.386 43.0222C127.139 43.4824 127.016 44.0494 127.016 44.723C127.016 45.7222 127.268 46.4968 127.773 47.0469C128.29 47.5858 128.935 47.8552 129.71 47.8552ZM135.784 44.6893C135.784 43.7575 135.975 42.9323 136.357 42.2138C136.75 41.4953 137.277 40.9396 137.94 40.5467C138.613 40.1425 139.354 39.9404 140.163 39.9404C140.892 39.9404 141.527 40.0864 142.066 40.3783C142.616 40.6589 143.054 41.0126 143.379 41.4392V40.092H145.316V49.3708H143.379V47.99C143.054 48.4278 142.61 48.7927 142.049 49.0846C141.487 49.3765 140.847 49.5224 140.129 49.5224C139.332 49.5224 138.602 49.3203 137.94 48.9162C137.277 48.5008 136.75 47.9282 136.357 47.1985C135.975 46.4575 135.784 45.6211 135.784 44.6893ZM143.379 44.723C143.379 44.0831 143.244 43.5274 142.975 43.0558C142.717 42.5843 142.374 42.2251 141.948 41.9781C141.521 41.7311 141.061 41.6076 140.567 41.6076C140.073 41.6076 139.613 41.7311 139.186 41.9781C138.759 42.2138 138.411 42.5675 138.142 43.039C137.884 43.4993 137.755 44.0494 137.755 44.6893C137.755 45.3292 137.884 45.8906 138.142 46.3733C138.411 46.8561 138.759 47.2265 139.186 47.4848C139.624 47.7318 140.084 47.8552 140.567 47.8552C141.061 47.8552 141.521 47.7318 141.948 47.4848C142.374 47.2378 142.717 46.8785 142.975 46.407C143.244 45.9243 143.379 45.3629 143.379 44.723ZM149.757 36.9092V49.3708H147.837V36.9092H149.757ZM155.645 49.5224C154.916 49.5224 154.259 49.3933 153.675 49.1351C153.103 48.8656 152.648 48.5064 152.311 48.0573C151.974 47.597 151.795 47.0862 151.772 46.5249H153.759C153.793 46.9178 153.978 47.249 154.315 47.5184C154.663 47.7767 155.095 47.9058 155.612 47.9058C156.151 47.9058 156.566 47.8047 156.858 47.6026C157.161 47.3893 157.313 47.1199 157.313 46.7943C157.313 46.4463 157.144 46.1881 156.807 46.0197C156.482 45.8513 155.96 45.666 155.241 45.464C154.545 45.2731 153.978 45.0879 153.54 44.9082C153.103 44.7286 152.721 44.4536 152.395 44.0831C152.081 43.7126 151.924 43.2242 151.924 42.618C151.924 42.124 152.07 41.6749 152.362 41.2708C152.654 40.8554 153.069 40.5298 153.608 40.2941C154.158 40.0583 154.787 39.9404 155.494 39.9404C156.549 39.9404 157.397 40.2099 158.037 40.7487C158.688 41.2764 159.036 42.0005 159.081 42.9211H157.161C157.127 42.5057 156.959 42.1745 156.656 41.9275C156.353 41.6806 155.943 41.5571 155.427 41.5571C154.921 41.5571 154.534 41.6525 154.265 41.8433C153.995 42.0342 153.86 42.2868 153.86 42.6011C153.86 42.8481 153.95 43.0558 154.13 43.2242C154.31 43.3926 154.528 43.5274 154.787 43.6284C155.045 43.7182 155.427 43.8361 155.932 43.982C156.605 44.1617 157.155 44.3469 157.582 44.5378C158.02 44.7174 158.396 44.9868 158.71 45.3461C159.025 45.7053 159.188 46.1825 159.199 46.7775C159.199 47.3051 159.053 47.7767 158.761 48.192C158.469 48.6074 158.054 48.933 157.515 49.1688C156.987 49.4045 156.364 49.5224 155.645 49.5224Z" fill="#6037A0"/>
<path d="M48.2788 71.213L45.1512 77.1927V80.8164H43.8974V77.1927L40.7559 71.213H42.1475L44.5174 76.0767L46.8872 71.213H48.2788ZM52.8943 80.9404C52.187 80.9404 51.5441 80.7797 50.9654 80.4582C50.3959 80.1367 49.9458 79.682 49.6151 79.0941C49.2936 78.4971 49.1329 77.8082 49.1329 77.0274C49.1329 76.2558 49.2982 75.5761 49.6289 74.9882C49.9688 74.3912 50.428 73.9365 51.0067 73.6242C51.5854 73.3027 52.233 73.1419 52.9494 73.1419C53.6659 73.1419 54.3135 73.3027 54.8922 73.6242C55.4709 73.9365 55.9255 74.3866 56.2562 74.9744C56.5961 75.5623 56.766 76.2466 56.766 77.0274C56.766 77.8082 56.5915 78.4971 56.2424 79.0941C55.9026 79.682 55.4387 80.1367 54.8508 80.4582C54.263 80.7797 53.6108 80.9404 52.8943 80.9404ZM52.8943 79.8382C53.3444 79.8382 53.7669 79.7325 54.1619 79.5213C54.5569 79.31 54.8738 78.9931 55.1126 78.5706C55.3606 78.148 55.4846 77.6336 55.4846 77.0274C55.4846 76.4212 55.3652 75.9068 55.1264 75.4842C54.8876 75.0617 54.5753 74.7494 54.1895 74.5473C53.8037 74.336 53.3858 74.2304 52.9357 74.2304C52.4764 74.2304 52.0539 74.336 51.6681 74.5473C51.2915 74.7494 50.9883 75.0617 50.7587 75.4842C50.5291 75.9068 50.4142 76.4212 50.4142 77.0274C50.4142 77.6428 50.5245 78.1618 50.7449 78.5843C50.9746 79.0069 51.2777 79.3238 51.6543 79.535C52.0309 79.7371 52.4442 79.8382 52.8943 79.8382ZM65.1108 73.2659V80.8164H63.857V79.7004C63.6181 80.0862 63.2829 80.3893 62.8511 80.6097C62.4286 80.821 61.9602 80.9266 61.4458 80.9266C60.8579 80.9266 60.3297 80.8072 59.8613 80.5684C59.3928 80.3204 59.0208 79.953 58.7452 79.4661C58.4789 78.9793 58.3457 78.3868 58.3457 77.6887V73.2659H59.5857V77.5234C59.5857 78.2674 59.774 78.8415 60.1506 79.2457C60.5272 79.6407 61.0416 79.8382 61.6938 79.8382C62.3643 79.8382 62.8925 79.6315 63.2783 79.2181C63.6641 78.8048 63.857 78.2031 63.857 77.4132V73.2659H65.1108ZM70.4326 77.0136C70.4326 76.242 70.5888 75.5669 70.9011 74.9882C71.2134 74.4003 71.6405 73.9457 72.1824 73.6242C72.7336 73.3027 73.349 73.1419 74.0287 73.1419C74.6166 73.1419 75.1631 73.2797 75.6683 73.5553C76.1735 73.8217 76.5593 74.1753 76.8257 74.6162V70.6205H78.0933V80.8164H76.8257V79.3972C76.5777 79.8473 76.2103 80.2193 75.7234 80.5133C75.2366 80.798 74.6671 80.9404 74.0149 80.9404C73.3444 80.9404 72.7336 80.7751 72.1824 80.4444C71.6405 80.1137 71.2134 79.6498 70.9011 79.0528C70.5888 78.4557 70.4326 77.776 70.4326 77.0136ZM76.8257 77.0274C76.8257 76.4579 76.7109 75.9619 76.4812 75.5393C76.2516 75.1168 75.9393 74.7953 75.5443 74.5749C75.1585 74.3452 74.7314 74.2304 74.263 74.2304C73.7945 74.2304 73.3674 74.3406 72.9816 74.5611C72.5958 74.7815 72.2881 75.103 72.0584 75.5256C71.8288 75.9481 71.714 76.4441 71.714 77.0136C71.714 77.5923 71.8288 78.0975 72.0584 78.5292C72.2881 78.9518 72.5958 79.2778 72.9816 79.5075C73.3674 79.7279 73.7945 79.8382 74.263 79.8382C74.7314 79.8382 75.1585 79.7279 75.5443 79.5075C75.9393 79.2778 76.2516 78.9518 76.4812 78.5292C76.7109 78.0975 76.8257 77.5969 76.8257 77.0274ZM83.5051 80.9404C82.7978 80.9404 82.1549 80.7797 81.5762 80.4582C81.0067 80.1367 80.5566 79.682 80.2259 79.0941C79.9044 78.4971 79.7437 77.8082 79.7437 77.0274C79.7437 76.2558 79.909 75.5761 80.2397 74.9882C80.5796 74.3912 81.0388 73.9365 81.6175 73.6242C82.1962 73.3027 82.8438 73.1419 83.5602 73.1419C84.2767 73.1419 84.9243 73.3027 85.503 73.6242C86.0817 73.9365 86.5363 74.3866 86.867 74.9744C87.2069 75.5623 87.3768 76.2466 87.3768 77.0274C87.3768 77.8082 87.2023 78.4971 86.8532 79.0941C86.5134 79.682 86.0495 80.1367 85.4616 80.4582C84.8738 80.7797 84.2216 80.9404 83.5051 80.9404ZM83.5051 79.8382C83.9552 79.8382 84.3778 79.7325 84.7727 79.5213C85.1677 79.31 85.4846 78.9931 85.7234 78.5706C85.9714 78.148 86.0954 77.6336 86.0954 77.0274C86.0954 76.4212 85.976 75.9068 85.7372 75.4842C85.4984 75.0617 85.1861 74.7494 84.8003 74.5473C84.4145 74.336 83.9966 74.2304 83.5465 74.2304C83.0872 74.2304 82.6647 74.336 82.2789 74.5473C81.9023 74.7494 81.5991 75.0617 81.3695 75.4842C81.1399 75.9068 81.025 76.4212 81.025 77.0274C81.025 77.6428 81.1353 78.1618 81.3557 78.5843C81.5854 79.0069 81.8885 79.3238 82.2651 79.535C82.6417 79.7371 83.055 79.8382 83.5051 79.8382ZM92.7041 73.1282C93.6227 73.1282 94.3667 73.4083 94.9362 73.9686C95.5057 74.5198 95.7905 75.3189 95.7905 76.366V80.8164H94.5504V76.5452C94.5504 75.7919 94.3621 75.2179 93.9855 74.8229C93.6089 74.4187 93.0945 74.2166 92.4424 74.2166C91.781 74.2166 91.2528 74.4233 90.8579 74.8367C90.4721 75.25 90.2792 75.8517 90.2792 76.6416V80.8164H89.0254V73.2659H90.2792V74.3406C90.5272 73.9548 90.8625 73.6563 91.285 73.4451C91.7167 73.2338 92.1898 73.1282 92.7041 73.1282ZM98.0315 71.213H99.4231L98.1004 74.3406H97.2186L98.0315 71.213ZM102.382 74.2993V78.7497C102.382 79.1171 102.46 79.3789 102.616 79.535C102.772 79.682 103.043 79.7555 103.429 79.7555H104.352V80.8164H103.222C102.524 80.8164 102.001 80.6557 101.652 80.3342C101.303 80.0127 101.128 79.4845 101.128 78.7497V74.2993H100.15V73.2659H101.128V71.3645H102.382V73.2659H104.352V74.2993H102.382ZM113.292 73.1282C113.862 73.1282 114.376 73.2522 114.836 73.5002C115.295 73.739 115.653 74.1018 115.91 74.5886C116.177 75.0755 116.31 75.6679 116.31 76.366V80.8164H115.07V76.5452C115.07 75.7919 114.881 75.2179 114.505 74.8229C114.128 74.4187 113.614 74.2166 112.962 74.2166C112.3 74.2166 111.772 74.4233 111.377 74.8367C110.991 75.25 110.798 75.8517 110.798 76.6416V80.8164H109.545V70.6205H110.798V74.3406C111.047 73.9548 111.386 73.6563 111.818 73.4451C112.259 73.2338 112.75 73.1282 113.292 73.1282ZM117.889 77.0136C117.889 76.242 118.046 75.5669 118.358 74.9882C118.67 74.4003 119.097 73.9457 119.639 73.6242C120.19 73.3027 120.801 73.1419 121.472 73.1419C122.133 73.1419 122.707 73.2843 123.194 73.5691C123.681 73.8538 124.044 74.212 124.283 74.6438V73.2659H125.55V80.8164H124.283V79.411C124.035 79.8519 123.663 80.2193 123.167 80.5133C122.68 80.798 122.11 80.9404 121.458 80.9404C120.787 80.9404 120.181 80.7751 119.639 80.4444C119.097 80.1137 118.67 79.6498 118.358 79.0528C118.046 78.4557 117.889 77.776 117.889 77.0136ZM124.283 77.0274C124.283 76.4579 124.168 75.9619 123.938 75.5393C123.708 75.1168 123.396 74.7953 123.001 74.5749C122.615 74.3452 122.188 74.2304 121.72 74.2304C121.251 74.2304 120.824 74.3406 120.438 74.5611C120.053 74.7815 119.745 75.103 119.515 75.5256C119.286 75.9481 119.171 76.4441 119.171 77.0136C119.171 77.5923 119.286 78.0975 119.515 78.5292C119.745 78.9518 120.053 79.2778 120.438 79.5075C120.824 79.7279 121.251 79.8382 121.72 79.8382C122.188 79.8382 122.615 79.7279 123.001 79.5075C123.396 79.2778 123.708 78.9518 123.938 78.5292C124.168 78.0975 124.283 77.5969 124.283 77.0274ZM130.48 79.659L132.822 73.2659H134.159L131.196 80.8164H129.736L126.773 73.2659H128.124L130.48 79.659ZM142.281 76.7518C142.281 76.9907 142.268 77.2433 142.24 77.5096H136.205C136.251 78.2537 136.504 78.8369 136.963 79.2595C137.431 79.6728 137.996 79.8795 138.658 79.8795C139.2 79.8795 139.65 79.7555 140.008 79.5075C140.375 79.2503 140.633 78.9104 140.78 78.4879H142.13C141.928 79.2135 141.524 79.806 140.917 80.2653C140.311 80.7154 139.558 80.9404 138.658 80.9404C137.941 80.9404 137.298 80.7797 136.729 80.4582C136.168 80.1367 135.728 79.682 135.406 79.0941C135.085 78.4971 134.924 77.8082 134.924 77.0274C134.924 76.2466 135.08 75.5623 135.392 74.9744C135.705 74.3866 136.141 73.9365 136.701 73.6242C137.271 73.3027 137.923 73.1419 138.658 73.1419C139.374 73.1419 140.008 73.2981 140.559 73.6104C141.11 73.9227 141.533 74.3544 141.827 74.9055C142.13 75.4475 142.281 76.0629 142.281 76.7518ZM140.986 76.49C140.986 76.0124 140.881 75.6036 140.669 75.2638C140.458 74.9147 140.169 74.6529 139.801 74.4784C139.443 74.2947 139.044 74.2029 138.603 74.2029C137.969 74.2029 137.427 74.4049 136.977 74.8091C136.536 75.2133 136.283 75.7736 136.219 76.49H140.986ZM147.141 77.0136C147.141 76.242 147.297 75.5669 147.61 74.9882C147.922 74.4003 148.349 73.9457 148.891 73.6242C149.442 73.3027 150.053 73.1419 150.724 73.1419C151.385 73.1419 151.959 73.2843 152.446 73.5691C152.933 73.8538 153.296 74.212 153.534 74.6438V73.2659H154.802V80.8164H153.534V79.411C153.286 79.8519 152.914 80.2193 152.418 80.5133C151.931 80.798 151.362 80.9404 150.71 80.9404C150.039 80.9404 149.433 80.7751 148.891 80.4444C148.349 80.1137 147.922 79.6498 147.61 79.0528C147.297 78.4557 147.141 77.776 147.141 77.0136ZM153.534 77.0274C153.534 76.4579 153.42 75.9619 153.19 75.5393C152.96 75.1168 152.648 74.7953 152.253 74.5749C151.867 74.3452 151.44 74.2304 150.972 74.2304C150.503 74.2304 150.076 74.3406 149.69 74.5611C149.304 74.7815 148.997 75.103 148.767 75.5256C148.537 75.9481 148.423 76.4441 148.423 77.0136C148.423 77.5923 148.537 78.0975 148.767 78.5292C148.997 78.9518 149.304 79.2778 149.69 79.5075C150.076 79.7279 150.503 79.8382 150.972 79.8382C151.44 79.8382 151.867 79.7279 152.253 79.5075C152.648 79.2778 152.96 78.9518 153.19 78.5292C153.42 78.0975 153.534 77.5969 153.534 77.0274ZM160.6 73.1282C161.518 73.1282 162.262 73.4083 162.832 73.9686C163.401 74.5198 163.686 75.3189 163.686 76.366V80.8164H162.446V76.5452C162.446 75.7919 162.258 75.2179 161.881 74.8229C161.504 74.4187 160.99 74.2166 160.338 74.2166C159.676 74.2166 159.148 74.4233 158.753 74.8367C158.368 75.25 158.175 75.8517 158.175 76.6416V80.8164H156.921V73.2659H158.175V74.3406C158.423 73.9548 158.758 73.6563 159.18 73.4451C159.612 73.2338 160.085 73.1282 160.6 73.1282ZM172.237 73.2659L167.691 84.3712H166.395L167.883 80.7337L164.838 73.2659H166.23L168.6 79.3835L170.942 73.2659H172.237ZM180.285 73.1419C180.937 73.1419 181.507 73.2843 181.993 73.5691C182.489 73.8538 182.857 74.212 183.096 74.6438V73.2659H184.363V80.9817C184.363 81.6707 184.216 82.2815 183.922 82.8142C183.628 83.3562 183.206 83.7787 182.655 84.0818C182.113 84.385 181.479 84.5365 180.753 84.5365C179.761 84.5365 178.935 84.3023 178.273 83.8338C177.612 83.3654 177.222 82.727 177.102 81.9187H178.342C178.48 82.3779 178.765 82.7454 179.196 83.0209C179.628 83.3057 180.147 83.448 180.753 83.448C181.442 83.448 182.003 83.2322 182.434 82.8005C182.875 82.3688 183.096 81.7625 183.096 80.9817V79.3972C182.848 79.8382 182.48 80.2056 181.993 80.4995C181.507 80.7934 180.937 80.9404 180.285 80.9404C179.614 80.9404 179.004 80.7751 178.452 80.4444C177.91 80.1137 177.483 79.6498 177.171 79.0528C176.859 78.4557 176.703 77.776 176.703 77.0136C176.703 76.242 176.859 75.5669 177.171 74.9882C177.483 74.4003 177.91 73.9457 178.452 73.6242C179.004 73.3027 179.614 73.1419 180.285 73.1419ZM183.096 77.0274C183.096 76.4579 182.981 75.9619 182.751 75.5393C182.522 75.1168 182.209 74.7953 181.814 74.5749C181.428 74.3452 181.001 74.2304 180.533 74.2304C180.064 74.2304 179.637 74.3406 179.252 74.5611C178.866 74.7815 178.558 75.103 178.328 75.5256C178.099 75.9481 177.984 76.4441 177.984 77.0136C177.984 77.5923 178.099 78.0975 178.328 78.5292C178.558 78.9518 178.866 79.2778 179.252 79.5075C179.637 79.7279 180.064 79.8382 180.533 79.8382C181.001 79.8382 181.428 79.7279 181.814 79.5075C182.209 79.2778 182.522 78.9518 182.751 78.5292C182.981 78.0975 183.096 77.5969 183.096 77.0274ZM189.775 80.9404C189.068 80.9404 188.425 80.7797 187.846 80.4582C187.277 80.1367 186.827 79.682 186.496 79.0941C186.174 78.4971 186.014 77.8082 186.014 77.0274C186.014 76.2558 186.179 75.5761 186.51 74.9882C186.85 74.3912 187.309 73.9365 187.887 73.6242C188.466 73.3027 189.114 73.1419 189.83 73.1419C190.547 73.1419 191.194 73.3027 191.773 73.6242C192.352 73.9365 192.806 74.3866 193.137 74.9744C193.477 75.5623 193.647 76.2466 193.647 77.0274C193.647 77.8082 193.472 78.4971 193.123 79.0941C192.783 79.682 192.319 80.1367 191.732 80.4582C191.144 80.7797 190.492 80.9404 189.775 80.9404ZM189.775 79.8382C190.225 79.8382 190.648 79.7325 191.043 79.5213C191.438 79.31 191.755 78.9931 191.993 78.5706C192.241 78.148 192.365 77.6336 192.365 77.0274C192.365 76.4212 192.246 75.9068 192.007 75.4842C191.768 75.0617 191.456 74.7494 191.07 74.5473C190.684 74.336 190.267 74.2304 189.816 74.2304C189.357 74.2304 188.935 74.336 188.549 74.5473C188.172 74.7494 187.869 75.0617 187.639 75.4842C187.41 75.9068 187.295 76.4212 187.295 77.0274C187.295 77.6428 187.405 78.1618 187.626 78.5843C187.855 79.0069 188.158 79.3238 188.535 79.535C188.912 79.7371 189.325 79.8382 189.775 79.8382ZM194.827 77.0136C194.827 76.242 194.983 75.5669 195.295 74.9882C195.608 74.4003 196.035 73.9457 196.577 73.6242C197.128 73.3027 197.739 73.1419 198.409 73.1419C199.071 73.1419 199.645 73.2843 200.131 73.5691C200.618 73.8538 200.981 74.212 201.22 74.6438V73.2659H202.488V80.8164H201.22V79.411C200.972 79.8519 200.6 80.2193 200.104 80.5133C199.617 80.798 199.048 80.9404 198.395 80.9404C197.725 80.9404 197.119 80.7751 196.577 80.4444C196.035 80.1137 195.608 79.6498 195.295 79.0528C194.983 78.4557 194.827 77.776 194.827 77.0136ZM201.22 77.0274C201.22 76.4579 201.105 75.9619 200.875 75.5393C200.646 75.1168 200.334 74.7953 199.939 74.5749C199.553 74.3452 199.126 74.2304 198.657 74.2304C198.189 74.2304 197.762 74.3406 197.376 74.5611C196.99 74.7815 196.682 75.103 196.453 75.5256C196.223 75.9481 196.108 76.4441 196.108 77.0136C196.108 77.5923 196.223 78.0975 196.453 78.5292C196.682 78.9518 196.99 79.2778 197.376 79.5075C197.762 79.7279 198.189 79.8382 198.657 79.8382C199.126 79.8382 199.553 79.7279 199.939 79.5075C200.334 79.2778 200.646 78.9518 200.875 78.5292C201.105 78.0975 201.22 77.5969 201.22 77.0274ZM205.86 70.6205V80.8164H204.606V70.6205H205.86ZM210.67 80.9404C210.091 80.9404 209.572 80.844 209.113 80.6511C208.654 80.449 208.291 80.1734 208.025 79.8244C207.758 79.4661 207.611 79.0574 207.584 78.5981H208.879C208.916 78.9747 209.09 79.2824 209.402 79.5213C209.724 79.7601 210.142 79.8795 210.656 79.8795C211.134 79.8795 211.511 79.7739 211.786 79.5626C212.062 79.3513 212.199 79.0849 212.199 78.7635C212.199 78.4328 212.052 78.1894 211.759 78.0332C211.465 77.8679 211.01 77.7071 210.395 77.551C209.834 77.404 209.375 77.257 209.017 77.1101C208.668 76.9539 208.365 76.7289 208.107 76.4349C207.859 76.1318 207.735 75.7368 207.735 75.25C207.735 74.8642 207.85 74.5106 208.08 74.1891C208.309 73.8676 208.635 73.615 209.058 73.4313C209.481 73.2384 209.963 73.1419 210.505 73.1419C211.341 73.1419 212.016 73.3532 212.53 73.7757C213.045 74.1983 213.32 74.777 213.357 75.5118H212.103C212.075 75.1168 211.915 74.7999 211.621 74.5611C211.336 74.3223 210.95 74.2029 210.463 74.2029C210.013 74.2029 209.655 74.2993 209.389 74.4922C209.122 74.6851 208.989 74.9377 208.989 75.25C208.989 75.498 209.067 75.7047 209.223 75.87C209.389 76.0262 209.591 76.1548 209.83 76.2558C210.078 76.3477 210.417 76.4533 210.849 76.5727C211.391 76.7197 211.832 76.8666 212.172 77.0136C212.512 77.1514 212.801 77.3627 213.04 77.6474C213.288 77.9322 213.417 78.3042 213.426 78.7635C213.426 79.1768 213.311 79.5488 213.081 79.8795C212.852 80.2102 212.526 80.472 212.103 80.6648C211.69 80.8486 211.212 80.9404 210.67 80.9404ZM225.372 73.2659L220.825 84.3712H219.53L221.018 80.7337L217.973 73.2659H219.365L221.735 79.3835L224.077 73.2659H225.372ZM233.522 76.7518C233.522 76.9907 233.508 77.2433 233.48 77.5096H227.446C227.492 78.2537 227.744 78.8369 228.203 79.2595C228.672 79.6728 229.237 79.8795 229.898 79.8795C230.44 79.8795 230.89 79.7555 231.248 79.5075C231.616 79.2503 231.873 78.9104 232.02 78.4879H233.37C233.168 79.2135 232.764 79.806 232.158 80.2653C231.552 80.7154 230.798 80.9404 229.898 80.9404C229.182 80.9404 228.539 80.7797 227.969 80.4582C227.409 80.1367 226.968 79.682 226.646 79.0941C226.325 78.4971 226.164 77.8082 226.164 77.0274C226.164 76.2466 226.32 75.5623 226.633 74.9744C226.945 74.3866 227.381 73.9365 227.942 73.6242C228.511 73.3027 229.163 73.1419 229.898 73.1419C230.615 73.1419 231.248 73.2981 231.8 73.6104C232.351 73.9227 232.773 74.3544 233.067 74.9055C233.37 75.4475 233.522 76.0629 233.522 76.7518ZM232.227 76.49C232.227 76.0124 232.121 75.6036 231.91 75.2638C231.698 74.9147 231.409 74.6529 231.042 74.4784C230.683 74.2947 230.284 74.2029 229.843 74.2029C229.209 74.2029 228.667 74.4049 228.217 74.8091C227.776 75.2133 227.524 75.7736 227.459 76.49H232.227ZM236.706 74.2993V78.7497C236.706 79.1171 236.784 79.3789 236.94 79.535C237.097 79.682 237.368 79.7555 237.753 79.7555H238.676V80.8164H237.547C236.849 80.8164 236.325 80.6557 235.976 80.3342C235.627 80.0127 235.452 79.4845 235.452 78.7497V74.2993H234.474V73.2659H235.452V71.3645H236.706V73.2659H238.676V74.2993H236.706ZM240.595 80.8991C240.356 80.8991 240.154 80.8164 239.989 80.6511C239.824 80.4857 239.741 80.2836 239.741 80.0448C239.741 79.806 239.824 79.6039 239.989 79.4386C240.154 79.2732 240.356 79.1906 240.595 79.1906C240.825 79.1906 241.018 79.2732 241.174 79.4386C241.339 79.6039 241.422 79.806 241.422 80.0448C241.422 80.2836 241.339 80.4857 241.174 80.6511C241.018 80.8164 240.825 80.8991 240.595 80.8991Z" fill="#232323"/>
<g filter="url(#filter1_d)">
<rect x="40.4941" y="98.731" width="214.328" height="36.7419" rx="4.59274" fill="url(#paint0_linear)"/>
</g>
<path d="M105.403 120.833H101.392L100.749 122.731H98.0084L101.897 111.984H104.928L108.817 122.731H106.046L105.403 120.833ZM104.729 118.812L103.397 114.877L102.081 118.812H104.729ZM114.715 111.984C115.848 111.984 116.838 112.208 117.685 112.658C118.532 113.107 119.186 113.739 119.645 114.556C120.114 115.362 120.349 116.296 120.349 117.357C120.349 118.409 120.114 119.343 119.645 120.159C119.186 120.976 118.527 121.608 117.67 122.057C116.823 122.506 115.838 122.731 114.715 122.731H110.689V111.984H114.715ZM114.547 120.465C115.537 120.465 116.308 120.195 116.859 119.654C117.41 119.113 117.685 118.347 117.685 117.357C117.685 116.367 117.41 115.597 116.859 115.046C116.308 114.495 115.537 114.219 114.547 114.219H113.307V120.465H114.547ZM126.527 111.984C127.66 111.984 128.65 112.208 129.497 112.658C130.344 113.107 130.998 113.739 131.457 114.556C131.926 115.362 132.161 116.296 132.161 117.357C132.161 118.409 131.926 119.343 131.457 120.159C130.998 120.976 130.339 121.608 129.482 122.057C128.635 122.506 127.65 122.731 126.527 122.731H122.501V111.984H126.527ZM126.359 120.465C127.349 120.465 128.119 120.195 128.671 119.654C129.222 119.113 129.497 118.347 129.497 117.357C129.497 116.367 129.222 115.597 128.671 115.046C128.119 114.495 127.349 114.219 126.359 114.219H125.119V120.465H126.359ZM144.936 120.833H140.925L140.282 122.731H137.542L141.43 111.984H144.462L148.35 122.731H145.579L144.936 120.833ZM144.263 118.812L142.931 114.877L141.614 118.812H144.263ZM161.29 115.383C161.096 115.025 160.815 114.755 160.448 114.571C160.09 114.377 159.667 114.28 159.177 114.28C158.33 114.28 157.651 114.561 157.141 115.122C156.631 115.673 156.375 116.413 156.375 117.342C156.375 118.332 156.641 119.108 157.172 119.669C157.712 120.22 158.452 120.496 159.391 120.496C160.034 120.496 160.575 120.333 161.014 120.006C161.463 119.679 161.79 119.21 161.994 118.597H158.672V116.669H164.367V119.103C164.173 119.756 163.841 120.363 163.372 120.924C162.912 121.486 162.326 121.94 161.611 122.287C160.897 122.634 160.09 122.808 159.192 122.808C158.131 122.808 157.182 122.578 156.345 122.119C155.518 121.649 154.87 121.001 154.401 120.174C153.941 119.348 153.712 118.404 153.712 117.342C153.712 116.281 153.941 115.337 154.401 114.51C154.87 113.673 155.518 113.025 156.345 112.566C157.172 112.096 158.116 111.861 159.177 111.861C160.463 111.861 161.545 112.173 162.423 112.795C163.311 113.418 163.897 114.28 164.183 115.383H161.29ZM171.588 122.838C170.578 122.838 169.649 122.603 168.802 122.134C167.965 121.664 167.297 121.011 166.797 120.174C166.307 119.327 166.062 118.378 166.062 117.327C166.062 116.276 166.307 115.332 166.797 114.495C167.297 113.658 167.965 113.005 168.802 112.535C169.649 112.066 170.578 111.831 171.588 111.831C172.599 111.831 173.523 112.066 174.359 112.535C175.207 113.005 175.87 113.658 176.35 114.495C176.839 115.332 177.084 116.276 177.084 117.327C177.084 118.378 176.839 119.327 176.35 120.174C175.86 121.011 175.196 121.664 174.359 122.134C173.523 122.603 172.599 122.838 171.588 122.838ZM171.588 120.45C172.446 120.45 173.13 120.164 173.64 119.593C174.16 119.021 174.421 118.266 174.421 117.327C174.421 116.378 174.16 115.622 173.64 115.061C173.13 114.49 172.446 114.204 171.588 114.204C170.721 114.204 170.027 114.484 169.506 115.046C168.996 115.607 168.741 116.367 168.741 117.327C168.741 118.276 168.996 119.036 169.506 119.608C170.027 120.169 170.721 120.45 171.588 120.45ZM185.92 120.833H181.909L181.266 122.731H178.526L182.414 111.984H185.445L189.334 122.731H186.563L185.92 120.833ZM185.246 118.812L183.914 114.877L182.598 118.812H185.246ZM193.824 120.71H197.253V122.731H191.206V111.984H193.824V120.71Z" fill="white"/>
<path d="M40.4941 35.9636V52.0382H56.5687V43.7942L54.2724 46.0906V49.7418H42.7905V38.26H51.0345L53.3309 35.9636H40.4941ZM56.5687 35.9636L49.6796 42.8527L47.3833 40.5564L45.0869 42.8527L49.6796 47.4455L58.8651 38.26L56.5687 35.9636Z" fill="#6037A0"/>
<defs>
<filter id="filter0_d" x="0.690863" y="0.75269" width="293.17" height="171.462" filterUnits="userSpaceOnUse" color-interpolation-filters="sRGB">
<feFlood flood-opacity="0" result="BackgroundImageFix"/>
<feColorMatrix in="SourceAlpha" type="matrix" values="0 0 0 0 0 0 0 0 0 0 0 0 0 0 0 0 0 0 127 0"/>
<feOffset dy="3.06183"/>
<feGaussianBlur stdDeviation="7.65457"/>
<feColorMatrix type="matrix" values="0 0 0 0 0 0 0 0 0 0 0 0 0 0 0 0 0 0 0.15 0"/>
<feBlend mode="normal" in2="BackgroundImageFix" result="effect1_dropShadow"/>
<feBlend mode="normal" in="SourceGraphic" in2="effect1_dropShadow" result="shape"/>
</filter>
<filter id="filter1_d" x="29.7777" y="92.6073" width="235.761" height="58.1747" filterUnits="userSpaceOnUse" color-interpolation-filters="sRGB">
<feFlood flood-opacity="0" result="BackgroundImageFix"/>
<feColorMatrix in="SourceAlpha" type="matrix" values="0 0 0 0 0 0 0 0 0 0 0 0 0 0 0 0 0 0 127 0"/>
<feOffset dy="4.59274"/>
<feGaussianBlur stdDeviation="5.3582"/>
<feColorMatrix type="matrix" values="0 0 0 0 0.298039 0 0 0 0 0.0235294 0 0 0 0 0.776471 0 0 0 0.2 0"/>
<feBlend mode="normal" in2="BackgroundImageFix" result="effect1_dropShadow"/>
<feBlend mode="normal" in="SourceGraphic" in2="effect1_dropShadow" result="shape"/>
</filter>
<linearGradient id="paint0_linear" x1="254.822" y1="114.74" x2="40.4941" y2="114.74" gradientUnits="userSpaceOnUse">
<stop stop-color="#BFA0EF"/>
<stop offset="1" stop-color="#A6B6F2"/>
</linearGradient>
</defs>
</svg>
