<svg width="301" height="400" viewBox="0 0 301 400" fill="none" xmlns="http://www.w3.org/2000/svg">
<mask id="mask0" mask-type="alpha" maskUnits="userSpaceOnUse" x="0" y="0" width="301" height="400">
<path d="M0 400L174.5 0H300.5V400H0Z" fill="url(#paint0_linear)"/>
</mask>
<g mask="url(#mask0)">
<g style="mix-blend-mode:overlay" opacity="0.6">
<line x1="20" y1="320.5" x2="338" y2="320.5" stroke="white"/>
</g>
<g style="mix-blend-mode:overlay" opacity="0.6">
<line x1="20" y1="298.5" x2="338" y2="298.5" stroke="white"/>
</g>
<g style="mix-blend-mode:overlay" opacity="0.6">
<line x1="20" y1="276.5" x2="338" y2="276.5" stroke="white"/>
</g>
<g style="mix-blend-mode:overlay" opacity="0.6">
<line x1="20" y1="254.5" x2="338" y2="254.5" stroke="white"/>
</g>
<g style="mix-blend-mode:overlay" opacity="0.6">
<line x1="20" y1="232.5" x2="338" y2="232.5" stroke="white"/>
</g>
<mask id="mask1" mask-type="alpha" maskUnits="userSpaceOnUse" x="20" y="231" width="317" height="96">
<rect x="20" y="231" width="317" height="96" fill="url(#paint1_linear)"/>
</mask>
<g mask="url(#mask1)">
<path d="M18 286.542C18 286.542 99.92 238 114.768 238C129.616 238 154.192 314.776 168.528 314.776C182.864 314.776 209.488 276.636 221.264 276.636C233.04 276.636 282.704 276.636 297.04 276.636C311.376 276.636 338 314.776 338 314.776" stroke="url(#paint2_linear)" stroke-width="4"/>
</g>
<circle cx="114" cy="239" r="4" fill="white" stroke="#E95350" stroke-width="2"/>
</g>
<defs>
<linearGradient id="paint0_linear" x1="308.227" y1="29.091" x2="-93.6321" y2="292.444" gradientUnits="userSpaceOnUse">
<stop stop-color="#869DFF"/>
<stop offset="0.0001" stop-color="#869DFF"/>
<stop offset="1" stop-color="#5662F4"/>
</linearGradient>
<linearGradient id="paint1_linear" x1="337" y1="279" x2="20" y2="279" gradientUnits="userSpaceOnUse">
<stop offset="0.015625" stop-color="#C4C4C4" stop-opacity="0"/>
<stop offset="0.244792" stop-color="#C4C4C4"/>
<stop offset="0.520833" stop-color="#C4C4C4"/>
<stop offset="0.765625" stop-color="#C4C4C4"/>
<stop offset="0.984375" stop-color="#C4C4C4" stop-opacity="0"/>
</linearGradient>
<linearGradient id="paint2_linear" x1="109" y1="238" x2="163.747" y2="291.865" gradientUnits="userSpaceOnUse">
<stop offset="0.276071" stop-color="#DD5D5A"/>
<stop offset="1" stop-color="#FF918F"/>
</linearGradient>
</defs>
</svg>
