<svg width="261" height="95" viewBox="0 0 261 95" fill="none" xmlns="http://www.w3.org/2000/svg">
<g filter="url(#filter0_d)">
<rect x="13" y="18" width="224.005" height="58.8013" rx="11.2002" fill="url(#paint0_linear)"/>
<rect x="13.35" y="18.35" width="223.305" height="58.1013" rx="10.8502" stroke="white" stroke-opacity="0.3" stroke-width="0.700015" style="mix-blend-mode:overlay"/>
<mask id="mask0" mask-type="alpha" maskUnits="userSpaceOnUse" x="13" y="18" width="225" height="59">
<rect x="13" y="18" width="224.005" height="58.8013" rx="11.2002" fill="url(#paint1_linear)"/>
</mask>
<g mask="url(#mask0)">
<path d="M231.596 12.3155L223.05 18.0479C213.821 24.5518 196.8 36.722 177.963 38.3782C159.127 40.0344 139.982 31.0442 120.934 30.5843C101.885 30.1245 84.4388 38.0626 66.0978 44.6562C47.8275 51.9551 30.0983 57.0718 20.5157 60.0491L11.6865 62.9601L14.2341 88.3525L23.2756 87.5575C33.0705 86.6963 51.1535 85.1064 69.99 83.4502C88.8264 81.7939 106.909 80.204 125.746 78.5478" stroke="white" stroke-opacity="0.16" stroke-width="1.40003"/>
</g>
<path d="M70.8663 35.0898V37.8003H70.0486V35.0898L66.9126 29.9601H67.7974L70.4854 34.3618L73.1735 29.9601H74.0023L70.8663 35.0898ZM76.6366 37.8563C76.0691 37.8563 75.5576 37.7294 75.1021 37.4755C74.6467 37.2141 74.2882 36.8557 74.0269 36.4003C73.7656 35.9448 73.6349 35.4296 73.6349 34.8546C73.6349 34.2797 73.7656 33.7645 74.0269 33.309C74.2882 32.8535 74.6467 32.4988 75.1021 32.245C75.5576 31.9911 76.0691 31.8642 76.6366 31.8642C77.204 31.8642 77.7155 31.9911 78.171 32.245C78.6265 32.4988 78.9812 32.8535 79.235 33.309C79.4964 33.7645 79.627 34.2797 79.627 34.8546C79.627 35.4296 79.4964 35.9448 79.235 36.4003C78.9812 36.8557 78.6265 37.2141 78.171 37.4755C77.7155 37.7294 77.204 37.8563 76.6366 37.8563ZM76.6366 37.1507C77.0547 37.1507 77.4281 37.0573 77.7566 36.8707C78.0926 36.6765 78.3539 36.404 78.5406 36.0531C78.7273 35.7021 78.8206 35.3026 78.8206 34.8546C78.8206 34.4066 78.7273 34.0071 78.5406 33.6562C78.3539 33.3053 78.0926 33.0365 77.7566 32.8498C77.4281 32.6556 77.0547 32.5586 76.6366 32.5586C76.2184 32.5586 75.8413 32.6556 75.5053 32.8498C75.1768 33.0365 74.9155 33.3053 74.7213 33.6562C74.5347 34.0071 74.4413 34.4066 74.4413 34.8546C74.4413 35.3026 74.5347 35.7021 74.7213 36.0531C74.9155 36.404 75.1768 36.6765 75.5053 36.8707C75.8413 37.0573 76.2184 37.1507 76.6366 37.1507ZM86.3355 31.909V37.8003H85.5738V36.7251C85.3648 37.0835 85.0773 37.3635 84.7114 37.5651C84.3455 37.7592 83.9274 37.8563 83.457 37.8563C82.6879 37.8563 82.0794 37.6435 81.6314 37.2179C81.1908 36.7848 80.9705 36.1539 80.9705 35.325V31.909H81.7658V35.2466C81.7658 35.8664 81.9188 36.3368 82.225 36.6579C82.5311 36.9789 82.9679 37.1395 83.5354 37.1395C84.1551 37.1395 84.6442 36.9528 85.0026 36.5795C85.361 36.1987 85.5402 35.6722 85.5402 35.0002V31.909H86.3355ZM89.1003 33.0626C89.2869 32.6668 89.5632 32.3682 89.9291 32.1666C90.3024 31.965 90.7616 31.8642 91.3067 31.8642V32.637L91.1163 32.6258C90.4965 32.6258 90.0112 32.8162 89.6603 33.197C89.3093 33.5778 89.1339 34.1117 89.1339 34.7986V37.8003H88.3386V31.909H89.1003V33.0626ZM95.3173 29.4897H96.1126V37.8003H95.3173V29.4897ZM103.231 35.101H98.3028C98.3476 35.7133 98.5828 36.2099 99.0084 36.5907C99.4341 36.964 99.9717 37.1507 100.621 37.1507C100.987 37.1507 101.323 37.0872 101.629 36.9603C101.935 36.8259 102.201 36.6317 102.425 36.3779L102.873 36.8931C102.611 37.2067 102.283 37.4456 101.887 37.6099C101.499 37.7742 101.069 37.8563 100.599 37.8563C99.9941 37.8563 99.4565 37.7294 98.986 37.4755C98.5231 37.2141 98.161 36.8557 97.8996 36.4003C97.6383 35.9448 97.5076 35.4296 97.5076 34.8546C97.5076 34.2797 97.6308 33.7645 97.8772 33.309C98.1311 32.8535 98.4746 32.4988 98.9076 32.245C99.3482 31.9911 99.841 31.8642 100.386 31.8642C100.931 31.8642 101.42 31.9911 101.853 32.245C102.286 32.4988 102.626 32.8535 102.873 33.309C103.119 33.757 103.242 34.2722 103.242 34.8546L103.231 35.101ZM100.386 32.5474C99.8186 32.5474 99.3407 32.7303 98.9524 33.0962C98.5716 33.4546 98.3551 33.925 98.3028 34.5074H102.481C102.428 33.925 102.208 33.4546 101.82 33.0962C101.439 32.7303 100.961 32.5474 100.386 32.5474ZM106.534 31.8642C107.303 31.8642 107.892 32.0583 108.303 32.4466C108.714 32.8274 108.919 33.3949 108.919 34.149V37.8003H108.158V36.8819C107.978 37.188 107.713 37.427 107.362 37.5987C107.019 37.7704 106.608 37.8563 106.13 37.8563C105.473 37.8563 104.951 37.6995 104.562 37.3859C104.174 37.0723 103.98 36.6579 103.98 36.1427C103.98 35.6424 104.159 35.2392 104.517 34.933C104.883 34.6269 105.462 34.4738 106.254 34.4738H108.124V34.1154C108.124 33.6077 107.982 33.2231 107.698 32.9618C107.415 32.693 107 32.5586 106.455 32.5586C106.082 32.5586 105.723 32.622 105.38 32.749C105.036 32.8685 104.741 33.0365 104.495 33.253L104.137 32.6594C104.435 32.4055 104.794 32.2114 105.212 32.077C105.63 31.9351 106.071 31.8642 106.534 31.8642ZM106.254 37.2291C106.702 37.2291 107.086 37.1283 107.407 36.9267C107.728 36.7176 107.967 36.4189 108.124 36.0307V35.0674H106.276C105.268 35.0674 104.764 35.4184 104.764 36.1203C104.764 36.4637 104.895 36.7363 105.156 36.9379C105.417 37.132 105.783 37.2291 106.254 37.2291ZM113.039 34.8434L111.65 36.1203V37.8003H110.855V29.4897H111.65V35.1234L115.167 31.909H116.153L113.633 34.317L116.388 37.8003H115.414L113.039 34.8434ZM120.827 33.0626C121.013 32.6668 121.29 32.3682 121.656 32.1666C122.029 31.965 122.488 31.8642 123.033 31.8642V32.637L122.843 32.6258C122.223 32.6258 121.738 32.8162 121.387 33.197C121.036 33.5778 120.86 34.1117 120.86 34.7986V37.8003H120.065V31.909H120.827V33.0626ZM126.299 31.8642C127.068 31.8642 127.658 32.0583 128.069 32.4466C128.479 32.8274 128.685 33.3949 128.685 34.149V37.8003H127.923V36.8819C127.744 37.188 127.479 37.427 127.128 37.5987C126.784 37.7704 126.374 37.8563 125.896 37.8563C125.239 37.8563 124.716 37.6995 124.328 37.3859C123.939 37.0723 123.745 36.6579 123.745 36.1427C123.745 35.6424 123.924 35.2392 124.283 34.933C124.649 34.6269 125.227 34.4738 126.019 34.4738H127.889V34.1154C127.889 33.6077 127.747 33.2231 127.464 32.9618C127.18 32.693 126.766 32.5586 126.22 32.5586C125.847 32.5586 125.489 32.622 125.145 32.749C124.802 32.8685 124.507 33.0365 124.26 33.253L123.902 32.6594C124.201 32.4055 124.559 32.2114 124.977 32.077C125.395 31.9351 125.836 31.8642 126.299 31.8642ZM126.019 37.2291C126.467 37.2291 126.851 37.1283 127.173 36.9267C127.494 36.7176 127.733 36.4189 127.889 36.0307V35.0674H126.041C125.033 35.0674 124.529 35.4184 124.529 36.1203C124.529 36.4637 124.66 36.7363 124.921 36.9379C125.183 37.132 125.548 37.2291 126.019 37.2291ZM133.723 37.4419C133.574 37.5763 133.387 37.6808 133.163 37.7555C132.946 37.8227 132.719 37.8563 132.48 37.8563C131.927 37.8563 131.502 37.707 131.203 37.4083C130.904 37.1096 130.755 36.6877 130.755 36.1427V32.581H129.702V31.909H130.755V30.6209H131.55V31.909H133.342V32.581H131.55V36.0979C131.55 36.4488 131.636 36.7176 131.808 36.9043C131.987 37.0835 132.241 37.1731 132.569 37.1731C132.734 37.1731 132.89 37.1469 133.04 37.0947C133.196 37.0424 133.331 36.9677 133.443 36.8707L133.723 37.4419ZM139.868 35.101H134.94C134.985 35.7133 135.22 36.2099 135.646 36.5907C136.072 36.964 136.609 37.1507 137.259 37.1507C137.625 37.1507 137.961 37.0872 138.267 36.9603C138.573 36.8259 138.838 36.6317 139.062 36.3779L139.51 36.8931C139.249 37.2067 138.92 37.4456 138.524 37.6099C138.136 37.7742 137.707 37.8563 137.236 37.8563C136.632 37.8563 136.094 37.7294 135.624 37.4755C135.161 37.2141 134.798 36.8557 134.537 36.4003C134.276 35.9448 134.145 35.4296 134.145 34.8546C134.145 34.2797 134.268 33.7645 134.515 33.309C134.769 32.8535 135.112 32.4988 135.545 32.245C135.986 31.9911 136.478 31.8642 137.024 31.8642C137.569 31.8642 138.058 31.9911 138.491 32.245C138.924 32.4988 139.264 32.8535 139.51 33.309C139.756 33.757 139.88 34.2722 139.88 34.8546L139.868 35.101ZM137.024 32.5474C136.456 32.5474 135.978 32.7303 135.59 33.0962C135.209 33.4546 134.993 33.925 134.94 34.5074H139.118C139.066 33.925 138.845 33.4546 138.457 33.0962C138.076 32.7303 137.599 32.5474 137.024 32.5474ZM143.982 31.909H144.777V37.8003H143.982V31.909ZM144.385 30.6209C144.22 30.6209 144.082 30.5649 143.97 30.4529C143.858 30.3409 143.802 30.2065 143.802 30.0497C143.802 29.9004 143.858 29.7697 143.97 29.6577C144.082 29.5457 144.22 29.4897 144.385 29.4897C144.549 29.4897 144.687 29.5457 144.799 29.6577C144.911 29.7623 144.967 29.8892 144.967 30.0385C144.967 30.2028 144.911 30.3409 144.799 30.4529C144.687 30.5649 144.549 30.6209 144.385 30.6209ZM148.345 37.8563C147.867 37.8563 147.408 37.7891 146.967 37.6547C146.534 37.5128 146.194 37.3373 145.948 37.1283L146.306 36.5011C146.553 36.6952 146.862 36.8557 147.236 36.9827C147.609 37.1021 147.997 37.1619 148.401 37.1619C148.938 37.1619 149.334 37.0797 149.588 36.9155C149.849 36.7437 149.98 36.5048 149.98 36.1987C149.98 35.9821 149.909 35.8141 149.767 35.6946C149.625 35.5677 149.446 35.4744 149.229 35.4146C149.013 35.3474 148.725 35.284 148.367 35.2242C147.889 35.1346 147.505 35.045 147.213 34.9554C146.922 34.8584 146.672 34.6978 146.463 34.4738C146.261 34.2498 146.161 33.9399 146.161 33.5442C146.161 33.0514 146.366 32.6482 146.777 32.3346C147.187 32.021 147.758 31.8642 148.49 31.8642C148.871 31.8642 149.252 31.9164 149.633 32.021C150.013 32.118 150.327 32.2487 150.573 32.413L150.226 33.0514C149.741 32.7154 149.162 32.5474 148.49 32.5474C147.983 32.5474 147.598 32.637 147.337 32.8162C147.083 32.9954 146.956 33.2306 146.956 33.5218C146.956 33.7458 147.027 33.925 147.169 34.0594C147.318 34.1938 147.501 34.2946 147.717 34.3618C147.934 34.4216 148.233 34.485 148.613 34.5522C149.084 34.6418 149.461 34.7314 149.745 34.821C150.028 34.9106 150.271 35.0637 150.473 35.2802C150.674 35.4968 150.775 35.7954 150.775 36.1763C150.775 36.6915 150.559 37.1021 150.125 37.4083C149.7 37.707 149.106 37.8563 148.345 37.8563ZM156.789 31.8642C157.558 31.8642 158.148 32.0583 158.559 32.4466C158.97 32.8274 159.175 33.3949 159.175 34.149V37.8003H158.413V36.8819C158.234 37.188 157.969 37.427 157.618 37.5987C157.275 37.7704 156.864 37.8563 156.386 37.8563C155.729 37.8563 155.206 37.6995 154.818 37.3859C154.43 37.0723 154.236 36.6579 154.236 36.1427C154.236 35.6424 154.415 35.2392 154.773 34.933C155.139 34.6269 155.718 34.4738 156.509 34.4738H158.38V34.1154C158.38 33.6077 158.238 33.2231 157.954 32.9618C157.67 32.693 157.256 32.5586 156.711 32.5586C156.338 32.5586 155.979 32.622 155.636 32.749C155.292 32.8685 154.997 33.0365 154.751 33.253L154.393 32.6594C154.691 32.4055 155.05 32.2114 155.468 32.077C155.886 31.9351 156.326 31.8642 156.789 31.8642ZM156.509 37.2291C156.957 37.2291 157.342 37.1283 157.663 36.9267C157.984 36.7176 158.223 36.4189 158.38 36.0307V35.0674H156.532C155.524 35.0674 155.02 35.4184 155.02 36.1203C155.02 36.4637 155.15 36.7363 155.412 36.9379C155.673 37.132 156.039 37.2291 156.509 37.2291ZM164.146 31.8642C164.699 31.8642 165.199 31.9911 165.647 32.245C166.095 32.4914 166.446 32.8423 166.7 33.2978C166.954 33.7533 167.081 34.2722 167.081 34.8546C167.081 35.437 166.954 35.956 166.7 36.4115C166.446 36.8669 166.095 37.2216 165.647 37.4755C165.199 37.7294 164.699 37.8563 164.146 37.8563C163.653 37.8563 163.209 37.7518 162.813 37.5427C162.425 37.3336 162.111 37.0312 161.873 36.6355V37.8003H161.111V29.4897H161.906V33.029C162.153 32.6482 162.466 32.3607 162.847 32.1666C163.235 31.965 163.668 31.8642 164.146 31.8642ZM164.09 37.1507C164.501 37.1507 164.874 37.0573 165.21 36.8707C165.546 36.6765 165.808 36.404 165.994 36.0531C166.188 35.7021 166.285 35.3026 166.285 34.8546C166.285 34.4066 166.188 34.0071 165.994 33.6562C165.808 33.3053 165.546 33.0365 165.21 32.8498C164.874 32.6556 164.501 32.5586 164.09 32.5586C163.672 32.5586 163.295 32.6556 162.959 32.8498C162.63 33.0365 162.369 33.3053 162.175 33.6562C161.988 34.0071 161.895 34.4066 161.895 34.8546C161.895 35.3026 161.988 35.7021 162.175 36.0531C162.369 36.404 162.63 36.6765 162.959 36.8707C163.295 37.0573 163.672 37.1507 164.09 37.1507ZM171.479 31.8642C172.219 31.8642 172.805 32.0807 173.238 32.5138C173.678 32.9394 173.899 33.5629 173.899 34.3842V37.8003H173.103V34.4626C173.103 33.8503 172.95 33.3837 172.644 33.0626C172.338 32.7415 171.901 32.581 171.334 32.581C170.699 32.581 170.195 32.7714 169.822 33.1522C169.456 33.5255 169.273 34.0445 169.273 34.709V37.8003H168.478V31.909H169.239V32.9954C169.456 32.637 169.755 32.3607 170.135 32.1666C170.524 31.965 170.972 31.8642 171.479 31.8642ZM178.263 37.8563C177.696 37.8563 177.185 37.7294 176.729 37.4755C176.274 37.2141 175.915 36.8557 175.654 36.4003C175.392 35.9448 175.262 35.4296 175.262 34.8546C175.262 34.2797 175.392 33.7645 175.654 33.309C175.915 32.8535 176.274 32.4988 176.729 32.245C177.185 31.9911 177.696 31.8642 178.263 31.8642C178.831 31.8642 179.342 31.9911 179.798 32.245C180.253 32.4988 180.608 32.8535 180.862 33.309C181.123 33.7645 181.254 34.2797 181.254 34.8546C181.254 35.4296 181.123 35.9448 180.862 36.4003C180.608 36.8557 180.253 37.2141 179.798 37.4755C179.342 37.7294 178.831 37.8563 178.263 37.8563ZM178.263 37.1507C178.682 37.1507 179.055 37.0573 179.383 36.8707C179.719 36.6765 179.981 36.404 180.168 36.0531C180.354 35.7021 180.448 35.3026 180.448 34.8546C180.448 34.4066 180.354 34.0071 180.168 33.6562C179.981 33.3053 179.719 33.0365 179.383 32.8498C179.055 32.6556 178.682 32.5586 178.263 32.5586C177.845 32.5586 177.468 32.6556 177.132 32.8498C176.804 33.0365 176.542 33.3053 176.348 33.6562C176.162 34.0071 176.068 34.4066 176.068 34.8546C176.068 35.3026 176.162 35.7021 176.348 36.0531C176.542 36.404 176.804 36.6765 177.132 36.8707C177.468 37.0573 177.845 37.1507 178.263 37.1507ZM183.415 33.0626C183.602 32.6668 183.878 32.3682 184.244 32.1666C184.617 31.965 185.076 31.8642 185.622 31.8642V32.637L185.431 32.6258C184.811 32.6258 184.326 32.8162 183.975 33.197C183.624 33.5778 183.449 34.1117 183.449 34.7986V37.8003H182.653V31.909H183.415V33.0626ZM194.185 31.8642C194.924 31.8642 195.503 32.077 195.921 32.5026C196.346 32.9282 196.559 33.5554 196.559 34.3842V37.8003H195.764V34.4626C195.764 33.8503 195.615 33.3837 195.316 33.0626C195.025 32.7415 194.61 32.581 194.073 32.581C193.46 32.581 192.979 32.7714 192.628 33.1522C192.277 33.5255 192.101 34.0445 192.101 34.709V37.8003H191.306V34.4626C191.306 33.8503 191.157 33.3837 190.858 33.0626C190.567 32.7415 190.149 32.581 189.604 32.581C188.999 32.581 188.517 32.7714 188.159 33.1522C187.808 33.5255 187.633 34.0445 187.633 34.709V37.8003H186.837V31.909H187.599V32.9842C187.808 32.6258 188.099 32.3495 188.473 32.1554C188.846 31.9612 189.275 31.8642 189.761 31.8642C190.253 31.8642 190.679 31.9687 191.037 32.1778C191.403 32.3868 191.676 32.6967 191.855 33.1074C192.072 32.7191 192.381 32.4167 192.785 32.2002C193.195 31.9762 193.662 31.8642 194.185 31.8642ZM200.553 31.8642C201.322 31.8642 201.912 32.0583 202.322 32.4466C202.733 32.8274 202.938 33.3949 202.938 34.149V37.8003H202.177V36.8819C201.997 37.188 201.732 37.427 201.381 37.5987C201.038 37.7704 200.627 37.8563 200.149 37.8563C199.492 37.8563 198.97 37.6995 198.581 37.3859C198.193 37.0723 197.999 36.6579 197.999 36.1427C197.999 35.6424 198.178 35.2392 198.537 34.933C198.902 34.6269 199.481 34.4738 200.273 34.4738H202.143V34.1154C202.143 33.6077 202.001 33.2231 201.717 32.9618C201.434 32.693 201.019 32.5586 200.474 32.5586C200.101 32.5586 199.742 32.622 199.399 32.749C199.055 32.8685 198.761 33.0365 198.514 33.253L198.156 32.6594C198.454 32.4055 198.813 32.2114 199.231 32.077C199.649 31.9351 200.09 31.8642 200.553 31.8642ZM200.273 37.2291C200.721 37.2291 201.105 37.1283 201.426 36.9267C201.747 36.7176 201.986 36.4189 202.143 36.0307V35.0674H200.295C199.287 35.0674 198.783 35.4184 198.783 36.1203C198.783 36.4637 198.914 36.7363 199.175 36.9379C199.436 37.132 199.802 37.2291 200.273 37.2291ZM204.874 29.4897H205.669V37.8003H204.874V29.4897ZM207.658 29.4897H208.453V37.8003H207.658V29.4897ZM215.392 31.909L212.447 38.5059C212.208 39.0585 211.931 39.4505 211.618 39.6819C211.304 39.9134 210.927 40.0291 210.487 40.0291C210.203 40.0291 209.938 39.9843 209.691 39.8947C209.445 39.8051 209.232 39.6707 209.053 39.4915L209.423 38.8979C209.721 39.1966 210.08 39.3459 210.498 39.3459C210.767 39.3459 210.994 39.2713 211.181 39.1219C211.375 38.9726 211.554 38.7187 211.719 38.3603L211.976 37.7891L209.344 31.909H210.173L212.391 36.9155L214.608 31.909H215.392ZM71.0119 43.8642C71.7511 43.8642 72.3372 44.0807 72.7703 44.5138C73.2108 44.9394 73.4311 45.5629 73.4311 46.3842V49.8003H72.6359V46.4626C72.6359 45.8503 72.4828 45.3837 72.1767 45.0626C71.8705 44.7415 71.4337 44.581 70.8663 44.581C70.2316 44.581 69.7276 44.7714 69.3542 45.1522C68.9883 45.5255 68.8054 46.0445 68.8054 46.709V49.8003H68.0102V41.4897H68.8054V44.9394C69.0219 44.5959 69.3206 44.3308 69.7014 44.1442C70.0822 43.9575 70.519 43.8642 71.0119 43.8642ZM75.366 43.909H76.1613V49.8003H75.366V43.909ZM75.7692 42.6209C75.605 42.6209 75.4668 42.5649 75.3548 42.4529C75.2428 42.3409 75.1868 42.2065 75.1868 42.0497C75.1868 41.9004 75.2428 41.7697 75.3548 41.6577C75.4668 41.5457 75.605 41.4897 75.7692 41.4897C75.9335 41.4897 76.0717 41.5457 76.1837 41.6577C76.2957 41.7623 76.3517 41.8892 76.3517 42.0385C76.3517 42.2028 76.2957 42.3409 76.1837 42.4529C76.0717 42.5649 75.9335 42.6209 75.7692 42.6209ZM83.6044 43.909V49.0835C83.6044 50.084 83.358 50.8232 82.8652 51.3011C82.3799 51.7865 81.6444 52.0291 80.6588 52.0291C80.1137 52.0291 79.5947 51.947 79.1019 51.7827C78.6166 51.6259 78.2208 51.4057 77.9147 51.1219L78.3179 50.5171C78.6017 50.771 78.9451 50.9689 79.3483 51.1107C79.759 51.2526 80.1884 51.3235 80.6364 51.3235C81.383 51.3235 81.9319 51.1481 82.2828 50.7971C82.6337 50.4536 82.8092 49.916 82.8092 49.1843V48.4339C82.5628 48.8072 82.238 49.0909 81.8348 49.2851C81.4391 49.4792 80.9985 49.5763 80.5132 49.5763C79.9606 49.5763 79.4566 49.4568 79.0011 49.2179C78.5531 48.9715 78.1984 48.6317 77.9371 48.1987C77.6832 47.7581 77.5563 47.2616 77.5563 46.709C77.5563 46.1565 77.6832 45.6637 77.9371 45.2306C78.1984 44.7975 78.5531 44.4615 79.0011 44.2226C79.4491 43.9836 79.9532 43.8642 80.5132 43.8642C81.0134 43.8642 81.4652 43.965 81.8684 44.1666C82.2716 44.3682 82.5964 44.6594 82.8428 45.0402V43.909H83.6044ZM80.5916 48.8707C81.0172 48.8707 81.4017 48.7811 81.7452 48.6019C82.0887 48.4152 82.3537 48.1576 82.5404 47.829C82.7345 47.5005 82.8316 47.1272 82.8316 46.709C82.8316 46.2909 82.7345 45.9213 82.5404 45.6002C82.3537 45.2717 82.0887 45.0178 81.7452 44.8386C81.4092 44.6519 81.0246 44.5586 80.5916 44.5586C80.166 44.5586 79.7814 44.6482 79.4379 44.8274C79.1019 45.0066 78.8369 45.2605 78.6427 45.589C78.4561 45.9175 78.3627 46.2909 78.3627 46.709C78.3627 47.1272 78.4561 47.5005 78.6427 47.829C78.8369 48.1576 79.1019 48.4152 79.4379 48.6019C79.7814 48.7811 80.166 48.8707 80.5916 48.8707ZM88.6059 43.8642C89.3451 43.8642 89.9312 44.0807 90.3643 44.5138C90.8048 44.9394 91.0251 45.5629 91.0251 46.3842V49.8003H90.2299V46.4626C90.2299 45.8503 90.0768 45.3837 89.7707 45.0626C89.4645 44.7415 89.0277 44.581 88.4603 44.581C87.8256 44.581 87.3216 44.7714 86.9482 45.1522C86.5824 45.5255 86.3994 46.0445 86.3994 46.709V49.8003H85.6042V41.4897H86.3994V44.9394C86.616 44.5959 86.9146 44.3308 87.2954 44.1442C87.6762 43.9575 88.1131 43.8642 88.6059 43.8642ZM93.0384 49.8563C92.8742 49.8563 92.7323 49.7966 92.6128 49.6771C92.5008 49.5576 92.4448 49.412 92.4448 49.2403C92.4448 49.0685 92.5008 48.9267 92.6128 48.8147C92.7323 48.6952 92.8742 48.6355 93.0384 48.6355C93.2027 48.6355 93.3446 48.6952 93.4641 48.8147C93.5835 48.9267 93.6433 49.0685 93.6433 49.2403C93.6433 49.412 93.5835 49.5576 93.4641 49.6771C93.3446 49.7966 93.2027 49.8563 93.0384 49.8563Z" fill="white"/>
<path d="M71.5831 66.8899C70.7991 66.8899 70.0897 66.7182 69.455 66.3747C68.8278 66.0237 68.335 65.5459 67.9766 64.9411C67.6182 64.3288 67.439 63.6418 67.439 62.8802C67.439 62.1186 67.6182 61.4354 67.9766 60.8306C68.335 60.2183 68.8315 59.7404 69.4662 59.3969C70.1009 59.046 70.8103 58.8705 71.5943 58.8705C72.2065 58.8705 72.7666 58.9751 73.2743 59.1841C73.7821 59.3857 74.2151 59.6881 74.5735 60.0913L73.8455 60.797C73.2556 60.1772 72.5202 59.8673 71.6391 59.8673C71.0567 59.8673 70.5302 59.998 70.0598 60.2593C69.5894 60.5207 69.2198 60.8828 68.951 61.3458C68.6897 61.8013 68.559 62.3127 68.559 62.8802C68.559 63.4477 68.6897 63.9629 68.951 64.4258C69.2198 64.8813 69.5894 65.2397 70.0598 65.5011C70.5302 65.7624 71.0567 65.8931 71.6391 65.8931C72.5127 65.8931 73.2482 65.5795 73.8455 64.9523L74.5735 65.6579C74.2151 66.0611 73.7783 66.3672 73.2631 66.5763C72.7554 66.7854 72.1953 66.8899 71.5831 66.8899ZM75.7811 60.4386H76.8676V65.8931H80.2836V66.8003H75.7811V60.4386ZM81.2338 60.4386H82.3203V66.8003H81.2338V60.4386ZM87.1144 66.8899C86.4648 66.8899 85.8749 66.748 85.3448 66.4643C84.8221 66.1805 84.4114 65.7923 84.1127 65.2995C83.8141 64.7992 83.6647 64.2392 83.6647 63.6194C83.6647 62.9997 83.8141 62.4434 84.1127 61.9506C84.4114 61.4503 84.8221 61.0583 85.3448 60.7746C85.8749 60.4908 86.4648 60.349 87.1144 60.349C88.212 60.349 89.0483 60.6812 89.6233 61.3458L88.9288 62.0514C88.451 61.5436 87.8573 61.2898 87.148 61.2898C86.6925 61.2898 86.2818 61.3906 85.916 61.5922C85.5576 61.7863 85.2738 62.0626 85.0648 62.421C84.8631 62.7719 84.7623 63.1714 84.7623 63.6194C84.7623 64.06 84.8631 64.4594 85.0648 64.8178C85.2738 65.1688 85.5576 65.4451 85.916 65.6467C86.2818 65.8483 86.6925 65.9491 87.148 65.9491C87.8499 65.9491 88.4435 65.6915 88.9288 65.1763L89.6233 65.8819C89.0408 66.5539 88.2046 66.8899 87.1144 66.8899ZM93.0323 64.0562L91.9459 65.1539V66.8003H90.8595V60.4386H91.9459V63.8098L95.2724 60.4386H96.482L93.7603 63.3058L96.6612 66.8003H95.3732L93.0323 64.0562ZM100.365 60.4386H101.451V63.1266H104.935V60.4386H106.021V66.8003H104.935V64.0226H101.451V66.8003H100.365V60.4386ZM112.744 65.8931V66.8003H107.972V60.4386H112.62V61.3346H109.059V63.1266H112.228V64.0114H109.059V65.8931H112.744ZM118.392 66.8003L117.026 64.8963C116.966 64.9037 116.869 64.9075 116.734 64.9075H115.222V66.8003H114.136V60.4386H116.734C117.578 60.4386 118.243 60.6364 118.728 61.0322C119.213 61.4279 119.456 61.9767 119.456 62.6786C119.456 63.1639 119.333 63.5784 119.086 63.9218C118.847 64.2653 118.504 64.5229 118.056 64.6946L119.568 66.8003H118.392ZM116.667 64.0226C117.22 64.0226 117.638 63.9069 117.922 63.6754C118.213 63.444 118.358 63.1117 118.358 62.6786C118.358 62.2455 118.213 61.9133 117.922 61.6818C117.638 61.4503 117.22 61.3346 116.667 61.3346H115.222V64.0226H116.667ZM125.738 65.8931V66.8003H120.967V60.4386H125.615V61.3346H122.053V63.1266H125.223V64.0114H122.053V65.8931H125.738ZM131.045 61.3346H128.873V60.4386H134.305V61.3346H132.132V66.8003H131.045V61.3346ZM137.972 66.8899C137.322 66.8899 136.732 66.748 136.202 66.4643C135.672 66.1805 135.257 65.7923 134.959 65.2995C134.66 64.7992 134.511 64.2392 134.511 63.6194C134.511 62.9997 134.66 62.4434 134.959 61.9506C135.257 61.4503 135.672 61.0583 136.202 60.7746C136.732 60.4908 137.322 60.349 137.972 60.349C138.629 60.349 139.219 60.4908 139.741 60.7746C140.271 61.0583 140.686 61.4503 140.985 61.9506C141.283 62.4434 141.433 62.9997 141.433 63.6194C141.433 64.2392 141.283 64.7992 140.985 65.2995C140.686 65.7923 140.271 66.1805 139.741 66.4643C139.219 66.748 138.629 66.8899 137.972 66.8899ZM137.972 65.9491C138.42 65.9491 138.823 65.8483 139.181 65.6467C139.54 65.4451 139.82 65.1688 140.021 64.8178C140.23 64.4669 140.335 64.0674 140.335 63.6194C140.335 63.1714 140.23 62.7719 140.021 62.421C139.82 62.0701 139.54 61.7938 139.181 61.5922C138.823 61.3906 138.42 61.2898 137.972 61.2898C137.524 61.2898 137.12 61.3906 136.762 61.5922C136.404 61.7938 136.12 62.0701 135.911 62.421C135.709 62.7719 135.608 63.1714 135.608 63.6194C135.608 64.0674 135.709 64.4669 135.911 64.8178C136.12 65.1688 136.404 65.4451 136.762 65.6467C137.12 65.8483 137.524 65.9491 137.972 65.9491ZM145.572 60.4386H146.659V65.8931H150.075V66.8003H145.572V60.4386ZM155.796 65.8931V66.8003H151.025V60.4386H155.673V61.3346H152.111V63.1266H155.281V64.0114H152.111V65.8931H155.796ZM161.243 65.2883H157.827L157.155 66.8003H156.091L159.003 60.4386H160.078L163.001 66.8003H161.904L161.243 65.2883ZM160.862 64.4258L159.541 61.4242L158.208 64.4258H160.862ZM168.111 66.8003L166.745 64.8963C166.685 64.9037 166.588 64.9075 166.454 64.9075H164.942V66.8003H163.855V60.4386H166.454C167.298 60.4386 167.962 60.6364 168.447 61.0322C168.933 61.4279 169.175 61.9767 169.175 62.6786C169.175 63.1639 169.052 63.5784 168.806 63.9218C168.567 64.2653 168.223 64.5229 167.775 64.6946L169.287 66.8003H168.111ZM166.387 64.0226C166.939 64.0226 167.357 63.9069 167.641 63.6754C167.932 63.444 168.078 63.1117 168.078 62.6786C168.078 62.2455 167.932 61.9133 167.641 61.6818C167.357 61.4503 166.939 61.3346 166.387 61.3346H164.942V64.0226H166.387ZM176.342 60.4386V66.8003H175.446L171.773 62.309V66.8003H170.686V60.4386H171.582L175.256 64.9523V60.4386H176.342ZM187.025 66.8003L187.014 62.3874L184.818 66.0387H184.314L182.119 62.4882V66.8003H181.077V60.4386H182.007L184.583 64.717L187.114 60.4386H188.055L188.066 66.8003H187.025ZM192.887 66.8899C192.237 66.8899 191.647 66.748 191.117 66.4643C190.587 66.1805 190.172 65.7923 189.874 65.2995C189.575 64.7992 189.426 64.2392 189.426 63.6194C189.426 62.9997 189.575 62.4434 189.874 61.9506C190.172 61.4503 190.587 61.0583 191.117 60.7746C191.647 60.4908 192.237 60.349 192.887 60.349C193.544 60.349 194.133 60.4908 194.656 60.7746C195.186 61.0583 195.601 61.4503 195.899 61.9506C196.198 62.4434 196.347 62.9997 196.347 63.6194C196.347 64.2392 196.198 64.7992 195.899 65.2995C195.601 65.7923 195.186 66.1805 194.656 66.4643C194.133 66.748 193.544 66.8899 192.887 66.8899ZM192.887 65.9491C193.335 65.9491 193.738 65.8483 194.096 65.6467C194.455 65.4451 194.735 65.1688 194.936 64.8178C195.145 64.4669 195.25 64.0674 195.25 63.6194C195.25 63.1714 195.145 62.7719 194.936 62.421C194.735 62.0701 194.455 61.7938 194.096 61.5922C193.738 61.3906 193.335 61.2898 192.887 61.2898C192.439 61.2898 192.035 61.3906 191.677 61.5922C191.318 61.7938 191.035 62.0701 190.826 62.421C190.624 62.7719 190.523 63.1714 190.523 63.6194C190.523 64.0674 190.624 64.4669 190.826 64.8178C191.035 65.1688 191.318 65.4451 191.677 65.6467C192.035 65.8483 192.439 65.9491 192.887 65.9491ZM201.959 66.8003L200.593 64.8963C200.533 64.9037 200.436 64.9075 200.302 64.9075H198.79V66.8003H197.703V60.4386H200.302C201.145 60.4386 201.81 60.6364 202.295 61.0322C202.781 61.4279 203.023 61.9767 203.023 62.6786C203.023 63.1639 202.9 63.5784 202.654 63.9218C202.415 64.2653 202.071 64.5229 201.623 64.6946L203.135 66.8003H201.959ZM200.235 64.0226C200.787 64.0226 201.205 63.9069 201.489 63.6754C201.78 63.444 201.926 63.1117 201.926 62.6786C201.926 62.2455 201.78 61.9133 201.489 61.6818C201.205 61.4503 200.787 61.3346 200.235 61.3346H198.79V64.0226H200.235ZM209.305 65.8931V66.8003H204.534V60.4386H209.182V61.3346H205.62V63.1266H208.79V64.0114H205.62V65.8931H209.305ZM210.954 66.8675C210.752 66.8675 210.581 66.8003 210.439 66.6659C210.304 66.524 210.237 66.3523 210.237 66.1507C210.237 65.9491 210.304 65.7811 210.439 65.6467C210.573 65.5048 210.745 65.4339 210.954 65.4339C211.163 65.4339 211.335 65.5048 211.469 65.6467C211.611 65.7811 211.682 65.9491 211.682 66.1507C211.682 66.3523 211.611 66.524 211.469 66.6659C211.335 66.8003 211.163 66.8675 210.954 66.8675Z" fill="white" fill-opacity="0.6"/>
<g style="mix-blend-mode:overlay">
<path d="M37.5007 51.6008H40.3007V54.4008H37.5007V51.6008ZM37.5007 40.4005H40.3007V48.8007H37.5007V40.4005ZM38.9007 33.4004C31.1585 33.4004 24.9004 39.7005 24.9004 47.4007C24.9004 51.1138 26.3754 54.6748 29.001 57.3004C30.301 58.6005 31.8444 59.6317 33.543 60.3353C35.2416 61.0389 37.0621 61.401 38.9007 61.401C42.6138 61.401 46.1748 59.926 48.8004 57.3004C51.426 54.6748 52.901 51.1138 52.901 47.4007C52.901 45.5621 52.5389 43.7416 51.8353 42.043C51.1317 40.3444 50.1005 38.801 48.8004 37.501C47.5004 36.2009 45.957 35.1697 44.2584 34.4661C42.5598 33.7625 40.7392 33.4004 38.9007 33.4004V33.4004ZM38.9007 58.6009C35.9302 58.6009 33.0814 57.4209 30.9809 55.3205C28.8805 53.22 27.7005 50.3712 27.7005 47.4007C27.7005 44.4302 28.8805 41.5814 30.9809 39.4809C33.0814 37.3805 35.9302 36.2005 38.9007 36.2005C41.8712 36.2005 44.72 37.3805 46.8205 39.4809C48.9209 41.5814 50.1009 44.4302 50.1009 47.4007C50.1009 50.3712 48.9209 53.22 46.8205 55.3205C44.72 57.4209 41.8712 58.6009 38.9007 58.6009V58.6009Z" fill="white"/>
</g>
</g>
<defs>
<filter id="filter0_d" x="0" y="0" width="260.005" height="94.8013" filterUnits="userSpaceOnUse" color-interpolation-filters="sRGB">
<feFlood flood-opacity="0" result="BackgroundImageFix"/>
<feColorMatrix in="SourceAlpha" type="matrix" values="0 0 0 0 0 0 0 0 0 0 0 0 0 0 0 0 0 0 127 0"/>
<feOffset dx="5"/>
<feGaussianBlur stdDeviation="9"/>
<feColorMatrix type="matrix" values="0 0 0 0 0 0 0 0 0 0 0 0 0 0 0 0 0 0 0.25 0"/>
<feBlend mode="normal" in2="BackgroundImageFix" result="effect1_dropShadow"/>
<feBlend mode="normal" in="SourceGraphic" in2="effect1_dropShadow" result="shape"/>
</filter>
<linearGradient id="paint0_linear" x1="18.4401" y1="76.8013" x2="112.052" y2="-63.6679" gradientUnits="userSpaceOnUse">
<stop offset="0.393001" stop-color="#DD5D5A"/>
<stop offset="1" stop-color="#FF918F"/>
</linearGradient>
<linearGradient id="paint1_linear" x1="18.4401" y1="76.8013" x2="112.052" y2="-63.6679" gradientUnits="userSpaceOnUse">
<stop offset="0.393001" stop-color="#DD5D5A"/>
<stop offset="1" stop-color="#FF918F"/>
</linearGradient>
</defs>
</svg>
