<svg width="212" height="90" viewBox="0 0 212 90" fill="none" xmlns="http://www.w3.org/2000/svg">
<g filter="url(#filter0_d)">
<line x1="14" y1="39.6422" x2="189" y2="39.6422" stroke="#FFFCFA" stroke-width="2.71552"/>
<path d="M18.5065 56.3362H19.6063C20.0485 56.3362 20.4151 56.278 20.706 56.1616C20.997 56.0336 21.2472 55.8358 21.4567 55.5681L28.422 46.7524C28.7129 46.38 29.0155 46.1239 29.3297 45.9843C29.6556 45.833 30.0629 45.7573 30.5517 45.7573H34.6017L26.1002 56.2489C25.5998 56.889 25.0819 57.3429 24.5466 57.6106C24.9306 57.7502 25.2739 57.9481 25.5765 58.2041C25.8907 58.4485 26.1875 58.7744 26.4668 59.1817L35.2302 71H31.0929C30.5343 71 30.1153 70.9244 29.836 70.7731C29.5683 70.6101 29.3414 70.3774 29.1552 70.0748L22.0153 60.7528C21.7942 60.4386 21.5381 60.2175 21.2472 60.0894C20.9563 59.9614 20.5373 59.8974 19.9903 59.8974H18.5065V71H13.8106V45.7573H18.5065V56.3362ZM42.459 71H37.7456V45.7573H42.459V71ZM70.5253 58.3787C70.5253 60.2291 70.2169 61.9282 69.6001 63.4761C68.9833 65.0239 68.1162 66.3565 66.999 67.4737C65.8818 68.5909 64.5376 69.458 62.9665 70.0748C61.3953 70.6916 59.6496 71 57.7294 71H48.1106V45.7573H57.7294C59.6496 45.7573 61.3953 46.0715 62.9665 46.7C64.5376 47.3168 65.8818 48.1838 66.999 49.3011C68.1162 50.4067 68.9833 51.7334 69.6001 53.2812C70.2169 54.8291 70.5253 56.5282 70.5253 58.3787ZM65.7072 58.3787C65.7072 56.9937 65.521 55.7543 65.1486 54.6603C64.7878 53.5547 64.2583 52.6237 63.56 51.8672C62.8734 51.0991 62.0354 50.5114 61.0462 50.1041C60.0686 49.6968 58.963 49.4931 57.7294 49.4931H52.824V67.2642H57.7294C58.963 67.2642 60.0686 67.0606 61.0462 66.6532C62.0354 66.2459 62.8734 65.664 63.56 64.9075C64.2583 64.1394 64.7878 63.2084 65.1486 62.1144C65.521 61.0088 65.7072 59.7636 65.7072 58.3787ZM88.1128 50.3485C87.9732 50.5929 87.8219 50.7733 87.659 50.8897C87.5077 50.9944 87.3156 51.0468 87.0829 51.0468C86.8385 51.0468 86.5708 50.9595 86.2799 50.7849C86.0006 50.5987 85.6631 50.395 85.2674 50.1739C84.8717 49.9528 84.4062 49.755 83.8708 49.5804C83.3471 49.3942 82.7245 49.3011 82.0029 49.3011C81.3512 49.3011 80.7809 49.3825 80.2922 49.5455C79.8034 49.6968 79.3902 49.9121 79.0527 50.1914C78.7269 50.4707 78.4825 50.8082 78.3195 51.2039C78.1566 51.5879 78.0751 52.0127 78.0751 52.4782C78.0751 53.0718 78.2381 53.5664 78.5639 53.9621C78.9014 54.3578 79.3437 54.6953 79.8906 54.9746C80.4376 55.2539 81.0603 55.5041 81.7585 55.7252C82.4568 55.9463 83.1725 56.1849 83.9057 56.4409C84.6389 56.6853 85.3547 56.9763 86.0529 57.3138C86.7512 57.6397 87.3738 58.0586 87.9208 58.5707C88.4678 59.0711 88.9042 59.6879 89.2301 60.4211C89.5676 61.1543 89.7363 62.0446 89.7363 63.092C89.7363 64.2325 89.5385 65.3032 89.1428 66.3041C88.7588 67.2933 88.1885 68.1603 87.432 68.9052C86.6872 69.6384 85.7736 70.2203 84.6913 70.6509C83.609 71.0698 82.3695 71.2793 80.973 71.2793C80.17 71.2793 79.3786 71.1978 78.5988 71.0349C77.8191 70.8836 77.0684 70.6625 76.3469 70.3716C75.637 70.0806 74.9678 69.7315 74.3394 69.3241C73.7109 68.9168 73.1523 68.4629 72.6635 67.9625L74.0426 65.7106C74.159 65.5476 74.3103 65.4138 74.4965 65.3091C74.6827 65.1927 74.8805 65.1345 75.09 65.1345C75.3809 65.1345 75.6952 65.2567 76.0327 65.5011C76.3702 65.7338 76.7717 65.9957 77.2372 66.2866C77.7027 66.5776 78.2439 66.8453 78.8607 67.0897C79.4891 67.3224 80.2398 67.4388 81.1126 67.4388C82.451 67.4388 83.4868 67.1246 84.22 66.4961C84.9531 65.856 85.3197 64.9425 85.3197 63.7554C85.3197 63.092 85.151 62.5509 84.8135 62.1319C84.4876 61.7129 84.0512 61.3638 83.5042 61.0845C82.9572 60.7935 82.3346 60.5491 81.6363 60.3513C80.9381 60.1534 80.2281 59.9381 79.5066 59.7054C78.785 59.4726 78.0751 59.1933 77.3769 58.8675C76.6786 58.5416 76.0559 58.1168 75.509 57.5931C74.962 57.0694 74.5197 56.4177 74.1822 55.6379C73.8564 54.8465 73.6934 53.8748 73.6934 52.7226C73.6934 51.8032 73.8738 50.9071 74.2346 50.0343C74.607 49.1614 75.1424 48.3875 75.8406 47.7125C76.5389 47.0375 77.4001 46.4963 78.4243 46.089C79.4484 45.6817 80.6238 45.478 81.9506 45.478C83.4402 45.478 84.8135 45.7108 86.0704 46.1763C87.3273 46.6418 88.398 47.2935 89.2825 48.1315L88.1128 50.3485ZM102.037 58.4485C102.899 58.4485 103.649 58.3437 104.289 58.1343C104.929 57.9131 105.459 57.6047 105.878 57.2091C106.309 56.8017 106.629 56.3129 106.838 55.7427C107.048 55.1608 107.152 54.5149 107.152 53.805C107.152 53.13 107.048 52.519 106.838 51.972C106.629 51.425 106.314 50.9595 105.895 50.5754C105.476 50.1914 104.947 49.9004 104.307 49.7026C103.667 49.4931 102.91 49.3884 102.037 49.3884H98.5286V58.4485H102.037ZM102.037 45.7573C103.725 45.7573 105.186 45.9552 106.419 46.3509C107.653 46.7465 108.671 47.2994 109.474 48.0093C110.277 48.7192 110.871 49.5687 111.255 50.558C111.65 51.5472 111.848 52.6295 111.848 53.805C111.848 55.0269 111.645 56.15 111.237 57.1741C110.83 58.1866 110.219 59.0595 109.404 59.7927C108.59 60.5259 107.565 61.0961 106.332 61.5034C105.11 61.9108 103.678 62.1144 102.037 62.1144H98.5286V71H93.8327V45.7573H102.037ZM186.629 67.1246V71H171.843V45.7573H176.539V67.1246H186.629Z" fill="#FFFCFA"/>
<path d="M139.522 58.3787C139.522 60.2291 139.214 61.9457 138.597 63.5284C137.992 65.0996 137.131 66.4612 136.013 67.6134C134.896 68.7655 133.552 69.6675 131.981 70.3192C130.41 70.9593 128.664 71.2793 126.744 71.2793C124.835 71.2793 123.095 70.9593 121.524 70.3192C119.953 69.6675 118.603 68.7655 117.474 67.6134C116.357 66.4612 115.49 65.0996 114.873 63.5284C114.256 61.9457 113.948 60.2291 113.948 58.3787C113.948 56.5282 114.256 54.8175 114.873 53.2463C115.49 51.6636 116.357 50.2961 117.474 49.144C118.603 47.9918 119.953 47.0957 121.524 46.4556C123.095 45.8039 124.835 45.478 126.744 45.478C128.024 45.478 129.229 45.6293 130.357 45.9319C131.486 46.2228 132.522 46.6418 133.465 47.1888C134.407 47.7241 135.251 48.3817 135.996 49.1614C136.752 49.9295 137.393 50.7907 137.916 51.745C138.44 52.6994 138.836 53.7351 139.103 54.8524C139.383 55.9696 139.522 57.145 139.522 58.3787ZM134.722 58.3787C134.722 56.9937 134.535 55.7543 134.163 54.6603C133.791 53.5547 133.261 52.6179 132.574 51.8498C131.888 51.0817 131.05 50.494 130.061 50.0866C129.083 49.6793 127.977 49.4756 126.744 49.4756C125.51 49.4756 124.399 49.6793 123.41 50.0866C122.432 50.494 121.594 51.0817 120.896 51.8498C120.209 52.6179 119.68 53.5547 119.307 54.6603C118.935 55.7543 118.749 56.9937 118.749 58.3787C118.749 59.7636 118.935 61.0088 119.307 62.1144C119.68 63.2084 120.209 64.1394 120.896 64.9075C121.594 65.664 122.432 66.2459 123.41 66.6532C124.399 67.0606 125.51 67.2642 126.744 67.2642C127.977 67.2642 129.083 67.0606 130.061 66.6532C131.05 66.2459 131.888 65.664 132.574 64.9075C133.261 64.1394 133.791 63.2084 134.163 62.1144C134.535 61.0088 134.722 59.7636 134.722 58.3787Z" fill="#EE737B"/>
<path d="M167.719 58.3787C167.719 60.2291 167.411 61.9457 166.794 63.5284C166.189 65.0996 165.328 66.4612 164.21 67.6134C163.093 68.7655 161.749 69.6675 160.178 70.3192C158.607 70.9593 156.861 71.2793 154.941 71.2793C153.032 71.2793 151.292 70.9593 149.721 70.3192C148.15 69.6675 146.8 68.7655 145.671 67.6134C144.554 66.4612 143.687 65.0996 143.07 63.5284C142.453 61.9457 142.145 60.2291 142.145 58.3787C142.145 56.5282 142.453 54.8175 143.07 53.2463C143.687 51.6636 144.554 50.2961 145.671 49.144C146.8 47.9918 148.15 47.0957 149.721 46.4556C151.292 45.8039 153.032 45.478 154.941 45.478C156.221 45.478 157.426 45.6293 158.554 45.9319C159.683 46.2228 160.719 46.6418 161.662 47.1888C162.604 47.7241 163.448 48.3817 164.193 49.1614C164.949 49.9295 165.59 50.7907 166.113 51.745C166.637 52.6994 167.033 53.7351 167.3 54.8524C167.58 55.9696 167.719 57.145 167.719 58.3787ZM162.919 58.3787C162.919 56.9937 162.732 55.7543 162.36 54.6603C161.988 53.5547 161.458 52.6179 160.771 51.8498C160.085 51.0817 159.247 50.494 158.258 50.0866C157.28 49.6793 156.174 49.4756 154.941 49.4756C153.707 49.4756 152.596 49.6793 151.607 50.0866C150.629 50.494 149.791 51.0817 149.093 51.8498C148.406 52.6179 147.877 53.5547 147.504 54.6603C147.132 55.7543 146.946 56.9937 146.946 58.3787C146.946 59.7636 147.132 61.0088 147.504 62.1144C147.877 63.2084 148.406 64.1394 149.093 64.9075C149.791 65.664 150.629 66.2459 151.607 66.6532C152.596 67.0606 153.707 67.2642 154.941 67.2642C156.174 67.2642 157.28 67.0606 158.258 66.6532C159.247 66.2459 160.085 65.664 160.771 64.9075C161.458 64.1394 161.988 63.2084 162.36 62.1144C162.732 61.0088 162.919 59.7636 162.919 58.3787Z" fill="#BDEBE8"/>
</g>
<defs>
<filter id="filter0_d" x="-2" y="-18" width="225.054" height="117" filterUnits="userSpaceOnUse" color-interpolation-filters="sRGB">
<feFlood flood-opacity="0" result="BackgroundImageFix"/>
<feColorMatrix in="SourceAlpha" type="matrix" values="0 0 0 0 0 0 0 0 0 0 0 0 0 0 0 0 0 0 127 0"/>
<feOffset dx="5"/>
<feGaussianBlur stdDeviation="9"/>
<feColorMatrix type="matrix" values="0 0 0 0 0 0 0 0 0 0 0 0 0 0 0 0 0 0 0.25 0"/>
<feBlend mode="normal" in2="BackgroundImageFix" result="effect1_dropShadow"/>
<feBlend mode="normal" in="SourceGraphic" in2="effect1_dropShadow" result="shape"/>
</filter>
</defs>
</svg>
