<svg width="450" height="400" viewBox="0 0 450 400" fill="none" xmlns="http://www.w3.org/2000/svg">
<mask id="mask0" mask-type="alpha" maskUnits="userSpaceOnUse" x="0" y="0" width="450" height="400">
<rect width="450" height="400" rx="40" fill="#F7E4DA"/>
</mask>
<g mask="url(#mask0)">
<g filter="url(#filter0_d)">
<path fill-rule="evenodd" clip-rule="evenodd" d="M205.994 29.6016C198.868 17.9617 184.431 10 167.781 10C150.197 10 135.082 18.8796 128.439 31.5934C114.244 32.8178 102.941 42.2494 101.349 54.1526C97.5997 53.0215 93.5583 52.4051 89.3453 52.4051C69.7451 52.4051 53.856 65.7459 53.856 82.2026C53.856 98.5237 69.4844 111.78 88.8618 111.997V112H89.3453H303.595L303.62 112L303.644 112H303.676C321.537 111.974 336.007 99.79 336.007 84.764C336.007 69.7219 321.507 57.5279 303.62 57.5279C303.051 57.5279 302.485 57.5402 301.924 57.5646C303.024 54.7699 303.62 51.7819 303.62 48.6769C303.62 33.069 288.571 20.4163 270.009 20.4163C257.679 20.4163 246.901 25.9979 241.052 34.3197C236.292 29.184 228.864 25.8806 220.517 25.8806C215.138 25.8806 210.141 27.2521 205.994 29.6016Z" fill="#FDF6ED"/>
<path d="M86.6895 90.4887H78.1608L76.5761 94.4073H70.7558L79.6591 74.2381H85.2777L94.2098 94.4073H88.2742L86.6895 90.4887ZM85.0183 86.282L82.4252 79.8278L79.832 86.282H85.0183ZM110.407 89.0481H107.295V94.4073H101.59V74.2381H110.81C112.635 74.2381 114.22 74.5454 115.564 75.1601C116.909 75.7556 117.946 76.62 118.676 77.7533C119.406 78.8674 119.771 80.1832 119.771 81.7007C119.771 83.1606 119.425 84.438 118.734 85.5329C118.061 86.6086 117.091 87.4538 115.824 88.0684L120.174 94.4073H114.066L110.407 89.0481ZM114.008 81.7007C114.008 80.7595 113.711 80.0295 113.115 79.5109C112.52 78.9923 111.636 78.7329 110.464 78.7329H107.295V84.6397H110.464C111.636 84.6397 112.52 84.3899 113.115 83.8905C113.711 83.3719 114.008 82.6419 114.008 81.7007ZM132.693 78.7618H126.498V74.2381H144.564V78.7618H138.398V94.4073H132.693V78.7618ZM182.793 89.9989V94.4073H166.6V74.2381H182.418V78.6465H172.247V82.0465H181.208V86.3108H172.247V89.9989H182.793ZM198.809 94.8107C197.176 94.8107 195.592 94.609 194.055 94.2057C192.518 93.8023 191.27 93.2644 190.309 92.5921L192.182 88.3854C193.085 88.9809 194.132 89.4611 195.323 89.826C196.514 90.191 197.686 90.3735 198.838 90.3735C201.028 90.3735 202.123 89.826 202.123 88.7311C202.123 88.1549 201.806 87.7323 201.172 87.4634C200.557 87.1752 199.558 86.8775 198.175 86.5701C196.658 86.2436 195.39 85.8978 194.372 85.5329C193.354 85.1487 192.48 84.5436 191.75 83.7176C191.02 82.8917 190.655 81.7775 190.655 80.3753C190.655 79.1459 190.991 78.0414 191.664 77.0618C192.336 76.0629 193.335 75.2754 194.66 74.6991C196.005 74.1228 197.647 73.8347 199.587 73.8347C200.913 73.8347 202.219 73.9884 203.506 74.2957C204.793 74.5838 205.926 75.016 206.906 75.5923L205.148 79.8278C203.227 78.7906 201.364 78.2719 199.558 78.2719C198.425 78.2719 197.599 78.4448 197.08 78.7906C196.562 79.1171 196.302 79.5493 196.302 80.0872C196.302 80.625 196.61 81.0284 197.225 81.2973C197.839 81.5662 198.828 81.8448 200.192 82.1329C201.729 82.4595 202.997 82.8148 203.996 83.199C205.014 83.564 205.888 84.1594 206.618 84.9854C207.367 85.7922 207.741 86.8967 207.741 88.2989C207.741 89.5091 207.405 90.604 206.733 91.5837C206.061 92.5633 205.052 93.3509 203.707 93.9463C202.363 94.5226 200.73 94.8107 198.809 94.8107ZM226.195 94.8107C224.082 94.8107 222.18 94.3689 220.49 93.4853C218.819 92.5825 217.503 91.3339 216.543 89.7396C215.582 88.1453 215.102 86.3396 215.102 84.3227C215.102 82.3058 215.582 80.5002 216.543 78.9058C217.503 77.3115 218.819 76.0725 220.49 75.1889C222.18 74.2861 224.082 73.8347 226.195 73.8347C228.039 73.8347 229.701 74.1612 231.18 74.8143C232.659 75.4674 233.888 76.4087 234.868 77.638L231.237 80.9228C229.931 79.3476 228.346 78.5601 226.483 78.5601C225.388 78.5601 224.409 78.8002 223.544 79.2804C222.699 79.7606 222.036 80.4425 221.556 81.3261C221.095 82.1905 220.865 83.1894 220.865 84.3227C220.865 85.456 221.095 86.4645 221.556 87.3481C222.036 88.2125 222.699 88.8848 223.544 89.365C224.409 89.8453 225.388 90.0854 226.483 90.0854C228.346 90.0854 229.931 89.2978 231.237 87.7227L234.868 91.0074C233.888 92.2368 232.659 93.178 231.18 93.8311C229.701 94.4842 228.039 94.8107 226.195 94.8107ZM256.35 90.4887H247.821L246.236 94.4073H240.416L249.32 74.2381H254.938L263.87 94.4073H257.935L256.35 90.4887ZM254.679 86.282L252.086 79.8278L249.492 86.282H254.679ZM280.47 74.2381C282.295 74.2381 283.88 74.5454 285.225 75.1601C286.569 75.7556 287.607 76.62 288.336 77.7533C289.066 78.8674 289.431 80.1832 289.431 81.7007C289.431 83.2182 289.066 84.534 288.336 85.6481C287.607 86.7622 286.569 87.6266 285.225 88.2413C283.88 88.8368 282.295 89.1345 280.47 89.1345H276.955V94.4073H271.25V74.2381H280.47ZM280.125 84.6397C281.296 84.6397 282.18 84.3899 282.776 83.8905C283.371 83.3719 283.669 82.6419 283.669 81.7007C283.669 80.7595 283.371 80.0295 282.776 79.5109C282.18 78.9923 281.296 78.7329 280.125 78.7329H276.955V84.6397H280.125ZM314.169 89.9989V94.4073H297.976V74.2381H313.794V78.6465H303.623V82.0465H312.584V86.3108H303.623V89.9989H314.169Z" fill="#FF7C6B"/>
</g>
</g>
<defs>
<filter id="filter0_d" x="28.856" y="-15" width="362.151" height="182" filterUnits="userSpaceOnUse" color-interpolation-filters="sRGB">
<feFlood flood-opacity="0" result="BackgroundImageFix"/>
<feColorMatrix in="SourceAlpha" type="matrix" values="0 0 0 0 0 0 0 0 0 0 0 0 0 0 0 0 0 0 127 0"/>
<feOffset dx="15" dy="15"/>
<feGaussianBlur stdDeviation="20"/>
<feColorMatrix type="matrix" values="0 0 0 0 0 0 0 0 0 0 0 0 0 0 0 0 0 0 0.15 0"/>
<feBlend mode="normal" in2="BackgroundImageFix" result="effect1_dropShadow"/>
<feBlend mode="normal" in="SourceGraphic" in2="effect1_dropShadow" result="shape"/>
</filter>
</defs>
</svg>
