<svg width="254" height="115" viewBox="0 0 254 115" fill="none" xmlns="http://www.w3.org/2000/svg">
<g filter="url(#filter0_ddddd)">
<rect x="23" y="23" width="208" height="69" rx="14.26" fill="#262A45"/>
</g>
<path d="M55.6358 71L50.88 64.1305H50.5981H45.631V71H39.924V46.3401H50.5981C52.7823 46.3401 54.6729 46.7042 56.2699 47.4322C57.8904 48.1603 59.1352 49.1936 60.0041 50.5323C60.8731 51.871 61.3076 53.4563 61.3076 55.2881C61.3076 57.12 60.8613 58.7053 59.9689 60.044C59.0999 61.3592 57.8552 62.369 56.2347 63.0736L61.7655 71H55.6358ZM55.5301 55.2881C55.5301 53.9025 55.0839 52.8456 54.1914 52.1176C53.299 51.3661 51.9955 50.9903 50.2811 50.9903H45.631V59.586H50.2811C51.9955 59.586 53.299 59.2102 54.1914 58.4587C55.0839 57.7072 55.5301 56.6503 55.5301 55.2881ZM82.0695 61.594C82.0695 61.6645 82.0342 62.1577 81.9638 63.0736H67.6258C67.8842 64.2479 68.4948 65.1756 69.4577 65.8567C70.4206 66.5377 71.6184 66.8783 73.051 66.8783C74.0374 66.8783 74.9064 66.7374 75.6579 66.4555C76.4329 66.1502 77.1492 65.6805 77.8068 65.0464L80.7308 68.217C78.9459 70.2602 76.339 71.2818 72.9101 71.2818C70.7729 71.2818 68.8823 70.8708 67.2383 70.0488C65.5943 69.2034 64.3261 68.0408 63.4337 66.5612C62.5412 65.0816 62.095 63.4024 62.095 61.5236C62.095 59.6682 62.5295 58.0007 63.3984 56.5211C64.2909 55.0181 65.5004 53.8555 67.027 53.0335C68.577 52.1881 70.3032 51.7653 72.2055 51.7653C74.0609 51.7653 75.7401 52.1646 77.2432 52.9631C78.7463 53.7616 79.9205 54.9124 80.766 56.4155C81.635 57.895 82.0695 59.6212 82.0695 61.594ZM72.2408 55.9223C70.996 55.9223 69.9509 56.2745 69.1054 56.9791C68.2599 57.6837 67.7433 58.6466 67.5554 59.8678H76.8909C76.703 58.6701 76.1863 57.7189 75.3408 57.0143C74.4954 56.2863 73.462 55.9223 72.2408 55.9223Z" fill="#869DFF"/>
<path d="M90.167 71.2818C88.5935 71.2818 87.0552 71.0939 85.5521 70.7182C84.049 70.3189 82.8513 69.8257 81.9588 69.2386L83.7907 65.293C84.6362 65.8332 85.6578 66.2794 86.8556 66.6317C88.0533 66.9605 89.2276 67.1249 90.3784 67.1249C92.7035 67.1249 93.866 66.5495 93.866 65.3987C93.866 64.8585 93.549 64.471 92.9149 64.2362C92.2807 64.0013 91.3061 63.8017 89.9909 63.6373C88.4408 63.4024 87.1609 63.1323 86.151 62.827C85.1411 62.5217 84.2604 61.9815 83.5089 61.2065C82.7808 60.4315 82.4168 59.3277 82.4168 57.895C82.4168 56.6973 82.7573 55.6404 83.4384 54.7245C84.143 53.7851 85.1529 53.057 86.4681 52.5403C87.8067 52.0237 89.3803 51.7653 91.1887 51.7653C92.5273 51.7653 93.8543 51.918 95.1695 52.2233C96.5081 52.5051 97.612 52.9044 98.4809 53.421L96.6491 57.3314C94.9816 56.392 93.1614 55.9223 91.1887 55.9223C90.0144 55.9223 89.1337 56.0867 88.5465 56.4155C87.9594 56.7443 87.6658 57.167 87.6658 57.6837C87.6658 58.2708 87.9829 58.6818 88.617 58.9167C89.2511 59.1515 90.261 59.3746 91.6466 59.586C93.1967 59.8443 94.4649 60.1262 95.4513 60.4315C96.4377 60.7133 97.2949 61.2417 98.023 62.0168C98.751 62.7918 99.115 63.8721 99.115 65.2578C99.115 66.4321 98.7628 67.4772 98.0582 68.3931C97.3536 69.309 96.3203 70.0253 94.9581 70.542C93.6194 71.0352 92.0224 71.2818 90.167 71.2818Z" fill="#BA98D0"/>
<path d="M109.587 71.2818C107.59 71.2818 105.794 70.8708 104.197 70.0488C102.623 69.2034 101.39 68.0408 100.498 66.5612C99.6053 65.0816 99.1591 63.4024 99.1591 61.5236C99.1591 59.6447 99.6053 57.9655 100.498 56.4859C101.39 55.0063 102.623 53.8555 104.197 53.0335C105.794 52.1881 107.59 51.7653 109.587 51.7653C111.583 51.7653 113.368 52.1881 114.941 53.0335C116.515 53.8555 117.748 55.0063 118.64 56.4859C119.533 57.9655 119.979 59.6447 119.979 61.5236C119.979 63.4024 119.533 65.0816 118.64 66.5612C117.748 68.0408 116.515 69.2034 114.941 70.0488C113.368 70.8708 111.583 71.2818 109.587 71.2818ZM109.587 66.7726C110.996 66.7726 112.147 66.3029 113.039 65.3635C113.955 64.4006 114.413 63.1206 114.413 61.5236C114.413 59.9265 113.955 58.6583 113.039 57.7189C112.147 56.756 110.996 56.2745 109.587 56.2745C108.178 56.2745 107.015 56.756 106.099 57.7189C105.183 58.6583 104.725 59.9265 104.725 61.5236C104.725 63.1206 105.183 64.4006 106.099 65.3635C107.015 66.3029 108.178 66.7726 109.587 66.7726ZM121.715 44.8606H127.21V71H121.715V44.8606ZM149.467 52.0471V71H144.253V68.7454C143.525 69.5674 142.656 70.2015 141.646 70.6477C140.637 71.0705 139.544 71.2818 138.37 71.2818C135.881 71.2818 133.908 70.5655 132.452 69.1329C130.996 67.7003 130.268 65.5748 130.268 62.7566V52.0471H135.763V61.9463C135.763 64.9994 137.043 66.526 139.603 66.526C140.918 66.526 141.975 66.1033 142.774 65.2578C143.572 64.3888 143.971 63.1088 143.971 61.4179V52.0471H149.467ZM164.845 70.0841C164.305 70.4833 163.636 70.7886 162.837 71C162.062 71.1879 161.24 71.2818 160.371 71.2818C158.117 71.2818 156.367 70.7064 155.122 69.5556C153.901 68.4048 153.29 66.7139 153.29 64.4828V56.6973H150.366V52.4699H153.29V47.855H158.786V52.4699H163.506V56.6973H158.786V64.4123C158.786 65.2108 158.985 65.8332 159.385 66.2794C159.807 66.7021 160.395 66.9135 161.146 66.9135C162.015 66.9135 162.755 66.6787 163.366 66.2089L164.845 70.0841ZM165.993 52.0471H171.488V71H165.993V52.0471ZM168.74 49.405C167.73 49.405 166.908 49.1114 166.274 48.5243C165.64 47.9372 165.323 47.2091 165.323 46.3401C165.323 45.4712 165.64 44.7431 166.274 44.156C166.908 43.5688 167.73 43.2753 168.74 43.2753C169.75 43.2753 170.572 43.5571 171.206 44.1208C171.84 44.6844 172.157 45.389 172.157 46.2345C172.157 47.1504 171.84 47.9137 171.206 48.5243C170.572 49.1114 169.75 49.405 168.74 49.405ZM183.669 71.2818C181.673 71.2818 179.877 70.8708 178.28 70.0488C176.706 69.2034 175.473 68.0408 174.581 66.5612C173.688 65.0816 173.242 63.4024 173.242 61.5236C173.242 59.6447 173.688 57.9655 174.581 56.4859C175.473 55.0063 176.706 53.8555 178.28 53.0335C179.877 52.1881 181.673 51.7653 183.669 51.7653C185.666 51.7653 187.451 52.1881 189.024 53.0335C190.598 53.8555 191.831 55.0063 192.723 56.4859C193.616 57.9655 194.062 59.6447 194.062 61.5236C194.062 63.4024 193.616 65.0816 192.723 66.5612C191.831 68.0408 190.598 69.2034 189.024 70.0488C187.451 70.8708 185.666 71.2818 183.669 71.2818ZM183.669 66.7726C185.079 66.7726 186.229 66.3029 187.122 65.3635C188.038 64.4006 188.496 63.1206 188.496 61.5236C188.496 59.9265 188.038 58.6583 187.122 57.7189C186.229 56.756 185.079 56.2745 183.669 56.2745C182.26 56.2745 181.098 56.756 180.182 57.7189C179.266 58.6583 178.808 59.9265 178.808 61.5236C178.808 63.1206 179.266 64.4006 180.182 65.3635C181.098 66.3029 182.26 66.7726 183.669 66.7726ZM207.317 51.7653C209.666 51.7653 211.556 52.4699 212.989 53.879C214.445 55.2881 215.173 57.3784 215.173 60.1497V71H209.678V60.9951C209.678 59.4921 209.349 58.3765 208.691 57.6484C208.034 56.8969 207.082 56.5211 205.838 56.5211C204.452 56.5211 203.348 56.9556 202.526 57.8246C201.704 58.6701 201.293 59.9383 201.293 61.6293V71H195.798V52.0471H201.047V54.2665C201.775 53.468 202.679 52.8574 203.759 52.4347C204.84 51.9884 206.026 51.7653 207.317 51.7653Z" fill="#FF918F"/>
<defs>
<filter id="filter0_ddddd" x="0.0131927" y="0.0131927" width="253.974" height="114.974" filterUnits="userSpaceOnUse" color-interpolation-filters="sRGB">
<feFlood flood-opacity="0" result="BackgroundImageFix"/>
<feColorMatrix in="SourceAlpha" type="matrix" values="0 0 0 0 0 0 0 0 0 0 0 0 0 0 0 0 0 0 127 0"/>
<feOffset dx="6.26913" dy="6.26913"/>
<feGaussianBlur stdDeviation="8.35884"/>
<feColorMatrix type="matrix" values="0 0 0 0 0 0 0 0 0 0 0 0 0 0 0 0 0 0 0.2 0"/>
<feBlend mode="normal" in2="BackgroundImageFix" result="effect1_dropShadow"/>
<feColorMatrix in="SourceAlpha" type="matrix" values="0 0 0 0 0 0 0 0 0 0 0 0 0 0 0 0 0 0 127 0"/>
<feOffset dx="-6.26913" dy="-6.26913"/>
<feGaussianBlur stdDeviation="8.35884"/>
<feColorMatrix type="matrix" values="0 0 0 0 0.166528 0 0 0 0 0.190544 0 0 0 0 0.366667 0 0 0 0.3 0"/>
<feBlend mode="normal" in2="effect1_dropShadow" result="effect2_dropShadow"/>
<feColorMatrix in="SourceAlpha" type="matrix" values="0 0 0 0 0 0 0 0 0 0 0 0 0 0 0 0 0 0 127 0"/>
<feOffset dx="-3.13456" dy="-3.13456"/>
<feGaussianBlur stdDeviation="4.17942"/>
<feColorMatrix type="matrix" values="0 0 0 0 0.188472 0 0 0 0 0.211856 0 0 0 0 0.383333 0 0 0 0.3 0"/>
<feBlend mode="normal" in2="effect2_dropShadow" result="effect3_dropShadow"/>
<feColorMatrix in="SourceAlpha" type="matrix" values="0 0 0 0 0 0 0 0 0 0 0 0 0 0 0 0 0 0 127 0"/>
<feOffset dx="3.13456" dy="3.13456"/>
<feGaussianBlur stdDeviation="4.17942"/>
<feColorMatrix type="matrix" values="0 0 0 0 0 0 0 0 0 0 0 0 0 0 0 0 0 0 0.3 0"/>
<feBlend mode="normal" in2="effect3_dropShadow" result="effect4_dropShadow"/>
<feColorMatrix in="SourceAlpha" type="matrix" values="0 0 0 0 0 0 0 0 0 0 0 0 0 0 0 0 0 0 127 0"/>
<feOffset dx="-1.04485" dy="-1.04485"/>
<feGaussianBlur stdDeviation="2.08971"/>
<feColorMatrix type="matrix" values="0 0 0 0 0.20691 0 0 0 0 0.232581 0 0 0 0 0.420833 0 0 0 0.6 0"/>
<feBlend mode="normal" in2="effect4_dropShadow" result="effect5_dropShadow"/>
<feBlend mode="normal" in="SourceGraphic" in2="effect5_dropShadow" result="shape"/>
</filter>
</defs>
</svg>
