<svg width="897" height="123" viewBox="0 0 897 123" fill="none" xmlns="http://www.w3.org/2000/svg">
<path d="M149.5 0H0V123H12.4583C24.9167 123 49.8333 123 74.75 116.406C91.3611 112.011 107.972 104.685 124.583 97.3584C132.889 93.6953 141.194 90.0322 149.5 86.7354C174.417 76.845 199.333 70.2515 224.25 70.2515C249.167 70.2515 144.849 70.2515 158.304 70.4313L149.5 70.4912V0Z" fill="white"/>
<path d="M149.5 0H448.5V123H436.042C423.583 123 398.667 123 373.75 116.406C357.139 112.011 340.528 104.685 323.917 97.3584C315.611 93.6953 307.306 90.0322 299 86.7354C274.083 76.845 249.167 70.2515 224.25 70.2515C199.333 70.2515 175.413 70.2515 161.958 70.4313L149.5 70.4912V0Z" fill="white"/>
<path d="M598 0H448.5V123H460.958C473.417 123 498.333 123 523.25 116.406C539.861 112.011 556.472 104.685 573.083 97.3584C581.389 93.6953 589.694 90.0322 598 86.7354C622.917 76.845 647.833 70.2515 672.75 70.2515C697.667 70.2515 593.349 70.2515 606.804 70.4313L598 70.4912V0Z" fill="white"/>
<path d="M598 0H897V123H884.542C872.083 123 847.167 123 822.25 116.406C805.639 112.011 789.028 104.685 772.417 97.3584C764.111 93.6953 755.806 90.0322 747.5 86.7354C722.583 76.845 697.667 70.2515 672.75 70.2515C647.833 70.2515 623.913 70.2515 610.458 70.4313L598 70.4912V0Z" fill="white"/>
</svg>
