<svg width="458" height="400" viewBox="0 0 458 400" fill="none" xmlns="http://www.w3.org/2000/svg">
<mask id="mask0" mask-type="alpha" maskUnits="userSpaceOnUse" x="8" y="0" width="450" height="400">
<rect x="8" width="450" height="400" rx="40" fill="#F7E4DA"/>
</mask>
<g mask="url(#mask0)">
<g filter="url(#filter0_d)">
<path d="M30.8549 234.501H55.4487L59.3872 265.575H27.354L30.8549 234.501Z" fill="#5F6B83"/>
<path d="M73.3905 218.044C73.3905 234.723 59.8716 248.243 43.1952 248.243C26.5189 248.243 13 234.723 13 218.044C13 201.366 26.5189 187.846 43.1952 187.846C59.8716 187.846 73.3905 201.366 73.3905 218.044Z" fill="#75C7A2"/>
<path d="M51.7724 67.5781C51.7724 72.3156 47.9323 76.1561 43.1952 76.1561C38.4582 76.1561 34.618 72.3156 34.618 67.5781C34.618 62.8405 38.4582 59 43.1952 59C47.9323 59 51.7724 62.8405 51.7724 67.5781Z" fill="#75C7A2"/>
<path d="M13.5689 213.887L34.7056 67.0967H51.6412L72.9966 214.937L13.5689 213.887Z" fill="#75C7A2"/>
<path fill-rule="evenodd" clip-rule="evenodd" d="M43.1952 234.501H30.8549L27.354 265.575H59.3872L59.3871 265.574H43.1952V234.501Z" fill="#768EB3"/>
<path fill-rule="evenodd" clip-rule="evenodd" d="M43.1952 59V248.243C26.5189 248.243 13 234.723 13 218.044C13 215.139 13.4103 212.33 14.176 209.671L34.6189 67.6987C34.6183 67.6586 34.618 67.6184 34.618 67.5781C34.618 62.8405 38.4582 59 43.1952 59Z" fill="#A2E0C1"/>
<path d="M88.8595 240.049H109.781L113.132 266.473H85.8813L88.8595 240.049Z" fill="#5F6B83"/>
<path fill-rule="evenodd" clip-rule="evenodd" d="M99.3569 240.049H88.8595L85.8813 266.473H113.132L113.131 266.473H99.3569V240.049Z" fill="#768EB3"/>
<path d="M48.9276 251.675L99.4798 138.167V242.362C96.817 242.362 90.3542 243.064 85.8023 249.65C81.2504 256.237 78.843 252.08 77.2896 249.65C74.4049 245.601 67.0039 240.148 57.4624 249.65C47.9209 259.152 47.7969 254.959 48.9276 251.675Z" fill="#74B5ED"/>
<path d="M150.032 251.675L99.4801 138.167V242.362C102.143 242.362 108.606 243.064 113.158 249.65C117.71 256.237 120.117 252.08 121.67 249.65C124.555 245.601 131.956 240.148 141.498 249.65C151.039 259.152 151.163 254.959 150.032 251.675Z" fill="#4592D1"/>
<path d="M56.2446 216.313L99.48 119.368V208.359C97.2026 208.359 91.6752 208.958 87.7821 214.584C83.8891 220.209 81.8301 216.659 80.5016 214.584C78.0344 211.125 71.7045 206.468 63.5441 214.584C55.3836 222.699 55.2776 219.118 56.2446 216.313Z" fill="#A2E0C1"/>
<path d="M142.715 216.313L99.4799 119.368V208.359C101.757 208.359 107.285 208.958 111.178 214.584C115.071 220.209 117.13 216.659 118.458 214.584C120.926 211.125 127.255 206.468 135.416 214.584C143.576 222.699 143.682 219.118 142.715 216.313Z" fill="#75C7A2"/>
<path d="M68.0512 178.089L99.48 107.452V172.294C97.8245 172.294 93.8065 172.731 90.9766 176.829C88.1466 180.928 86.6499 178.341 85.6842 176.829C83.8907 174.31 79.2894 170.916 73.3574 176.829C67.4253 182.742 67.3482 180.133 68.0512 178.089Z" fill="#74B5ED"/>
<path d="M130.909 178.089L99.4799 107.452V172.294C101.135 172.294 105.153 172.731 107.983 176.829C110.813 180.928 112.31 178.341 113.276 176.829C115.069 174.31 119.671 170.916 125.603 176.829C131.535 182.742 131.612 180.133 130.909 178.089Z" fill="#4592D1"/>
</g>
</g>
<defs>
<filter id="filter0_d" x="0" y="41" width="173.517" height="243.568" filterUnits="userSpaceOnUse" color-interpolation-filters="sRGB">
<feFlood flood-opacity="0" result="BackgroundImageFix"/>
<feColorMatrix in="SourceAlpha" type="matrix" values="0 0 0 0 0 0 0 0 0 0 0 0 0 0 0 0 0 0 127 0"/>
<feOffset dx="5"/>
<feGaussianBlur stdDeviation="9"/>
<feColorMatrix type="matrix" values="0 0 0 0 0 0 0 0 0 0 0 0 0 0 0 0 0 0 0.25 0"/>
<feBlend mode="normal" in2="BackgroundImageFix" result="effect1_dropShadow"/>
<feBlend mode="normal" in="SourceGraphic" in2="effect1_dropShadow" result="shape"/>
</filter>
</defs>
</svg>
