<svg width="450" height="400" viewBox="0 0 450 400" fill="none" xmlns="http://www.w3.org/2000/svg">
<mask id="mask0" mask-type="alpha" maskUnits="userSpaceOnUse" x="0" y="0" width="450" height="400">
<rect width="450" height="400" rx="40" fill="#F7E4DA"/>
</mask>
<g mask="url(#mask0)">
<g filter="url(#filter0_d)">
<path d="M304.579 285.027H312.02L313.212 294.437H303.52L304.579 285.027Z" fill="#5F6B83"/>
<path fill-rule="evenodd" clip-rule="evenodd" d="M308.313 285.027H304.579L303.52 294.437H313.212L313.212 294.437H308.313V285.027Z" fill="#768EB3"/>
<rect x="299.399" y="231.346" width="17.9147" height="56.7786" rx="8.95733" fill="#74B5ED"/>
<path fill-rule="evenodd" clip-rule="evenodd" d="M317.314 240.303C317.314 235.356 313.303 231.346 308.356 231.346V288.125C313.303 288.125 317.314 284.114 317.314 279.167V240.303Z" fill="#4592D1"/>
<path d="M327.281 280.211H343.005L345.523 300.079H325.042L327.281 280.211Z" fill="#5F6B83"/>
<path d="M354.476 269.689C354.476 280.353 345.833 288.997 335.171 288.997C324.509 288.997 315.865 280.353 315.865 269.689C315.865 259.026 324.509 250.381 335.171 250.381C345.833 250.381 354.476 259.026 354.476 269.689Z" fill="#75C7A2"/>
<path d="M340.655 173.485C340.655 176.514 338.199 178.969 335.171 178.969C332.142 178.969 329.687 176.514 329.687 173.485C329.687 170.456 332.142 168 335.171 168C338.199 168 340.655 170.456 340.655 173.485Z" fill="#75C7A2"/>
<path d="M316.229 267.031L329.743 173.177H340.571L354.225 267.702L316.229 267.031Z" fill="#75C7A2"/>
<path fill-rule="evenodd" clip-rule="evenodd" d="M335.171 280.211H327.281L325.042 300.079H345.523L345.523 300.079H335.171V280.211Z" fill="#768EB3"/>
<path fill-rule="evenodd" clip-rule="evenodd" d="M354.476 269.662V269.717C354.476 269.708 354.476 269.698 354.476 269.689C354.476 269.68 354.476 269.671 354.476 269.662ZM335.171 288.997L335.171 168C332.142 168 329.687 170.456 329.687 173.485C329.687 173.51 329.687 173.536 329.687 173.562L316.617 264.335C316.128 266.035 315.865 267.832 315.865 269.689C315.865 280.353 324.509 288.997 335.171 288.997Z" fill="#A2E0C1"/>
<path d="M260.668 276.65H265.562L266.346 282.86H259.971L260.668 276.65Z" fill="#5F6B83"/>
<path d="M269.132 273.361C269.132 276.694 266.441 279.396 263.123 279.396C259.804 279.396 257.114 276.694 257.114 273.361C257.114 270.028 259.804 267.326 263.123 267.326C266.441 267.326 269.132 270.028 269.132 273.361Z" fill="#75C7A2"/>
<path d="M264.83 243.292C264.83 244.239 264.066 245.006 263.123 245.006C262.18 245.006 261.416 244.239 261.416 243.292C261.416 242.345 262.18 241.578 263.123 241.578C264.066 241.578 264.83 242.345 264.83 243.292Z" fill="#75C7A2"/>
<path d="M257.227 272.53L261.434 243.196H264.804L269.053 272.74L257.227 272.53Z" fill="#75C7A2"/>
<path fill-rule="evenodd" clip-rule="evenodd" d="M263.123 276.65H260.668L259.971 282.86H266.346L266.346 282.859H263.123V276.65Z" fill="#768EB3"/>
<path fill-rule="evenodd" clip-rule="evenodd" d="M263.123 279.396C263.123 279.396 263.123 279.396 263.123 279.396C259.804 279.396 257.114 276.694 257.114 273.361C257.114 272.781 257.196 272.219 257.348 271.688L261.416 243.316L261.416 243.292C261.416 242.345 262.18 241.578 263.123 241.578C263.123 241.578 263.123 241.578 263.123 241.578V279.396Z" fill="#A2E0C1"/>
<path d="M252.684 276.014H258.077L258.94 282.86H251.917L252.684 276.014Z" fill="#5F6B83"/>
<path d="M262.011 272.388C262.011 276.063 259.047 279.041 255.39 279.041C251.734 279.041 248.77 276.063 248.77 272.388C248.77 268.714 251.734 265.735 255.39 265.735C259.047 265.735 262.011 268.714 262.011 272.388Z" fill="#75C7A2"/>
<path d="M257.271 239.239C257.271 240.283 256.429 241.129 255.39 241.129C254.352 241.129 253.51 240.283 253.51 239.239C253.51 238.196 254.352 237.35 255.39 237.35C256.429 237.35 257.271 238.196 257.271 239.239Z" fill="#75C7A2"/>
<path d="M248.894 271.472L253.529 239.133H257.242L261.924 271.704L248.894 271.472Z" fill="#75C7A2"/>
<path fill-rule="evenodd" clip-rule="evenodd" d="M255.39 276.014H252.684L251.917 282.86H258.94L258.94 282.859H255.39V276.014Z" fill="#768EB3"/>
<path fill-rule="evenodd" clip-rule="evenodd" d="M255.395 237.35H255.39L255.39 279.041C251.734 279.041 248.77 276.063 248.77 272.388C248.77 271.748 248.859 271.129 249.027 270.543L253.51 239.266L253.51 239.239C253.51 238.196 254.352 237.35 255.39 237.35C255.392 237.35 255.393 237.35 255.395 237.35Z" fill="#A2E0C1"/>
<path d="M363.804 290.602H378.308L380.631 308.915H361.739L363.804 290.602Z" fill="#5F6B83"/>
<path fill-rule="evenodd" clip-rule="evenodd" d="M371.082 290.602H363.804L361.739 308.915H380.631L380.631 308.915H371.082V290.602Z" fill="#768EB3"/>
<path d="M336.119 298.659L371.167 219.997V292.205C369.321 292.205 364.84 292.692 361.684 297.256C358.529 301.821 356.859 298.94 355.783 297.256C353.783 294.45 348.651 290.671 342.036 297.256C335.421 303.841 335.335 300.935 336.119 298.659Z" fill="#74B5ED"/>
<path d="M406.215 298.659L371.167 219.997V292.205C373.013 292.205 377.494 292.692 380.65 297.256C383.805 301.821 385.475 298.94 386.551 297.256C388.551 294.45 393.683 290.671 400.298 297.256C406.913 303.841 406.999 300.935 406.215 298.659Z" fill="#4592D1"/>
<path d="M341.192 274.153L371.167 206.97V268.641C369.588 268.641 365.756 269.056 363.057 272.955C360.357 276.853 358.93 274.393 358.009 272.955C356.298 270.558 351.91 267.331 346.252 272.955C340.595 278.579 340.521 276.097 341.192 274.153Z" fill="#A2E0C1"/>
<path d="M401.142 274.153L371.167 206.97V268.641C372.746 268.641 376.578 269.056 379.277 272.955C381.976 276.853 383.404 274.393 384.325 272.955C386.035 270.558 390.424 267.331 396.081 272.955C401.739 278.579 401.812 276.097 401.142 274.153Z" fill="#75C7A2"/>
<path d="M349.377 247.664L371.167 198.711V243.647C370.019 243.647 367.233 243.95 365.271 246.791C363.309 249.631 362.272 247.838 361.602 246.791C360.359 245.044 357.169 242.693 353.056 246.791C348.943 250.888 348.89 249.08 349.377 247.664Z" fill="#74B5ED"/>
<path d="M392.957 247.664L371.167 198.711V243.647C372.315 243.647 375.101 243.95 377.063 246.791C379.025 249.631 380.062 247.838 380.732 246.791C381.975 245.044 385.165 242.693 389.278 246.791C393.391 250.888 393.444 249.08 392.957 247.664Z" fill="#4592D1"/>
<path d="M431.117 314.529H439.39L440.715 325H429.939L431.117 314.529Z" fill="#5F6B83"/>
<path fill-rule="evenodd" clip-rule="evenodd" d="M435.268 314.529H431.117L429.939 325H440.715L440.715 325H435.268V314.529Z" fill="#768EB3"/>
<rect x="425.358" y="254.788" width="19.9175" height="63.1875" rx="9.95877" fill="#74B5ED"/>
<path fill-rule="evenodd" clip-rule="evenodd" d="M445.277 264.747C445.277 259.247 440.818 254.788 435.318 254.788V317.975C440.818 317.975 445.277 313.517 445.277 308.017V264.747Z" fill="#4592D1"/>
<path d="M411.364 307.755H418.981L420.201 317.401H410.28L411.364 307.755Z" fill="#5F6B83"/>
<path fill-rule="evenodd" clip-rule="evenodd" d="M415.186 307.755H411.364L410.28 317.401H420.201L420.201 317.401H415.186V307.755Z" fill="#768EB3"/>
<path d="M396.826 311.999L415.231 270.565V308.6C414.262 308.6 411.909 308.856 410.251 311.26C408.594 313.664 407.718 312.147 407.152 311.26C406.102 309.782 403.407 307.792 399.933 311.26C396.459 314.729 396.414 313.198 396.826 311.999Z" fill="#74B5ED"/>
<path d="M433.637 311.999L415.231 270.565V308.6C416.201 308.6 418.554 308.856 420.211 311.26C421.868 313.664 422.745 312.147 423.31 311.26C424.361 309.782 427.055 307.792 430.529 311.26C434.003 314.729 434.048 313.198 433.637 311.999Z" fill="#4592D1"/>
<path d="M399.489 299.091L415.231 263.702V296.187C414.402 296.187 412.389 296.406 410.972 298.46C409.555 300.513 408.805 299.217 408.321 298.46C407.423 297.197 405.118 295.497 402.147 298.46C399.176 301.422 399.137 300.115 399.489 299.091Z" fill="#A2E0C1"/>
<path d="M430.973 299.091L415.231 263.702V296.187C416.06 296.187 418.073 296.406 419.49 298.46C420.908 300.513 421.657 299.217 422.141 298.46C423.039 297.197 425.344 295.497 428.315 298.46C431.286 301.422 431.325 300.115 430.973 299.091Z" fill="#75C7A2"/>
<path d="M403.789 285.138L415.232 259.352V283.022C414.629 283.022 413.166 283.182 412.135 284.678C411.105 286.174 410.56 285.23 410.209 284.678C409.556 283.758 407.88 282.519 405.72 284.678C403.561 286.836 403.533 285.884 403.789 285.138Z" fill="#74B5ED"/>
<path d="M426.674 285.138L415.231 259.352V283.022C415.834 283.022 417.297 283.182 418.327 284.678C419.357 286.174 419.902 285.23 420.254 284.678C420.907 283.758 422.582 282.519 424.742 284.678C426.902 286.836 426.93 285.884 426.674 285.138Z" fill="#4592D1"/>
<path d="M198.099 276.795H205.854L207.095 286.607H196.996L198.099 276.795Z" fill="#5F6B83"/>
<path fill-rule="evenodd" clip-rule="evenodd" d="M201.99 276.795H198.099L196.996 286.607H207.095L207.095 286.607H201.99V276.795Z" fill="#768EB3"/>
<path d="M183.299 281.112L202.036 238.963V277.654C201.049 277.654 198.653 277.915 196.966 280.36C195.279 282.806 194.387 281.263 193.811 280.36C192.742 278.857 189.999 276.832 186.463 280.36C182.926 283.889 182.88 282.332 183.299 281.112Z" fill="#74B5ED"/>
<path d="M220.772 281.112L202.036 238.963V277.654C203.022 277.654 205.418 277.915 207.105 280.36C208.792 282.806 209.684 281.263 210.26 280.36C211.329 278.857 214.072 276.832 217.609 280.36C221.145 283.889 221.191 282.332 220.772 281.112Z" fill="#4592D1"/>
<path d="M186.011 267.981L202.036 231.983V265.028C201.192 265.028 199.143 265.25 197.7 267.339C196.257 269.428 195.494 268.11 195.002 267.339C194.087 266.055 191.741 264.326 188.717 267.339C185.692 270.353 185.653 269.023 186.011 267.981Z" fill="#A2E0C1"/>
<path d="M218.06 267.981L202.035 231.983V265.028C202.879 265.028 204.928 265.25 206.371 267.339C207.814 269.428 208.577 268.11 209.069 267.339C209.984 266.055 212.33 264.326 215.354 267.339C218.379 270.353 218.418 269.023 218.06 267.981Z" fill="#75C7A2"/>
<path d="M190.387 253.788L202.036 227.558V251.636C201.422 251.636 199.933 251.798 198.884 253.32C197.835 254.842 197.28 253.881 196.923 253.32C196.258 252.384 194.552 251.124 192.354 253.32C190.155 255.515 190.127 254.547 190.387 253.788Z" fill="#74B5ED"/>
<path d="M213.684 253.788L202.036 227.558V251.636C202.649 251.636 204.138 251.798 205.187 253.32C206.236 254.842 206.791 253.881 207.149 253.32C207.813 252.384 209.519 251.124 211.717 253.32C213.916 255.515 213.945 254.547 213.684 253.788Z" fill="#4592D1"/>
<path d="M226.673 281.063H231.075L231.78 286.625H226.047L226.673 281.063Z" fill="#5F6B83"/>
<path fill-rule="evenodd" clip-rule="evenodd" d="M228.882 281.063H226.673L226.047 286.625H231.78L231.78 286.625H228.882V281.063Z" fill="#768EB3"/>
<path d="M218.272 283.51L228.908 259.618V281.55C228.347 281.55 226.988 281.698 226.03 283.084C225.072 284.47 224.566 283.595 224.239 283.084C223.632 282.232 222.075 281.084 220.068 283.084C218.06 285.084 218.034 284.201 218.272 283.51Z" fill="#74B5ED"/>
<path d="M239.544 283.51L228.908 259.618V281.55C229.469 281.55 230.828 281.698 231.786 283.084C232.744 284.47 233.25 283.595 233.577 283.084C234.184 282.232 235.741 281.084 237.748 283.084C239.756 285.084 239.782 284.201 239.544 283.51Z" fill="#4592D1"/>
<path d="M219.811 276.067L228.908 255.661V274.392C228.429 274.392 227.266 274.519 226.447 275.703C225.628 276.887 225.194 276.139 224.915 275.703C224.396 274.975 223.064 273.994 221.347 275.703C219.63 277.411 219.608 276.657 219.811 276.067Z" fill="#A2E0C1"/>
<path d="M238.004 276.067L228.908 255.661V274.392C229.387 274.392 230.55 274.519 231.369 275.703C232.188 276.887 232.621 276.139 232.901 275.703C233.42 274.975 234.751 273.994 236.468 275.703C238.185 277.411 238.207 276.657 238.004 276.067Z" fill="#75C7A2"/>
<path d="M222.296 268.021L228.908 253.152V266.801C228.56 266.801 227.715 266.893 227.119 267.756C226.524 268.619 226.209 268.074 226.006 267.756C225.628 267.225 224.66 266.511 223.412 267.756C222.164 269 222.148 268.451 222.296 268.021Z" fill="#74B5ED"/>
<path d="M235.52 268.021L228.908 253.152V266.801C229.256 266.801 230.101 266.893 230.697 267.756C231.292 268.619 231.607 268.074 231.81 267.756C232.188 267.225 233.156 266.511 234.404 267.756C235.652 269 235.668 268.451 235.52 268.021Z" fill="#4592D1"/>
</g>
</g>
<defs>
<filter id="filter0_d" x="170.12" y="150" width="298.157" height="193" filterUnits="userSpaceOnUse" color-interpolation-filters="sRGB">
<feFlood flood-opacity="0" result="BackgroundImageFix"/>
<feColorMatrix in="SourceAlpha" type="matrix" values="0 0 0 0 0 0 0 0 0 0 0 0 0 0 0 0 0 0 127 0"/>
<feOffset dx="5"/>
<feGaussianBlur stdDeviation="9"/>
<feColorMatrix type="matrix" values="0 0 0 0 0 0 0 0 0 0 0 0 0 0 0 0 0 0 0.25 0"/>
<feBlend mode="normal" in2="BackgroundImageFix" result="effect1_dropShadow"/>
<feBlend mode="normal" in="SourceGraphic" in2="effect1_dropShadow" result="shape"/>
</filter>
</defs>
</svg>
